<mxfile host="app.diagrams.net" agent="Mozilla/5.0 (Windows NT 10.0; Win64; x64) AppleWebKit/537.36 (KHTML, like Gecko) Chrome/138.0.0.0 Safari/537.36" version="28.2.0">
  <diagram name="第 1 页" id="d90ATciBrBoZ3P-it3fI">
    <mxGraphModel dx="1975" dy="619" grid="1" gridSize="10" guides="1" tooltips="1" connect="1" arrows="1" fold="1" page="1" pageScale="1" pageWidth="827" pageHeight="1169" math="0" shadow="0">
      <root>
        <mxCell id="0" />
        <mxCell id="1" parent="0" />
        <mxCell id="uYHn2Oexpe3gNXdjyP8U-6" value="" style="rounded=1;whiteSpace=wrap;html=1;strokeWidth=2;fillWeight=4;hachureGap=8;hachureAngle=45;fillColor=#1ba1e2;sketch=1;" vertex="1" parent="1">
          <mxGeometry x="-140" y="115" width="120" height="60" as="geometry" />
        </mxCell>
        <mxCell id="uYHn2Oexpe3gNXdjyP8U-1" value="&lt;font style=&quot;font-size: 18px;&quot;&gt;数据采集&lt;/font&gt;" style="text;html=1;align=center;verticalAlign=middle;whiteSpace=wrap;rounded=0;" vertex="1" parent="1">
          <mxGeometry x="-120" y="130" width="80" height="30" as="geometry" />
        </mxCell>
        <mxCell id="uYHn2Oexpe3gNXdjyP8U-2" value="输入：电流信号、振动信号、声信号等传感器信号" style="text;html=1;align=center;verticalAlign=middle;resizable=0;points=[];autosize=1;strokeColor=none;fillColor=none;" vertex="1" parent="1">
          <mxGeometry x="10" y="130" width="290" height="30" as="geometry" />
        </mxCell>
        <mxCell id="uYHn2Oexpe3gNXdjyP8U-3" value="输出：" style="text;html=1;align=center;verticalAlign=middle;resizable=0;points=[];autosize=1;strokeColor=none;fillColor=none;" vertex="1" parent="1">
          <mxGeometry x="320" y="130" width="60" height="30" as="geometry" />
        </mxCell>
        <mxCell id="uYHn2Oexpe3gNXdjyP8U-4" value="" style="shape=image;verticalLabelPosition=bottom;labelBackgroundColor=default;verticalAlign=top;aspect=fixed;imageAspect=0;image=data:image/png,iVBORw0KGgoAAAANSUhEUgAAAVcAAACVCAYAAADsZrkTAAAAAXNSR0IArs4c6QAAAARnQU1BAACxjwv8YQUAAAAJcEhZcwAADsMAAA7DAcdvqGQAAKgOSURBVHhe7J11mBTH1offHt/ZWXdnBdtdFvcAAULchQhxtyuxq1/0xoW4C5BAICRocHeWdXd3l3Hv749ZYHcDJDeB5JLMm2cesl3dPT1dVaeqTlWdnyCKoogbN27cuDltCIIgSAYf7I/JZBp8yI0bN27c9HEqGymcqud63XXXMXv2bKRS6eCkswaFQoHD4cDhcAxOcvMLkMlkCIKAzWYbnOTGzR8Cm83GgQMHWLFixeAkBEEQTmlcr7zySq677jrkcvngpLOGb7/9loSEBMaOHTs4yc0v4ODBg3R3d3PppZcOTnLj5g+BxWJh7dq1rFq1anDSjxvXW265ha+++mrw4bOKN954g0mTJjFjxozBSW5+ARs2bKClpYW77757cJIbN38IRFHktttu48svvxyc9OM+V1EUsVgsgw+fVdhstv+d3+Aw0dbUgcXhas/qUtez7nAx1sHn4aSntY6axh4AmnM289by/ZgBbW0x+ZXNOAdf8itjsViwWn/45L93nFYTJttJ+yMnwcL+r5ezv6wDp82CwaDHYDBgMBjobK2muKpjUH46yd/2NRuza3AAYkc+H63YTF17LwaLfcCZAxEpObydNZvzOJWzRt9cyHefbKDF7HKVddeVkl3RirG3nvT0Ykz9Hsahb6WsrnXg8xnq+XrVBgrrujCaT/U8v29MJhOn6JtySuPq5pdjNXRRXVpA2oE9LH3/fT5btJPWPluvbS2kVCuiGHwREtQSPV+/9zKLDjRi6m6jqNCA0qnl+0XvsWpf2W9uXP+omNpLWPTOm+yu7MJh6aG6vJzyigoqKyspydzDF19/R03vQIPTkb2bVdkt+Pl6YtG2UlFWTnl5OZWVlWQf3MumQ8WYB9XRisp00tucSAHR3M2hxal06htY+eF7fL2tlBPPIAg07Esjv1jHcUeeHZ3BPOAsR08DuRmFoHTNpVQV7OPrA7VY20rZtnEHPVYHjr4CJlXKyVqykA/W5HP8EfWkbi6jrbmYJW+9zNYq7bEUN8dxG9czjFThgY+vP86mGlq7E/j7v68nWmbBoNdhtDqRizZ02l56uvQ4AadFT2NjA52OAM6bnkB9XiE1bT0ImMk4sJGuoVdwxwUxHNp3kCbtqfonbs4EnhGjiVF3sPFIPYJUgadGg0ajwVOjwSsgjJHDEvBRHq1WIsa2SnYfaeWOP99Dkp8Cj4BoRo8dy5gxY0hJSeG8q2/nsZtnoBYARyfb1uyk0ehA6aHC09MDAIm3PwkqXwJik5g3LoqOiqo+Q2elriiHtLR00tMzyMlKJb25lvqearJzs8nMyubQ5mX8/fFXSW0wgujAZNCj01uQyyV01FSSk5ZKfmUT5t4mCkpqsFg7WP7R6yzaW+H6CXJ/pp0zAUttGV16HTqdHoPBjNNhx2tIMjMnxFKRmU5D58lnzf+ouI3rGcas7abbYMYpithNjWxZu4mVn3/KxsO5NLd109nSROHO5fzt/9aiB2zdNWzdvJGt23dQbfJGXrCER5/8iENbF/Hl5mKklnbSDqRSW9tEh85doH99JFzywIu8ftNoJDI1wWFhhIWGEhoSQsSQ4UydMAaF1dxn/Ox0tBmYfOMChlj288931qM9wSjSYjZhs4sg9SdYmstzL3+FxTMQY0c9NeXllJXX0GNoo6ywCltILEprPYdLOwEFkSNGMX78OMaNG8eoYWGoNAGMiPME3zjGjxvL5HkLeOutfzAxwgPRYaG1vprqhha6epvI2HcYZ8gIEofFEDwkkbFJCYSExXHbw49zx6z4Y88XPfs6HntoLi1VVVRVV1OYdojSqnLqa+uRhQ5H1VRAdk3XgN/kxm1czzgypRqNRoOho40Whx/Dh8ahcfSiDBtG8tAoooePYlRCBKKHBjmgDE3mzrvv4/ZbFjAtIQDv4Rfw7L8eZvKsG3jgprnoG0qo6FEy68prSInwHvx1bs4gNn0r+RlprFi0kHfWH6IwL5u0tHRSD+5l67bdpGVmsW/95/zt2cVUaR2AnOjkFKJ9etnw1UECIz2pSE8jLT2dIwf3sX3zHtJTd/L6f57nu7R6QCBxwnTC7dV0OZQoPTzx8vHBV6Ok3dZGZU07nj5BjJ8ynsiAvl6tRIpUKkUqlZC59isqvefw6K1TKdmxnL3lHUhlMhRKBVJBQJCpGTJiFGMTEwgPHcG1t93M8AABn8BYJkerENURjB2XjKO3B7PdicPcS1lBJtu/WcInK9KJTxnN6JRRGEuzKMyvwSTxIj55Anf95S9cNj5i8Ov6w+M2rmcYpcaXkGAfyrL2kVlXRplNipdKDqITp1NEdLr+pZ9j3NhexdaVS9iYZ+CKu29hdFwkE6aPJnHULB796z2ENu7gpXfX4O63/rrINcEkjZtAmJ9IryaCkcmjmThpHKaqA2wotjNm/DhmXnYHb79yH3FeR9eGO9j76fO8Wypy01XnM3bCBCaMH89QjYHdX1YwZNJs/v7ss8yfEuX6jpBxPPGvvxJs0yJV+xEQHIy/hxRDVAgyhRHP0CgmTBlPbKD6+IOJJvL2rmRbgYRkny4OZZo4f0YSB794kWffW01RfVc/fykIUgF9fRH7U/fzxcJFFHZ7E6rP5K1NRfj4OVj6ylPsqNAhVXkzNHEsQ9Q2Omu7kQHa6j3sqBSYNHcGzuYDvP/mGpqMJ+iOu3Eb118Dbeku9rVrmDXEn/wD33Kktp3qgizySmupKc4hLa8YgyAiBbqq8tifVoZX/ASuueo8/MU6vv9yPQ6NBINeh0kSyPyH/8b108LQGk88reHmTCEgkUiQyuTIpRIkEgmO9kJy6vy564bJdJaW0250IpNJEQQQHRZqsneQ1eOLMkBDr0VEkLiuO9rjlEgkyGQypBLB9Q0SBxXp6ZTUd0PfsebqUiKnDsVY10Zd+3E/u+iw0tFUyu7t++lSDOPeJx/jqvFq1qzYgWHIDB559E+MII9XXvqAvcX1OOxmcg9v5I2Fn5Iv+jM0fjhhDgVKrxCCVDr21+oJjw5HrZDi4aECBASJBKlUhlypxGpoYPXaUs6/+26GBvoxcc6VjJQc4S9PfUHrf72C4veP27ieaSzt7DhUzzVXXcGwyGQevPsBZkw/l/NmnUNiQiRRw5KYdv7l3HzDeBSAyWzEKjoxaVvJTT/C4e2b2FbSSW3+PrbtTSX9yGFSM7NJy8yitEk3+Nvc/ApIBBCkMjC2snXjESZeP58xId5IHfW89exHFLS4xhSiRY/eI4EHbr2CqGCvo7bypDh0dSx9diFHOn0YNzoWnCJgI+dgB1NHT2WCvZ2c0sZj54sWPT0WD8ZOncnoYAOb1m+mrKUb3wRfVICHXwDjLriTzz/4P84dGYnUqaO4up3hsy9manQIYUGByDHR2lBLXVMnNm0nNdW1dBkGTpRKJVJEUzsH9uQx/MKrmJkUgM1mw+b05Py7biPGlktOg3scNRi3cT2jOKkrLyds+uVMiffFbLOjUvkx4fxLSQ73ximKCKITj5CRXDwxBoDQoWOZO+dcpk+dxqxZ0wnAzLDrb+WWqVF0G0VGTZnB7HmX8dhf72darNvn+mtj07fR1NoNViPVR9by+uKVLHnvK3YcyaTJ4kEw2Sw/VAaARB1A8oh4VIIdx9G1TadAghkxdiLXXzUFW2cTSKSIumoOG5SMHD6MMbOj2bFsHY19K70kan8SomWsXL2V8qpyShu7GTNjGs7MEqob22ho66Fu9yqef309vXYBFEHccNPtXDwqDIfdjgM7Tok3w1LGMzY5Ht/IeMaOGktUgOrY+k3RoqW+tZOmhiYCxs5m6shgcDqwWmzY7Q7QjOTZF5/n3Jh+bgo34DauZxjRiU9EClOHhWLu7KJX7yqw0r63LooOjNaBayKlciVqtRqVSkVr4W5WpDq4/qoLGTX1PMap6ln49kdsy6zAZBeQHb2Rm18FbVUqzz/2IqbwmUy157KnNYSnXnqTt177M3MnjWP0mKk88ORLLBgqUlrXTt9eEQCcojjQ7ykIOAcZXMFrGLfcNg9vqROz2YzDYaTkwAHix17IqEAJHkNnMd0zjb89u4IuG4CZLe+8ypbyHvy91UglIPVJ4Ik3H2NCcA/frs4n6dIZdGZkU91v7a1TdPn6QQIOLeUFWeQUVtBZV0FuYQ71HUaQyMDSxqIPPyRLOY57HphN4f7v2Xooi6LyHqZfPIVQFXQ31VBX20B1RQ0Gu9s10B937TyTCDJ8/DQAWKw27IJswAt32B10GwfuHrPou2msKWX7ykWsPtLOTQ/fy6RINSBnzGW3sGB6GBvfepxrb/kTWwrbBlzr5syi8I7g0jvv58YLZzNz7vnMGB2LvTGNR++/nQULFrBgwU3c8cCjvLciHUGjOeYGcNjtqKQCMokApg4ObvicOx94ioYhQZysvyc4BMqPbCXLHMuVV6UgBRB8mP/QPTgzV/PdgSpAzugrHuLtv1xHTOwwhNKd3HnTTdz9wD3ccve/2LYvlTbVKF7+8FGS/KQg2qjIO8z363fRoQhFhQPBQ01gUBDxU27gi8euIyokmKDgQJQSJ8i8mHvNbdx/w0wSx87g4hnj8BF15B/ay8HNn/P43bdw94N/4tEXP6bWokTxY36PPxriKViwYIFoNpsHHz6reOmll8Tt27cPPvyr01ZXKuaVtQ841lFRIJa39fY74hS7G8vEw4fSxeqWHtHZL6U/Nl2n2NDUIToGJ/yKfPfdd+L7778/+LCbE2DprBOz8opE47EMNYmFqeliXbdp4InHcIotxRni7tQsscf6wzSjySTaf3bmO8Sa7P1idr1WFEWrWF9VLXYa+9/MLna2NIta88/+gj8MBoNBvPnmmwcfFsU+n4q75/orERQ1jFFDAwccC4hPIiGov99UwDd8KFOmTmBIiA8n6wfINP5EhAW4M+8sQeEfxdhRI/E4lqEqEidPIMpXNfDEYwiEjBjPuZPH4vODgHQCHirVMdfSf4+EmDHnMCbSC5ATGTsEf4/+N5PiHxKK17FdZm5+Lu436MaNGzdnALdxdePGjZszgNu4unHjxs0Z4JTGVRAElErl4MNnFQqFAg8P1z5sN6cPlUp11pcNN25+CWq1GkE42czIj2hoXXTRRQwZMuSs1tDKysoiODiYyMjIwUlufgGVlZWYTCaSk5MHJ7lx84fAbrfT1NTE+vXrByf9uMzL9ddfz1NPPYVC8cNwzmcLH3/8MaNGjWLatGmDk9z8ArZu3UpHRwcLFiwYnOTGzR8Cs9nMiy++yPLlywcn/bhxvfnmm1myZMlZ3XN99dVXmThxIrNnzx6c5OYXsHbtWlpaWrj//vsHJ7lx84fAarVy1113nVBn8Ec1tOjr+p7NOJ3OMyCrbaOtsQWtsX+AC5HelmZa2k9fMBWrvp2qpq4B2ygBsJvRGn6oX+U091JdWYHuVxAocDgcOJ0/vl/+N8GqpaGlnQHyTk4rjY31dBtPb3nWtzTT3NrJTw0K5TB1UVxch9F2+t6drrmR1s6ek0i//BBTTwsNnfrBh38EOy3VJTRrf1juTojdREtDLb2WHz6VTqc7VqbFvvrpehsiToeFztYOLEffp01LWVUtWsvpe1+nix+zjdJnnnnmmcEHj7J69WquuOIKZDLZ4KST0pixhn898zrfrlnPpo0b+f777zlcqCVyeDyBngpKdy3mn8+/w5p137Np4wY2bj6CGDiE+Eg/JEB9xlr+8dRrrFp79PoNpJd1Exo/jCDND1ZU/ygHDhwgPDycuLi4wUm/gDY+f/xTnGMmM8TvqMvEya6F73LYEMzEpJABZ4vmboqKSqhvbKa1pYWWvk97VxcV6bvZWdBOwvBYlAJg01FZ3YqHnw/60j18tqyOSTMTcPa0UFBSRm3RET5bfwCbwofosEDXlso+6vd/xb9eX41XeDimrnZaKjJZui2D0LiR+Kl+tB39ryguLsZgMDBx4sTBSb859tq9PLoog3NmjkVz9Gdb6nn2jUV4Dp9CnN/AcmRor6OorIKmltZjedPS0kpXdzMH122l2uRFQrT/CTd1FK9/m4V7upl9zihX/g1AxGG3Y7c7XAZEFKne8xl//bCMCy4YgxInToedttpqOs1SfLxUJ/yOH6N4y4d8XqpkdkoE+Yc2k1unQ9/VSltrIwc37aDa7MvQKN9j5x9Z9QarmiM5d0QQzVVFVNU109bWSmtrG20tFexek4Z6+DD8+m0kcHZk8+8/P0ObdyQqczdtTdVs3LSRDvUQ4o/FlhXpaqqmw6bGR9rBB0u+QTlkPJFqG9WFBVTWV7Nn3XIyGm2ER0bhrZLRVnqEzbtSSdu2nrU78jEY28nJyafLYEGnsxOsauPZ59YRN2MKoQM2O/z22Gw2NmzYwNVXXz04iWefffbZ0/60wYlzuG5sAM2GYB556imeeuoxxtgPc8etfyOr3cqQSZdzcRR0KpN48qmnuP/qON6/ewGvfl8MQGjibG6a7ke+eQh/feopnvr3o4wRMrj71sc50vZbq7iKGHo6aMhJZ58oRW6qYvuhbOqammmsKWCfTodnkED65k0cyKk7JiIoKLyJHzaCxJEjGTFiBCMTE0lOTsTX2cjG9XuoaOjFaO07W9LDpoVf8c3qXZRVW/CTONn1xWd8+/3XvL+vnOGT5/DgHQs4b0ICSmm/qmhp5tvNeQTNns+545MZmTSUlpyd7E1rRKE4e906/xWija62ZtKPHEbuKaenIJXU3FKaW5qoyM3C5nTibalj3dotlDQbjl3m4RfK8BGJjBwxghEjRpKYmETyyBgMRZmsS02nRWc8qZqqRGpE6+GJ1wmtop3W2nJyc3PJz8+nMGcfX6xKI3FqDO0VxeQXFFJckM3qrz9n8fdHMJygc6ZvLuH75StILWkdnHQMudqBXumFDIF9R9IoIZjExCRGDI8ir6GMRplrJ5jdpKWxPp+MXU0MCRAoykpDJ9WgVKnwUKnwUCsRrQpGzZtOpGf/MmNm59pNtAy7kEtmTmD4yET8LGWs/C4duaJ/QyVQlbORlxd/x96cKsw+PjTnbuX9L1bx/fvL6PVL5OLr7+LmS88l1NvVKQmMH8tFc0fTWF6BVuOLh7UXvTSAAFM+X63dicEpA4scZZ+Y4tnEaTeucrUP4SFBBIZEMiIyksjI4cy//0bkLflkVetRavyJCAkkICiUqMhIxpx3M+eNgzU70nH2XR8RFoR/SBTDIyOJjBnO1XfchKL2COnVvYO/7ldHdDqpyy/F10vAojVgstoQBTC314Pgwcgob2QqNWqF/HgvRCJFpfLAw8MDDw8Fxt5uSrJSSS3QcdP/vcgLf76SkKM9S1FE5hFJuKSBLQcyMLZVUCiLZXysPxIPNb4aH4L9vFHJ5RxbBSIaOLRxJ5Gzb+W6yCZ2l7ZjKN3DV/sEHvm/h4hUn7Dm/w4RcToN5GRpCUBOt96A1eZAEATqyxrxUicRopKiVnsi79fgSGSu5XoeHh54yJ10ddWTtn8f1Y5hvPz2u9x54agTKPQeRTLIwPRHTnh8IhMnTmT8+PGE2Zro9JvO3+64hKTkUYxOGcXIURN46P9e5pl7Lzjey+7D2tVAfk0zpp56lnz0Gt/mDgzUY+ysJzcnm8LyFnpKD/LZ4q8pbdHSUllCSUkxJflFtBpsqNV9Ty+KGKoyOEwgQYIZi9WOxNbCpkWHMas9UatFUpdtp1YvQXGs4RapydhHlWwS/746mr2H87Dp6vj4owOc/+i/OTfOp/8j4ZTKiRwRTMFXW6jp7aGutJahM8bijQIvH198/QPQqJV9Iy4Rp72Xveu+Qxc6i3svG0vp/gOU1NvwVEnx9PdBI5ceCxp+tnHajSu47tpWcICPlyxhyZLFPPWvd4m4+FYuH+0PgNMpIulzNfRWpZFZpeLSc8f3exiB7pI9fLpkCUuWfMHT/3yXgEsf5toxwcfO+G0Q0Pj70NQjI0Ej8s2aJi45dxI+gkhvezdSazSBnkqCojVUVFTTYz2RI07g0MIneH1tO5feeA3JUX6AA8tRH5wgYDN2I0QMZ8qYMKpqOxkSr6KlrQdDdxvV9Y00N5aze/9BmvV2wEFjSQli1BTmXzSRc86fQ/OKf3Hlvcu4+u//YE70H2iNr6AgUC3S4++DzJDOdl08MyfEIdrttBg7kA6NReWhIdrLQElVw4l9lPYWnr3ncQ6SzPXXzyTUUwIOKyeLpicIAqbOZmrr66mvr2L38q/Zkl75g3s7deUsfG8L4SMTaC3NJy+/gPy9K1jw6Bvkd57Ij+mg1yYjecxs5j/wBPNHeZKWXjcgbKHKN4wRI4ejMvbiFTWGG669mJggX8ITXL3vxJQkQlVyzH1zAzK1huY6O/PmjaI2O52YKdNIiPTC3NKLVRCQ4MCgBbn0aGMhYmitotbgz403X8DoifOIa97MNVf/BabewaPzfuhqE+xWunRyzr10Ih66OnqECEJMLbQbtDTWVNPS2kThgb3kVLQDFkqyCwiceA3T4jtZt2YLHZpx/P1vVxKs8SHQ29u1jvTMWKkzzpl7bEFAEAQEwYK2S0dXSTX13S79dJlcJGf1+9x5xy3c8M9lzHv0FR67PGnwHVzXO6zodN3oW2po6jAOPuVXx9yQxZ7sYkRPJ8aeUj566WMym7opy89ENTURlSAgiAq8NK4F9j1N5aRnZJCZmUlmZhbZuWmUNRsJCBUoz8kmOzubjYtf59Enl9BgEEEColPEIyAEU00BzcFRJAf5IBGdIEiRWJpZ8cy31JmOtuZSAqJGMHFsNNr2Gr7/cCktQhjDEpXsXLGU9QdzaW1vp62zB4v9BOPO3xkl+3dQUWZD7tTTVrCJlz5eR3tPPWWpBiYmhiIIAqJCjUYhBdFKXXEuGUfzJyubnIxsunr8CHB0kJ2dRU72YT58+jFe+OYwJ2wr+xD6/vMMCMRbOagnK5rY9+UXZGvlXHLRbEaOTGJUchIjh4Rg9vTBv2+IPBApQSGheAhacvavJsuWxMM3jh3gk5VIZSglPew7lEXGrq2UNulRS63UleSRm5dPUUERnXU9OMwuU29py2VDaj5Ou4XWukK+enMFZR1OfP08kQICEsLHRxPoe9SHKqDwCmPK9NFIjF0cWbOM1AoLw0ZHUZ22gSUb91HZ0EJbeyf6o7OHgogg8cTbV0/ZwVZGT0pE3hdlRil1cmTnNyxOb8b1Q1SMmjaHSfG+mHv1mFRx3HnXNDZ/tpzO6PO4IlHBK08+R5VaTZjn2dd7PSPG1ekQCUqcxl233sqtt97HWys/ZVT7Rv795lacgNMuMPy8m3j1lSe5IMgT/MPR9HOpOJ1O/IbP5M5bb+XWO+9n4bLFjG/9nmff2cKp5+fOPPLAJP759HNcNWEImsAkbnn4Vs4dKpCXAeMSQxHNBnrxZt6c8fgpBLxDhpAyahTJyckkJyeRNDKZmCBfgiPiGJmYRFJSEnOue5AX/jmfULUADhGJ0p8hwRLSjxTQ01pFVrGO0GA/PPyCiYnyx9AsY9qsaYRpZBjam2hsqqcg6wDbthYx9IpbuTw5Ek/VWBZcNIS0b1/n1vk3ct8Ln1PR5Wrcfs9ETbuSZ19+hKQIb8LHXsDDt11DmKGcfK9YhgfKMPZqUYQkM2t0LFJBTnjCSEYdzZ+kJBKThuLvFUB0wkiSkpJJTBrHLU/8h0cuH4f8BPVbFEU8AkKJjookMiqWSeefz7SUaFf8VQC7gbR1G+mNm8KckXKKcnMpKiygoLCIgtJqLEB/1/lgmvJ28ua7n7L8+x0UVHYOTqa3rJiyDpGoIXJWfL2cGouaAD8JDWV2Ro6Zzq1XJtJekY8ZkHol8Mg//4/rZiYSEjqMq267BA+ngjn3zyFIIgHBi6mXTkPeXU6H2YnT1EtjUyOVhels3XgAMXYat996HvI6DTfdeRGGvO/46123cevDT7G9uAUAUZARGBmFqSaHgu4OirPzMGiC8Vd7EREzBIndjDxxGmPig8DWw5ZPX+CvT71Nl1ci500Io6WxlfaMrazetI/aXgfhw8YzVl7G0g25nKh//7/MGTGuHiqFS2fo6AGJFKVaikQiIAFUCjmePgEEBg/j7ieu4uCShawp6BhwvSAI/VppKTKVCkFyRh73v0Kq8iYiJhSp04nToqespoS8oi7G3XQ5w/3k6GoO8tqLC8no0xSSSOUolcpjH4VCiVwqRSaXo1AoXNtzPb3w9fFE1veDZVIHFen5+IydyxVTZqPuPcTHu8qI9vEEpxOJFKx9JU0ilSCVSJDIfBg+NgYMbZRVVNOrN+EZmcT5MyeSfPmDfPbSX0kKPllo5t8Pnn5hRIZ44nQ4sfS0UFmSRbUxlAXXTEIjQOH3X/Haa+vocAIIyOSKfvmjcMlQS6TIFcq+/FGi8fHFW6086Uy+K6r/CXCayE9PwxI+mgtmj8NTpSFuRJKrUU0cSdKwWNQKqUsq6yRET7qKJSvX8sIcDUs+WMvABVR2CqqamXDebOJHz+VPt12Lv1zE2y8MD0kFOfl5FJSZSUgIRwCkKi/CIwOw6XUYtb3UlWXxwRcrKeo205SxhuX78rGYu9izcgWVOtfoUyqVIIpK4pJj8VFaqaoop6VbB57BzJw5i6FTL+LVt17jqrF9OyAFCdbOMgpaA7no+qsZGydl61craLUEoPHA5dawHzeTAXHjue6G65iWHEnpjmV8uiUfzfCJJA0JQu7spaqhncgx00gK9z7p+/9f5bRbq86KVJas3kHOke289cEHfPDB+zz96P+R7z+Pf943h6b83SzZfJDMvetYs6MIVcx0/nXLMN5+aAH/eHkxO3dsY/HKnZSmbuLtDz7ggw/e5Z+P/Zs8zTk8evdsfvqisDOBk5r07Xz03iJ2ZZXS3duLf+RQRiSO5aqr5pAQGUprg5VLH3yCieEni9V5ipqEq0A7TJ00SgO5Yu4UrG0WLr79T1wa4EuQzOsHOebhH8qQhGGMGTcORU8FGRUmYmOiCA4MRo2D6Bm38+ojVxNwFs62/tc4texf8yUfLlpJQXUrvXqR+OEpjJx4LlfNmkh4gI02ZSwP/+sGAk5W8o9lz4/kUx+CIHB8ZnEQEhUjJsxgxqShqHBgNWqpLCmkuKiQwqJiCsuqMVocP2G+Rsmk885jdLCM/p4dQ1MJWtlwzp8Sic2hIjp2CJ4yUHiHEOrTwXfbKrj8L49y/YxklEB78R7e/WA5GzZvIrXaRFhsAv4eUnq1BrQdjdS3dWM2m7A7JMglEiQqb6Ji40kaM554XxN7D1QRGBVLqF8QgWoJiohzeOmpv5ASdrzRlkjsNFe1MvbSSwgTbGiSL+Oxm2fQrvTDz2NQQyL3ZeLcC5kxKRFb5R6WFKn50xOPcNtlI+lqbUevNxI6fBqXXnEl546L5WTThv+rnKyI/WxkKg1jrriXl5+8iyEhIYSEhDLx4jv5+JPnmTFEg9zDi3Nue5zn/nINAT4eiED87Lv57NUnmDwsDG9vH1IuvI8P/n1L3/XhTLrwNj765Hlmxg+cmfz1EZCIDgKHjWdyyjCCIxKI9dOgEAwc2ryK5V9+QZ33eK6ZEHVMKvmHKFCr5CevvA47RqtAQsJIfDwdSKNk6Lq6qTYpiE6Ig2MLvAaiqzzEF+/tRhYSipdKjkymxNPTzu4PP+SbTVmYfrAT4feIBEQViROnMTI+nKihCXh5qLD3VPL9im9Y9Pk2os+7kqQQj5P3gjw9UUklnHjfoojVbMRgMGAwGDAajej1egx6PQaj67jRaKCmOIuskmacCMjlfd0BJ8g1/iSNncDoMWMZO2Y0EyaMwstDfpKeq41DSz7kzY/XU9FQS2p2DcPnzsW7X42VqUOZet54NKIdpygCdkRBioiU2JTpBDTlsz//uFqsd/gIzp01i2tuvJlLJscS7OeF1DOApPETGJsUx5DhyYwaPZ7owOMChQBOYx3LXllOm9SHAG81UkGKp7cHVTu+5eMP19NqOeqsE7EaTKgihxEeoCFMKUNi1tFU24D/zKH40idoe/Rsh5WOugJWr1hLrVGBKioEuU0PATEoa9LYU2LnwivPI1IjIIrOk+TJ/y6n3bj6RCZz2eWXc8mll3PNNddwzTXXcOl5UwnVuApZUMIErrr8Mi697ApmTjzaGslImHweV119ARMnTeayKy/n4n7XXzVvKiFe/wvtlkD0pAu59vwU/FUybDYbDkCqCWbqnFn4dNaxfdUytld1D77QNfPa2cie9UtYk12FcJKIUk6LHZ9YT7QNlXQqopmaqOXj1xZii53OnBQ/sNmxW+39CppIS2UqK7bVct0zjzFB0Ul2cQ06lIRHJDP/limsf+1pFu0/Xsl+t0g0zLh6PrOS41EKTqw2V6X3ixjBnJkjqS/O5Ntl62jQn6CBctporc1n1YefU9SiRXmitcFOOx1N1ZSWllFeXk55ZTkGrxFMCVdSXl5BeXk5leUlHNyxmS0HizANMCRm9B0G7H2ihL3N5RxJy6dbbzxJx1dO5PAQajI38NaidQTMnM+1s2IGVFilbyC+cgkOpxO7UwQEnB3lbPr2G7JaVFw2fyzf/ONP/OOFZRQ2dKP0DWNUUhRymxm9zoIIOI09VBYXUVJRT0N1BZXlxTR1Go81/abOSlZ9t5eoa+/mrplBFGfn0WwV8AqJ5IIFV2DOWMQTb+7ta/IdSARvwuxdlNXrmTEphdJF7/PRAbjlkilIELE77H3PCk5DK8U1RqZcdDVXX3wOqvKDLPliGdsymjn/wSe4fLiBF//+CPc99A+W7y446zoIp32H1v8aZ2aHFmg7q6kSwzh3tMufJZGpGTp1OmpdEcXmGKYkuJad9cfpsNFWmkZeRwDX33IZIeofVmBB6UfK1HEMi4kgJCSUcB8vZEFDOHfOJLylAohOBB9f4pKiUEtANHZR0Wxm3MxZDI9QY+xpJq+glpSrr2BkuBcKvyFMGDecIL8gQgNOn8/1f3mHFthpqSrCI2YSicEefbPeIcyaNYqm7IPIR0wj2mvwuxexWc3k7tmPPWkWN16QjGJw10OQ4uUXTFhYGKGhoYSGhBKXNIFpo0cQGhpCaGgoIaHhpEyeyYxxcSj6GU27uYOKAjtjZo/HVw4Om5Hc9Hz8I8cyZ0zM8QmwfvhEjuSiyy7j4lmTifA7Wd6JNOXnIwkfxdhoP3obqlBHTeOauWMIjUpkxpgg6mp7iR+fTKCnAgEw6Nto7fQiJSWcjvZOQqPiiYkZysghkfh4KpF7+BKdEI+3xERNXRNBwyczbXQ0VqOW4tQMNDMu5NykCGRyH8ZOG0ew2o+YGH/XaoOEFKYkJ7jeR0QIck81k2fMIiHUExCRChKio+KI9lMhUfoQExOBl0qK6LQhF7yZceGVnDdxGB5yBZEjJjJ7/FBUMg/iU0YR4XeKEcdvwI/t0PrRwC2ff/75WR238+WXX2bChAmcd955g5POCkSnEySSkxcqUTy5z+8MsmrVKlpbW3nwwQcHJ7n5lTlzRUBEpP/E8n+LiKv4/vw7/C9jNBq57777fn7gFje/LcKpDCuuCTA3f2zOXBH4JYYV1xzF79Sw/hTcxtWNGzduzgBu4+rGjRs3Z4BTGldBEM5qFQIAqVR6Vk/I/a8ik8nO6iDqbtz8UhQK12ank3HKCa358+fzyCOPIJf/LyyD+nksWbKEkSNHMmnSpMFJbn4Bu3btoquri2uvvXZwkhs3fwjMZjPvvfceK1asGJz04zIvl1xyCYmJiWd1DyU1NZXQ0FCGDBkyOMnNL6C0tBSj0cjYsWMHJ7lx84fAZrNRUVHBunXrBif9uHG99dZb+fLLLwcfPqtYuHAhkydPZvr06YOT3PwCNm7cSEtLC3fdddfgJDdu/jCczEb+6FIsp9OJxfJbR///ZVitVkwmVxCV04eJ4rQcGjr7h0AUacjLIa/UFR1oIHYqMg9Q2nY8+j1AZ3UpZbWtP4j9ORAjRdmFdJlOsKvoBxjJSU+nrEmPo7uCLakFaPvCzZ1uzGbzWVs2eqoLyatoHBBhzdpZS1pGDroTvGZdUyF7cmsH5JOoayGnuBztqeIQAr3VuaQVV3Fas8FpoGDPQWq6B4fgFLEbuqiqbuBkklPGpkryKxtPtvnazX+B0WgcsE14MKc0rv8VTiPlGamkpadx+OAB9u/fz4H0XNoNfaVKtFJTmEFqejqph1zp2UV1x+Uz7EbKco+QlplH0wlE0ESbnsrcdA5lFNBzspLza+FoY/W7q6ky9neX2Di0Yg0Hi0+09dXM7g1fc6hx4O9qylvP98VtAzLBabfQ09VBR0cHHZ1d6LVm8nYv4m+LD6DT9tDV2UFh2i62Ha46QfhFG5kfb6G8zYm9u4K1R5rwUJ29Lp0zRcm2FWzMbhoQBKi79ADfbkpDPEGNaMjdzZfflwzcRaWt4PPvMrEcDWV2Enpqj/D62gJO3Y05ipWCLatZfzD/pMYRAFHH3s1LyesUwdJBWk4eldWVZKfu4s0nH+GfHy6hpNkMiJgNva6y1NFBV48Wi6mWj//0Fodqu+nt6qKzpZJta7dR3XN2NpT/y/ykLP9JOI2UHFjF/dfdxWuL17Nr1y7WLn2bex78P3aXdoJopTJ/B0/edhP//nAVu3Zt54On/8Kf/+8rWq2Aw0jxkVXcPfdcHly44weGo3jjm0ydcwtf7c6my3zy1uLMItLTXEv+nt0c9JDjaDjI+19vILeklKKsg+yz6FFpeln/wQes3FaAAzB1N5GfvofSPAFvYzErP11BWbcDEBEkIiqVckAMF9Fupruzg87OTtrqili0fCni8FmMtR9h6cb9tLW30drYTFNr57F3pG2u5ND2QxSVFNHU1kptRSG5JTVo2xooK8pjy5bvOVh+PKTjHxWHoZPykiPs3tmFn6Bj/SfL2ZGaR1lxAXv2VOAh8aF093e8/sV3tJgAh4GakjwOpOXiFw471n7J2owGwJVldpUKpXDisiiKoqtXI5Ni91Ahx/X3KTo6gIIRkxLY9vIjvLgmd3AiHLsvyFUK1HIlDkM9ry1aQV4XJIydzRMLl/DNq/9mdIQrKptZ30N7Ryed7W0U7NvAZ5s7OP+6MWxZ/TW7ixtoa2mhsbWFzp4Tx/rtqT7Cwn88x7I9ZYOTjtFTcYgXnn+Wrw9UDDhu6mpk/+4t7Ck/3uGwdpby0ceLKWh3fZ+5JZ/3P1lKeffJVMrOXk6fcZUFctlfH2FWyjRueeQ5nn76aV5/+30u9czjP6+sxyDRMPeGP3P1pHFced8/efrp53j3P7eSteodVmS0gDKQK+79G3dfcxGtR9aQ1tAvs+1tpKVV4DP1Av708C3E+fxWvTEBtV8gpsZuRvrK0Jt9mT19PHHRUQTI7YQpo5g1Pompl1/GzHGxSAGFpz8ePS00hXrSUdbLpLkTqFr/DRu2HaC4son68iIObV3G86+uo8cBUpUPsUNjqdv5Pfuya6jvaSdh5mVcO1JBq9aEpasVafRYrr5kIkeDGuoqs9m1vYjg8CEEanwICo0kMiwIL79goiJCyc85RGrziSvPHwmJUkOQ1EhDtAKp3U7MlMmMHhFHVKQ/nSo7Iy6cybDRM7j2gnMIUAESJYF+dhrrPVF1VaEeMZ2hphy+WL2e9PwyOhsqycnYx0fPvsKhepfLx1y9nzc/W8WRjAwys7LIK6mlt76MjKwsMrOy2PHNe/zlhXWD4rKCvaeSxQvfp1Q2lBsvmoK5faBelgsz1QU5ZKTnUNfSSdb2pXyyPg18I0lJjsern1qrCwHfkBjivLr5dt0W6tq7qe8J4/I7LsWs70bnMNDU6WTCJZcxYcgPI85pyw7wycosJl11Ic60VSw9XDv4FHqqDvDRN9mcc9GFGI+s4bvD1a4ESxeHtyzmH39/hj1Vx7XvnJYe0tZ+wOurMwBwmDo58N27vLnhxI3J2czg3PhlmIzY7Fb0vV1YLBYMXQ10dihITo7pE3gzYrE7cDpcfS6lhyfIpUiOtuZWA4EjL+HSyF6+WpN67LZ1R9IgcTIjfQW0hsF92l8XhdxGdrORQA18t7qE8Agv2quryc0ppLlXjbatkcaaTD5buplmM0hlJjLLbFw6Zgi9td2ExcVjK8zG4BPPmJFDiB05hokjYpG1gEwK2Hs5vHUTnYETuPbyySgcNqxmB0azDUHpx+hJ4+jet4IPF6ce8wEKgoBc6YG/dwBeKjXevv4E+Hmj0vjg7ROARuOJQv5bNUj/OwgyJS2l9YR4hVL//Xq6/UIQtI2UFefTUtqFh72bluZ69n75LftLOkCQ0ZZfTuCMcYjOZpz+cYQpm9nXJmHC2FEERQ9j4sRxhKjMCPK++Bt2IzlpeoZNnMiE8eMZkxiLX8wIJo0fz4Tx4xk1IgJnYACaY0/lRKvtxWYxU9BVSbtWxvR7/o9n7jwXcNLb3s7xGQMVcaPGMnHyeGIjgpl08e08cOUU5LpmcjKyyc8voLAoi5ULX2XlwXJEQFtTxIZdhcy48kYmRmmw2y04nSbsDif+USlMiBNZtHAhGW2D65Wd7Zt3Yow4h3MmT+KaayaStXw7HQN8x3ZSN3yHYfQ8Zo2fzIJLhrJ95wF6nIDSnzk3Pcz8CRFI+g3NVOGT+eD9N7lyfBQAnrHn8sn7r3Fhcli/+/4+OL3GVZCCs5KPn/szd955J7fdfDuftHpz/bUT+kILCggOI4WHd7B180qefX0t0+c/yq1TQl3Xi05s+DP/gSuoXruS7G4nmJtIaxaYlhKP0Beu7bfE1FRMbWMvXt5OHOYavnxpGa1KNT219aTceAHDYoYwfPRMbr5mBn4K0NcVUaPVIdr0NDbks/jTtzjSbESllCORCAgSCVKpFKnUpdKg7zYQEJvEuOQQaquaSBk2HVl9Hh3+k5g9VGDhi5+jmnkfD1ybcizzBEHEbOimsa2JLqOWztYmmlo60Pd00NbWSI/OfMrFzn8cdGQUFmP198PhtJK15lM2FxqRGWppG3I+546KZUj8SC5acBVjorzB0cOekhqkgoTe5iZ2r/qMdzYXIFEqkUolSAQJUqRIpdLje/AFVwzXo/5ciUSg/7yxTCpD2j8vRCM7DuyisN2Bt58GuQSQq/BQyAEJLSW7+HDxbiz93QkSAb1BS3lBFtmHc+mVaYiOiydMaOa7V1JJvPZ6ZiWGg8OMzill1ORzCHa202LUcP5MNXm5DVw2exaKnDV8urqBvz31GIl+gxpfayOZWYWEj3QZPaW3D/bq/RS29hu+m2rZta2T5MhAADx8g+nZn0Vxx1FD7fhh9GGLlmqzH7NGuYwr5h7q7MGcmxw++MyzntNrXEUHSIby55c+Y9myZaz4+muemGzk/sdepVIrAgKIVpprykjftoVCewrP/d98jo/yRZx2G2HjLuOy+G6+3VJMQ0UxNt9YogOUOE8cVfhXRRk+gadffZErJibgGz6RPz15HxO929mX6SBYrqW6MIvtB3PQhISgkoA6YhKP/v0J5o5JIDJqFHfc8wjTIhVUFGRTWN5AXWkBmfmlaJ0iIqAJCmfYsKE4rT1obT6MSRmGl0qBp18w4f5qmqo7sCg1ePupBwTVsFmM9Gq1mKwWDAYdWr0Rq8mAVtuL6Vgw4z86Gq7785M8c888wjUhXHDHX7nlomEU7coiIFhBa205e/fso97uhb9GARJvFtz7CA9cO5Pg8DDOu+4eHrlkDKb6MjJzS2hvrCArJ5u6TtOxxksQRLTt1WTn5ZGfn09BaS09DeXk5OeTl5dPdmEZBuvx7p+9s4K0/RngoXKFtxpEfHIS1WveZfH+BnAayNm7jhdfeJX9VV1IfSMYOyaWQC85IQHeeKsV2I1SQqJjCPHzRJCqiIgbztBIP7orWvAZmczIcF/kCjURYaGoHTq663V4+vqiHiwQZupG1y4S7uvZd0DEIlqw9ZfBNXRRb/AgoE/QUEQEq4W+MLonRunNyMRE/I66MFS+JI0cgffg7/8dcHqNqyC4DKTDVXhkvjEsmH8+HXn7Ke5wtXii3I/zb32E/3vzXS4JrOL1r9MHXC8I4MCbK2+eR+7Xz7Bkdz2TpiaicNoR+4bAvyUSqRyl3EpbWyeGjhr2Z6aT36DkzuceZnZyHB7GCtav30l9p8vHKZHLkQsWWppaaG+oZn/2PspaLIRGxxEVFkBQRDTxMeGoJcKxwZNobWHl8hVktZqRSiTI5QrkMilIfTh//gwCrR0YbMcLuSgKeAVEkpgwggjfIKJjhzMiIRr/0BgSEhIJD9SccsnIHwcBpYcafVsL3cZuijPSyUwrYtg1D3PvZVOJCJGzZ+MG9lU0950uQalQ0NveRGd7C4VphzmcU4nMP4z4IRF4+4cSFx9LkJfi2PsVJWqSxiUzLC6O2NhYosOD8AwIIz42lri4WEYOS2aEUtYntmdl60fvcqTJjyF+ChyDOg+60myKTV7MGD2EruYOkDhpr+lgzHlXMCsxhmFDQuhtbGWI0p8ABTicIEh+qFXRlLuHZctSscpkSKRyFAo5EkGCT1wK58xJoL2994dLszyDCIxV0dTr8iWLNjuCU4O6v1/XO4SRAXZ6el2OC6fdhlWtxkP529bR/xVOo3F1YtbrMBgN6HRadDodnc0lfL1kEzET5zE6TI7FpMeg19HV2ozVruaWx26mY8ub/OPLXXRodei6u2nX9qI124iYegEp9g6a1YnEqx309OowGgzo9EZ+O++Ak7wNn/P3f39MZlUrNkHFyKRxjBoWR0JCFD6eTsoqJdz5z38xNkwF2Dmy5guef2sF+bVt2BQBTB47kxHhfnh4euOj8UCt8cHXx2ugNphVZNT4CUxKCEQilSKRSJBIJAhSNQnBZj5/bz2tg6KyO+1WzHYzJpMJk9mMue9fu92M9Q8gqf1TMNWn8dw/nmTZ7nwMFgc+0cMYP3E00XHRRAb5oi0vJeniB/jz+SMA6K04yOtPv8am1FJ0JgnRyROYNi4BlUqNr48XSg8Nvl6+qPvpk8nDxvOvf1xJmEaDRqNB4+mBTKXGq+/vyHEX8Ng90/rmIBxETLiG156+k0CFA5tTQKk6vtXcrmugtsXCFX97mocvSwK8mHfbXVw8eTgeEtfKkoLiRrzCR6PmhB1fAEQPP8ZfPYuAo2KWfR/PgDCMmdtZv/sEKwFkYUybMJaevnXbuuYGrENnkxQsA1F0jSIVEcy+JJrShnYAuhqq8Zs5lsSAo+/D1SmQn8XxoH8Jp8+4WltZ9up7dHtZ2P7xkzz00EP85fFXaY65jqXv/p0olZZ1H71NtlNB3oqP2JjRiNQ3hef+fjPd697lrw89xEOPvU5qyXq++GoPZnkE973wLv++diyO9nxefWcVGmk3X737MSXdpxp3nEkEYkZP59b7b2PO2GH4BoQSoJIildkp3LuWt557nUqfRKZFHR1KSYkbP53rrruSWROTCA/2QQk4nRY6WhpoaG6jpamBusZWTKJ4bJgvaMK5av4tzEhJIDY2jvj4+L5PLD7WHhSj44lUHc86ieCgq6WSzLwCxCE+GFqKKazTEy7vIS8vi+qmTpy/MDLn7wFF0BCuuOE2br78HCJ8AwkP8gGk6GqzWfzRG7y7p4u55yUfW8+qChnKRddezRXnTyc6OhgvtRzRKWLpaaeuvpGOtmbqGuvp1FmPBVWVqtQDhPREUQTR5fL5IR6MufBiJsT5g1SJsrOJ71euYPXq1axevZrPvviClWvScGp88FL3v6scmUyKVddIRZuNGecl4RoznpjIMfO48/pZxA+JJe5YWYonNiaQZouauIQhJygdEmacPxePhi0s/nYVX+9o4Mb7z8dHgJYjy3j0pc/oQcqEi6/BO3sNX61axfKDRm6+5Dxcpd9GWeYeUvPLSN+2k6r2072R53+f02dcFWHc9epnrP1+LSuXL+XLL79k6bIveObxm0jwk4Pgw/xH3uC7detZ9c17XDXFJcXrn3QxH69aw9KvvuTLpV+zatVKnr5nHipgyLhkwnzkSIPH8PInS1m/bg1LXn+cpIDfKsqVgE/UCJKG+CPDgcVmwwkIKj+mXngVc8dGk750IZ8eOapXJRAUPZzhkb4ITjtWm8u1gSBiMRjxT7yA2fE+6I1mnD8s3cdwGprYuXUj2zdt4MVlmUybOKav5+PC4elP8rTZTBk3jXtfeoIFl53DtAtu4pmHr2PcuClcPW8OY4L/mL2H/khVwYwek4CPSorVanMpqQpSokfN4poLp6Ns2seLL208tkxK6RVM0qh41DKwW20ucT0BRJsJs0c0d1w8GtFsxOo83jAORnQ4+sQDfwSPCG6ffxMRzi6am5tpbm5GM/pSbr1i6oBRjbmzkqUvPMd3h9uoT88icPyVTAo9WhrsmC1G7KfcDeakoTidjWs38v2iL8g2+jIuyTUhNRhVxGjuWnABotZAytW3Mm9kEADesZO57qJz8AA8QkZxxx0Xgc7E5CtvYE5ySN/VIoZeOzMX/ImLomUY+/mZ/zCIp2DBggWi2WwefPis4qWXXhK3b98++PAvpqVkn7h4W+ngw2LR4e/FVakNgw+LbaWZ4s6t+aJDFMXGonyxrtNyLM1p6hDLy1pEx4Ar+uGwitrGXPGVvz4kvvxdqmgadKLDYRettpNeLYpO5+Ajv5jvvvtOfP/99wcfPitwmprELR9vEJutA49bWovEVYt3itqBh0WnoVXcsXWj2GgSRUtnjZhT0dQv1S42lZeL3YPudZTWvN3ipuyawYd/Ng6bWaxN2yp+s2areCi3WDT1SzO1FojLF+8We09RFERRFK0mg5i9/iPxwT+/IqZV9QxOdvMTMRgM4s033zz4sCj2OeBPGbjFraHl5mS4NbTc/NFxa2i5cePGzW+A27i6cePGzRnAbVzduHHj5gxwSuMqCMJZ7W+lT+dGpToa4sTN6UKlUp31ZcONm1+CWq0+5aamU05oXXHFFcybN++sFvjbunUrMTExjBjhWhju5vSQnZ2NVqtl1qxZg5PcuPlDYLVa2bNnD6tXrx6c9OMyL1dddRXXXXfdWS1QuHbtWuLi4khJSRmc5OYXkJqaSm9vLxdccMHgJDdu/hBYLBbWrl3Ld999Nzjpx43rLbfccsJlBmcTb7zxBpMmTWLGjBmDk9z8AjZs2EBLSwt333334CQ3bv4QiKLIbbfd9vM0tERR/E10kgwmE7YTRcASrRj+ywhPNpvtN/kNg3H0BbMBsBjNWGw/smPFacdgNmHriwtgM1uwmH9KtHYnFr0R66m36fxiLBYLVusP5Xh+CaLDcWwLp8NiwmyxnXRL58/FYTNi+sm7hUQsFiPGvjLndNgx6c0/CIxyImwmM2aL9Sed+9/itNkYFFripNgsZuwnqksnw2nHYj1ex0SHBZ3J/IOgMj+X4/XAgclswvZTf8hPZvBWYydmvQHrTwxIYjXqBgRFOhUmk+mUAZFOaVx/HCdVB9bz3jvv8t67b7N8TxlgJ3PLMt55733effsjduf0RRj6SejZ/sZfmHv/sxR3D6wAuuoj/N/t83lhc8mA478+Itr2BsrKyigvL6e8vJzKqhpqqqsoL6+gsqqM1C3bOJxVRX+Tbu2qYvWW/bSaDOx573225bZjac3mk2U76DlRe9FbxHPPf0p+mxUQyVrxIe8s2kZFZRmVjccju/8AZycrFr7I7hrt4JRfFbO2nap+76iisoq6mmoqysupqKwk/8gOthzORdcvUKnT2sXe1VupaDVQs3cR72zNR7C0sOaTFZQPeknGrlqKKk8UrR9XA3MiA2prY9GzL7C9vAdzb+uxPKysquDQ96v4dkNGX7SqPkQTaz//gMW7KwHQ1x7ilb+/TV5tDXmFdT+QIupP7rfv8snmrFOe8/OwsPHVp3lndcZPMtz6qlRee3EJDXrXe3ZqG8nOz6e8opKCnHSO5NYPuE97xtc88tZK2g0mzHYwVe7m32+sp3OwqJdop6OxirIyV/6Wl1dQVVNDdXUl5RUVVJUXsWXrdjIrXEFdjtJTncmW3VkYTa28/+bnZLZZac/ewFfbsge9KxvtDTXH61lFJbV1NVRWuMpSSfYBVu05Qseg4PmivpbVn2+iuU84UjRW88ljL5LRMlCJw65vJvXAETLTj7BvXxqdfZVVV32Ajz9bixEw6XoxWU5Qjn4iv9C4CmgCI+jK3MGKHa1EBnsBEvzDgihbvYQ9jRDs+9/M1MsIjglF0tmGQ3CFz9C2VdOiF5F7hxAkc+Aw//ZyJXKlGi8vr2Of7tzvWbm3EC8vDRqNFwGhoQT4eR4LAGIzGLBLPdGlrWLVoXz0zXW0N5ezbn0aniGB2HQ9dLb1YgccZhMWhxMkIj11Djx9VYCAStJNt0TAT9bL4uf+yar8TgBEhxW9XodO1/fpaqamohG7HfQ6HXq9jrriXDILBqqXnmmkchWafu9I0Z3Ps9/sR/TywkujwTcglLAAX5f6AiDajOjtUmS6LF5adZB2fSsl7S0cWb+JDs9AlDYd3R0dmGyuSi6VO/h24Qt8tKMKq66V3Iw00tPTycjM4vDW5fzrxUWU9/Q3lQ5yNq6kJ24Oc0cEIJWrjj2bRqMhdEg8CUNCXBXCacdkNIEgRd9sQS51lWGZxIlR6EbloaZ41Rs8t2Sfq5ckOjEb9cfyQK/vobG8jB6zBJteh06np6e9ltQD2XRbf4pJPDm6mn18uuYwrU11ZGZlkX1kGwtf/5TC1oH1wtBZT9aRDOq1WprzizmSe4iV7y3jcOYBFh8uxcvLk6I9y/k2q7lfXAQTB7aWEB03DF32N7z87T5MNgmmVtB4DFaykKD00PSrByryl61ld2oHXhovNF7ehIWF4qc5uqJExGDQIWjUZCz5jgPZtbSUddJSkc66w9WEBHmj6+2irdfQZ+wlKNWex+8vNvPO08tpcHqi0Xji7RdIZHAAykECkYJdS0lqC4LCddzSVEGeGE58uCvm7FFMjYWsens3jXU5LF18iPrSPTz9yON8timX7upUnn/8AR5//gP2lbQOuO6/4Rcb1+AR45kxIYWRo2czIzEMkBA7+jymJw5l9DnnkjTEb/BFp0DFiEkTiPSSu6I4GWv47oMNdAkCqoAhjBsTh+IkgnC/HgIe3v6EhYURGhpKaGgovnIbZkFJaGgoIcFhDB2TwrDYEFfADVHLmi+WsTOrgTHzrmVsoBT1mHF4W3vwiU9kQrSa3A3v88RLK+lygrk5l8/eW02LUcBHpUTWl0OeAT54alQExEzk5jsvxkfuRAScZi11NVVUVVVRVV1DVUkpdbU2astzqKmrobamity0A+w+UorpV3x1cg8vgvu9o1BfBW1mgeDQUEJCQohKSGb0sBg8ZALgpHDNMr7bmYPvmDncMjYQm8dwpvtYaPYewpTx0bTnbeTvT7xOUafLYCq94rj2kvOJV8tQeIWQMn4iEyZMYPy4sUyZdwOvPHkXQ32PBzRpzD9AqXIsd8yfRFdTE1K1z7E8DAkOJW7UGMYmRyEDnFYtW79YzKHiVjQaDaq+FkCm0uAT7ImHTzBX3XULo2K8XA2W00ZHUy2VlVVUVVVTW19CQYUdfVUeBTV11NTUUJGfyfY9R2js/vkuKoeujuUbc5j60KP89fZLmThuHGJ9PkVtToL9BnZi1P4RhGhsaP2m8c43rzBBISV80jRGRXpjU/oSGiyltz2UGy8be8y4muuyOGgJYMGVE2hKLcPDbqOxoY6e3iZKSnPZvGYNRS198vCCBC//YMLC+vI3NByF0Yoo9SE0NITg0EhGp4wiLtQbAFFfzeKvl5BZ52Du3ZcTIneSMj0Be7eO2MSpDNFY2Pz2M7yw/ACuTqcUb/+g4/Us2AuDU03kkHBCQ0IIHzKCyYkJeCmlgIi+o4ny0jJKyqrptWipLkhj0/qDpGVlwIhA9NVVlOWnsmnnQXpsIIgSPJWhhIR6k3T9pYxJOZcHb5qFRZHM35//O3G+ocy75U5mDwv42a6pX2hcXdgcVtobS8jNzyc/P5/8/DQqWnux94UkFx12mssO8vpf7uNPL39Mbp0B0WmlZO83PHD3rSy490kOVLoUIu1WG04kyNCz86PXeP79j/jbQy9T2GNGFMGub2PPsle59c4nOVStG/Qkvx765nJS8+pwAiICEsnglt1FR+E+UrsdTJ8xCmOPAVMPRIwfx/BhQ5B0FJLe5SQ0ajp/fewagiTgGTuWAO0Bnl2ZR5iHQFVhJplZmeSU1lOTn0VqVi4tjR3sW7KKOoMTqWcgicmjGT16NKNTRqHsbiPu1htJlNuR+ieQlDyay257iMfvOh/NyZfknRFs+hayU/PRO13h8KQSyQkLnL2jiKWp7YyaPhUvow6LyYBXxCgmD08gVNrJnoxOQkJimf/Xh0gJUeG0W9HreomYdg5TRgdg0GnR6nQYTGbMZiN6vYGepgpSD+eic4iABE1EEldcNJ2WzYt5/Z1tNOu09Gq16PRGzCYTut52sg9n0tBjRqLyZ1ySgtfeW4pR7oWtvpisnCzSswupq6jg0P40ihp7qV2/lm0F7SBVEpmQxJgxoxk9OoUEjRN70ngump6ATu/BqFHJTJhzNU/+3/0kh3gM/vk/CdHew+ED2QyfdTuPX5VEzsEcGisO8e2WLhbcdyNB/cOkAYIgIdBXZM/yZTTrDOw7eIA2hS/eGiUSCWhrq5BNPY8xgUdXAomkrlnK9pwm6KrhiCSSmVOS8NGoUSjU+PgGEh0Xh5964LLMlooscmt7ACdIJEilJ8phKN69m46uGGakRKE1tNKNJ+OmpDAiPpiuvCw6bHIipl/LY9fOQHWicmqzYFVKj410BiP38MTH1xdfHy9UCg98/EMYEutN+ZEmxsQPw9tDx/dfLEXrEYxCAiAgSHS0NHhzXoKNbetWcaiygerSDFYtXUqNNAgqdvDak2+R1vDzwiWe+E38l0hlNiryd7J48eK+zzIOlDcjSl1vovnQNzz5n8/R+oSgP7iUh/++iKamPL5dW8AT733GXcM6WLx677H7iaITu6Bh9o03cfH4K3l+4eMk+ihx2m30dhoYffXDXBnZw6Ivdv8kv9OZoLP4EO9+fhArIJNAT3MNJeUV5B3ayucfr6BW52pYNLHn8OSf7yBIaaFo6SF0qhhSkkcxalQystZS2noh+dxzSYn07+tBKJl+6YUkx/gjl3gQO3wMY8eMI8EvDI+OZgwhI5lxxS089Z97iPYcmH26ml288Hkm486dy6zJ4az54mM25LikoH8LbJ3lrHp3OY1WkEkl2HqaKSopozTvEB9+/gVHal1+YUETy+NPPsSkIA9ainaQo/NkTMookkeNIljWxfZWLZHJ0zlvdBRyAWwmLc31Fax46U0WrcmipaGe2to6MjZ+y1crtlBRX09lUS5HjpSis7qMq49/INL2TJblaLny1uno6muoramh6PBGFq1YR2VVGWkHUylrdDXY0WOmMmdGMipRwD98KGNSxpCSOIywjh5aZP6MnjCbR159igsHh+uzdfL5O5+hC5rA7FmT0BV8z5vfHsbwCwuq0+nBmJkXMCs5CLlvHOH2g9xy7T8JvfkeZse7eofHEO201VdQ0+FEo+xh//5t9ArhRFpzWbJ8P2acdLfZGD4s7LjrqiOXQ1UmJk6Mpre1ncTR05gyNJSQQH/Unn6EhUSQNHo0Yd4DN46UHf6GT/eVAVKkgoWW2jLKKso5vHUVH36xG22fLypm5uX8+c+XobK1sWxvIfLoRJKTR5GcFEP7/np6bAHMmjuT6EDX8F3bXk9xcTElJSWUlpVRmFtErVJPS2UlpaVllBen894//8a7a3KwIaD09CE4JJjQ0EA8ld5EhMcwLEyBWaNGFhRGkIcEa2sEUyYPRS09KlGuICDah169hsQ4L0pzLFx8wRg03hFMTAygJLWCuAsvY3Tof+PaPM5pMa52q4opFz7Im2+8wRtvvMEbb7zNbecMR7DbATt700oJGHcJ8+bO4Y6/v8KHz11FUGgSN995Fe2Ht7MxrQiT5IdraV1R+KXI5TIEAZxICIxLwM9DTWiwH6JJ/6v6EfsjCjJ8fQJQAU4RlJ7eBPj7ERI9lElTxuDnah5Refri56sCZMh9HDRW53Nw+zb2p6ZRrxXw9TquA3qUqLEXcssYNQ3dOgSZFInERnONQGD0ENoLmxCkUmSy46J4dpOWuqKDrNzYwO1/u422DW+zrtybe2+eSsaH/+ahJ99hV0b5rx5TUxQlePv44aUC0SkiUXriH+BPQEg0UydNIsrPVVGlKk8C/VzSznKFCm1jBWkHd7Fl/xFK67oJ9vUacF+lVyBDE8cxPCqG6LAY4kcmkTIqntaCMhx+CaQkJTH5gmv5y1/nE+7hyge7qZkvnnmJbftNxI0YyojEFFJSUhgaINLQaWDY2Onc9/hDzElyxSzFL5GHrxyPrr0ZW58ahLG5G9E/GXtdKxaJBKlMiuToDh2nla6WCtZ+/T1Bs29mnm8m7311iLnzbyS0dh333/83lq7dT7P+580ZSBVKNJ4qsOrI2rSYL77v5ca/3A57VrB800Eqatsw98UXBgme3j4oVKFcevWNpMQP45zZo5BLvRmaEI7EIRI+aiT6zP3kd9tB1JOZ28H0Ky8jTuXELvNh2IhotD29dHRrMZu1dGl7aW+so7ahY0CdE2RyfAL9ABEnUjy9/fD39yc6IZmpkxI4qvji6ROEnwcgVeCDkZr8dHZs2UVqeh49Sjle3gN9okq1N4GBgQQEBBDgH4DMacTbXMK2Tzfj9PXHPzCcmVdcw7kp4X1GzEbm5uWsOlCERd7K6rfe4sP1WUy84hoCWtvpaqmjOjCeYyIJiDidShKSIik+sp3GLitNmc0o/YMICgokKMAbc4sZmcoH1SC/7k/ltBhXmVRyTC7bhRWHQ0QqkwMyfO09FBY3Mvycc5l5zjSGx/jSU13Ems93o1fHcNXFMwlR9k1UyGRIJBJX918UEUWhbygg9BkU1w+VSCRIZPJjLe9vgdgXYV4UwcPLj6CAAEIi4xg1egTe/bWGnFryD+fhOWssKSO8yFv5DakVOpLmXE54dwF7M8r6FVg7lWlb2ZBWgUKmQioAjl7yZA7ixgzHUnKE3mO9IJHe1jpy84poNflywXUXMSZuCBEhoRhbWgiImcwz773Jlcm+VJZX02n8KUu5Ti+uHgKAiNTDi+CgQAJDIhkzKpnwAb0gO/UF6bSok5iZEkdb3nqWpFYRnTST+RE9bNqbgXbAxLAdh9OJ0+l6GW0Fe2kbOoubLx1F3ZGdpJa55EkARHMnB3dlEXP+9VwaEDRgGZNDdCm0Dl4RpG8oYN2G7XSLalR9XrfGtir0s85leFsWBccUTsFm6qIoN5+Kmh5GzZnHuROSiI1PQNHdjk4VzI2Pv8Cz955Hd201Da26n+nDc9BUcIiP33mG93fUcsmd1zF75gzmzBvO7o+f4/HHn+aRvz3P9rxG7IIETx8VmV9+Q3aDDpDTk7OOb9NbGDU6HoUAco8AIvyNfPddNg6njOETpzImygebQ8RT44G5p4n6xkYaWzow6rtoam6iPDeDtKxKBpeiY/phohSNbyCB/gFExA9nTHIU/auBqG0gNbeOc8ZNINHPzLdffE9Zr5rZd09FW7qf9OLjeab09CEoKIigoCACAwPoabAyNmIocqsDv+BAAoIiSJkymVHxwX02wElpVRr1/nN56q0/Ed7hZOjouUwam4C0YR+b92YTNXcEA5tpJxrvIDr19aTWdCGVilgtVux2BxaLBbugRKP5eb1WfrlxFempLye/tJK6yjzya7sAJy1VuRTV1lORn01tq56ZV1+GmPse42JiGTnhXF5aX0ZPbS47SlvxCPHDrGsnu7CEmvZOqsvKaKyvpbiqDVHugd1Wy5GDOdQ0FJN6sJDS4lJaO9ooqaiktqqUup6f1xM43YjiKcZ99i72L91M+NTzSI6JwtdTg69fMHEjxxDUXcr+nQXHjGvptsV8tLGKGefNxk8l4BTA3FiB0aRgzsyxGKw1ZFUeXWYloPLyY2jCUOLCfTmy+Ss+OdyAobOOgqYe7E5oKytDEj+Ru248n6j/auXGGUAUT+HGsXFw/xrqwicxJTkef18vNL7+hMUlMipIx4p9hzAN6HjLkQASuQJt1S7e/CqNyKHRWLS9eHgLfPfCs3yb6VoGJMjVpEyfzQUzhyH5CabN0pLNm69/gXrUeYyL8sLiFAADRUfqmTl7EvHJUrZuyzt2vlSuJiJhGPHhodB6hH8s2oPB1E1OZRNGmwNHVwM1vQrmP3grE+ODXN0DayPP334D97+768dHX3YtWXsP0C54Y5eriZxzHZOGheHn60dkfDw+Yefw4JNP8PBdNzEm2q+vUjux93bjHZXIiOHDiI+IYmhUCDKnE4fZQGdnB+11TTSVteCQqvDz9kRwOnGKAj5hUSQlJZOclEjKiDj8AoeQPHwk0y6+musun8ypSpHY19idCEdPBUu/rmLyvNkMiQxC4+mNX2AkI8eOR5ufxvbMkyytM9Syo1LLyCmjUQgOnH0vzG7U09zUemwJl0QqRy6XAVLkCjmCIILgj5+ihBfeLeb8ScOO3VIqFehqTOedF5+noEZgXEI4AdF+OHqq2LJxA006J54aCbr2Tn7istcf8AuNq5OWojR6AoYybZiegwVNgJOKrAxkE+YSa60mv7obz6HzWLrsKx6/7UZu/dNj3H/xWIbNuYYHrw/lYGoRCfNu55bzxqDxlNJUa2HenAm0VtYi+qdw918vxGEWkXW34Rw2jWEePVTXV9MbGMfkETIqW/tmL39lRKcDe98Cf9HpwN5vkbKlt4seQ79ZYaknAVEyFJ4++PoF4qtW4+0XgJ+vLz4aNUpBcmyIHzziPP704C1EyYyUmcxIZSIlR47gPWIO4b5BzAhxsGTp+uNSJGovKvas4au1hegFO47AoVxxw5WMG6Kgo74BncyL+jVv8q+P9/54JT7NiKITh71vY4DoxHb0/wHRoqW1p3/eyVAFBIBcg4+vH/6+nnh4++Hv54ufjxcypczViwdwWCjJ2Mq+ri66OmqoLK9Bq++huqCAxvYuLOpYLrhkIt2trklSpB74+aoR7X0yO/1QyGU/kGiR+sZy4z1/5vzhwTR0dqBXKjHVHaZMmsTMeB8SRoyietNiDjS78lgiU6HU5vPWG5vpspnpkvsydsbVzD8nDItRR3W5Dj9LNo898Ap1hr4nkHiSEO0kpyQf48Cv/yEyb8bNmsXopGRCfDxxylT4+PkTEBCAX4A3gkOJb2g0ScnDCfFV91VqAdFppKIwm5LSYvJLG7A4XMGYnBY9ZelbWFem4/Lbpw6QDMKVVcewOxyu8t3/hH44HfZjmxScdgeOY0MAJ9rOLgzm41dKNX5E2pR4+vjgFxiA2sMT34BAfH388fLwQDjhpLCNtI1r8Ui4gHkj/bHbQXF0Ts3QSVl2Wd/aZAFsRupL8ykry6G8qROHRApIkJjt2Ly9CQ483iw4HBAQMY4rrruBB+fPQtvRQ9JlY1Db9DQ1NmK0q0mZO5TmzO1k1f28NeO/0LhKGXHBAp75z3M899zz3H9JMiDjnGsf4j/PPctz//kXl06JAsAvYTJ/feFF/nnbZQSrAYkPl97+KE/cMI8hI6Zw5zXzCFT7Mveex3j22ef4yzUTkSBh/KU3cMdlY4kcNYt//Oc5nnv8fqaMncxf/vUszz33D+YODxj8UGcUbXMFGRnplDT3opa2kJGXTVm7DXStpGdmkZV1hG/eeYlXFm05Pox1mDH3KnBJsztxiiKCaKU5fysvv70BImOP6ST5RQ8hOkQDDgdOg4HGglT2toVz0w2jAUi67gZC877g3ue/pdfixNGSyeJNecROTcEfMzVH9nCwVEeEj5yD675k9a4GzrvhJpKCxF/NuNq0zWRlZpBT2oDd005xRg6ZZW0ECVry012rH7Z+8zHPvvwllcdfEg6TBU2ffr3TKeIUHBia83nzlc9wEIp3n1u+PXcjH6/O4dJ7b2dOnJ3CWhmXXXstc8YOwdLTTnNzG5qIWIKtpaSVNB//3YIAdieiAE67mY6GSg5nldBrFgdUBJnKl4SkIYADp8WCsaWSjbvrOHfBRfgJoIyZwrXjbPz9/r+T0WIAZy/fLvoWc3IysT5KrLU57D2YgTJiCF252/hy0To8Jt7A1ZMC+nrB4BTlhCdfyhPzL+SHXveT4US0GakryiY7K5P09Eyy0rJp7tbjPNqd63+uwovQsHBCQ0IJjwhGIZcgOh1IfcKYdN41PPX001w2YEJOxOawu7TC+uEc7DPBTktFERnpaTT2SpG1lZOXm06bxI6hp4LM7Gyyjuzj3Vde5LPvc465ERwmI1qfvsbM6UR0ijitBop2fMrCzRlEDg8e8C0OUzeH139Lji2e226ejIcEOjvL2bP7IAcPHmTXrvV8u24vrUZcozhNAJHh4YSERDA0JZlghZ7MzUvZo5zOv68P5OXn3yezrBGzo6+xtzgJHTqaKZPGM37SNKZNGseY5BFEhIUzcvRYJk6by0333EhS8M9b4XHK2AJumZfThGihvbkbz+BQ1DIzG//9Oo6r7+Ly8SG0t7Xi4RuKpm/R8zF6injm6aV4JE7iqsvmMCz8+Ixwa+4mPt3QyIKHbyfW5/hEYGfZQb5esZ0Oh+gKhSZIiZt4KTdePHaAIunp4PTLvDjpbm9F8AzCVy2jeONrfOM4j2cuH4uuvRWrhx8Bmr4+lt2M1ibF28P1q2yGbiry09m6+SB9fVUEQSBk+GwWXDcL776Wy954gP+8U8NDL92Mv6Wb0vQd/OfFz0m55yX+ec3x9Z7HEM1sfH8h29oCueqKecwYH3vcx2+s4ZOFXxN15Z1clBx6/BJjM+sWLyG71XQsHJ0mJIXrb76SKK/jJtxuaKeovIvhY4bz02uXnc1fv0P1kBt4cFq465Cxmtfe3sVF991Ksn//XDZTnltL0LCh+HpIsOq1mKVqZPU7eCVHyZPzZw+Ucwd6y3bz7uoS7n3sAYL7bqUr3sQz6wSe/8dF/DwTcxzRoqO520pwaAAySx1PPruGSx++n8lhTtqatfiGheCqBnZqS/KobukCZSTTp45wlV+nnp2rlrK/oBkREAQpUUkXMP/qyXhJRXo6XOXHx0OgpayA0oYORGUAk6aPRo2ede+9TpotmUcfuhZ1Sxpfrejkhr9dRP+1FvauIj5fuo9L7r2fyFP5P36CzIvbuP7qiBi6tEg0GjwUJxoG9eGwoTPqcAgafI8alf8hTr9xHYjV0INZ4nnMgJ4ORJuRLquAv6fHMUPqMBtxKtV9o4rBiFhNWnpMEoL9B06F/DaImA06RIUGD3mfoXba0JttqDzU/JRJbafViN4uwVv9Q8vhtJoxmB14ense68k7bUa0Vim+nqfZBoh2urRGNBovFMf8PccSMfR2Y5Np8PX8OWXfibG3B4tMg9+g651OJxKJBNFpw2IXUCoGuoVEpw2T0YbKU41k8GMN4seM6y90C7j57xHw9Pc5tWEFkMrx8vL/nzSsvwYKT9/Taljpm9gK6GdYAaSqkxlWAAGFh8//iGHFNfT19D5uWAEkcjTqn2ZYASQK9QkNK4BEocKrn2EFkMjVp9+wAggy/H28T2BYcdURH/+faVgBJKh9/H9gWOlbZQQgSOSoBhnWo8fVmh83rD8Ft3F148aNmzOA27i6cePGzRngR43rqTRizhZ+D7/hfw33O3XzR+fH6sApJ7QWLFjAu+++i0LxQ9/F2cLChQsZN24c55577uAkN7+AdevW0dbWxj333DM4yY2bPwQmk4lHHnmEpUuXDk768dUCF154IQEBAcecwGcjhYWF+Pu7QgS6OX3U1dVhNpsZNuz4rhc3bv5I2O12dDodGzZsGJz048b196Ch9frrrzNx4kS3SulpZv369bS0tHDvvfcOTnLj5g+Bw+HgjjvuOLs0tE4ndrsdm21wqIlfio2Wqnq6BwRCEdF2d9DedZq244oOjAbTgIAureVVtGl/WmxJS08Tlc09gw+fNmw2G3b7yTZF/r4x9TRT1do7YCutaO6lqaOTX6AKckJMunaqattPrCkHWM0Gurt6jytR6PXo9cdVEXTaXrq6erEPutxuMWHuFyXNpm2hqqH5Jz6/mfrKOvS/UFXhbMdisZx+DS2LUUevTo9O20NXVxe9uoHBU2xmPT1aPdY+SY7BiE4rut4e9P32HR/lBzvtnHbXuSbLSYN+2Ix6enr19G31/xXQsv6VdzhY29/QOSlcvYqdqTX9jh2np7GczMxMsrKyycnNJT8/l32bvuXz5fvRn+i5HS18t3A5he19jZuznW+ef5PD9YOMq6mBtUtXsWnjer78ZBmFbTr0ej3G7kq+fvd98tsMtNdXUtf62wUW/71RsX8VC5dmDlgjaW/J5u0v93E0dEB/bPpOinMyXbIs2Tnk5eeTdXgXny9eSm7zqSMLtKZv4sXnltN9ojICtGZt46M3PmPPoVTS0tLYvfl71q7fwqHUVA4dOsyRQ5t54/E3SK0f+D31h9ewYlvmsca74fAyXlx5YNAWaZGqA1tYte571q34jGW7CjCYDOgNJvJ3fcUbm3IxGbuoKK3EeBLj/0fmZxhXB1kbPuL686Zz7uU38+ijj3L/7Xfy1NtraDO6SkDR7hXcfMk0Jl3yf1QP0hYRLfX844oZnHft/Xx9sHZAWnvqV9x47zu09Mthu7aWRS/ex8T4cTy1srD/6QAUb3id8aNm8PDrX1F/Qit1ejHrumgoySFT54HG3sDu3Zl02wCkCDoRlfLEmwS9Q2JISkpi5MhhRIUGImjrObStEEEtw36isDuCnc4GG+o+DSKxtYJczTDGDfMfeJ6pnfTlxXj4ODh4qA1BV8lHz/2LFz/fT1C4F988dTsPvbSYvJrWHwQtcfPf4bSbaGusJbesAk2okrz0/eQ0uBotiQy0qPAavKcUkHv6Ej8yiaSRIxkWF4GHwkFxZhpFPaAUTt1VlNlA7VT0yeH8EHtvL4I6nFFxvjR2ifjaOiipMhKoFDFIQpk5exKaVlds5P5Ye7pwSGR923kdlKT2MGH4KNQDThNoLthFiVWBJa+QbouFgq1f8cQTT5Fv8ce37DsuX/Bnvt5bQGdfcHg3x/kZxlXK1PlP8JfzJzDjpn+wePFiPnvtDtI/eZq3trqUWUdfdDevPHAl9vZDrNxZPuDq9pydHMiBy+5+hnvnxh9PcBrIqiinN2MHhyuOxnwCmW88f37xZS4d6cPOtato6N9JtndzYOseOoZfwEvPPUCs98/4Of81Is2FRVjUXZSW1WAx6Ug/sJ3dR9IobaynsqKI1O0r+XzDYYwiiE67KzakEyQyOR4ecjK++pzt1RoefOMZ7rxiKj7OLurb9YiAsauB3IwssjPyaOpppjhjJ4s/+I7te9OQhwi0FuWRuvt7Plm0jIpuJ0ikeHj4oHCKjLt5LkOjknjor7ejxJ95N8wnJfkcbr3vPmbEaNCdYKTg5r9BRDTXU5DWi6KrnCaDhY7Cw2zff4CM3DI6GyvIzDzIN58uo7jDAqKIzWrBYnUgSKQoPDyw1Bzizc9SmTD/Yd74682MCFXT3tyM8eiQzdzBzs3fsfNwFrm5OeRW1NLV3UB2di552Rl8veh9vthbcfyRBAlSmQcRUREY66vIrjITGR1Nd3M1PRaQy5WolEpkMgk4LdSW5JCVk01BVSNNdWXs+G4p6zZuYYfOjmhvJy8rjW+WLWLp7lLAFdLRz0OCJWY6548fyfjL7+SmifEERU5n/vmzmDfvWh644VyktqPCgm6O8jOtkQ2bw4nYFyDbMzaZqDCBqvqOY2dINHHcc904Dny7irajddpUz8FigennpmA3DRze9tQV06WezI2Xh7Bs0fYBIc6cJgfJs29mtDGXb/a6ZI4BGrMPYxk2mVFBMgw/zRX5i1FpVLSaNJwzejilFd5cePG51O7KoEUIYmhUJDFxIxgaAqmtOjwEsOjaKC4oJGvnMh79x39Ira6luaoRk0FP+jdfc7CqhG8+eYsPNmVjAVQ+oYwYlURS4jBC/cIYOmoa1yyYi66sgZghExg1Ioz8tZvwSZlLjLcE0SkilRhpaNYwI0bJwS3fsnJHFoKshx2rVlNtl9FTuJ23X/mYwxVHw5q4+TlIZGro6CRs3nTMlhbizzmPKb5VrCw1kDgiHv/QISQmDcHSVIIeBTiM1FUWU1B0hHcefpxPt2RT39BMe6uewrLDbFubRs72Zbz2/jJqXMMfwMzG1Dx6fKIZMWIkMeGRRMSPZ2ziCIYnjkAm6UEr9xz4XDYd6alZSFR68guO0GpopFfwwtFwiN15zQhSiSuiu0RBeNxIkhITSYgKIzwqjukXXcm0IQKtFoEZMyfhq8/gmwZPLp4c67q5VIKhpZOQMTGILZks//IbirtsdJTuYeW+QryVBtZ9tpBPVu+nT73bTR8/07iCIIgYejpoaq5hy6IlNCvO4S/XTOxLFbHaIOWiq4lrO8Kygy4dp5q8EtTxI4nxU+AY4KNx0lBZS9S0S7j5lstw1B6gTHs8XXTaQJPALTeNYuPn39LqAKytpFaLzBg/FMFxPE7omUZfkcHBA/VIZEZayvex6JX3yWkw46lR46FQoVKp0Wg8USjlCIDKJ5wx48cR4eGBjySMMJUauVyOQq5ErTKy9J2NaKbM56mbZ6ACJFIZCpkMiUTEZnXJdtiNLVjVgciDvFAKBnoaIxiREIpcCiDicCiITfanvMLIuMkjqN9Tz9CUEQQHhTAyLpSWvHJ8J17MvOQ+CRM3Pw9bB99sz3BF8GqsZfWiL3hjSyESD0+8PD2QK1R4qjSoPfsUJGSexI8cw/iRoTRK/ImPDkImlaOQK/DxUJCT8y07W0P582N/IjGwby25ICCRKVAoVSiVSprbq2gL1eChVKJUeqJWq/E4FtAUQMBuMyJ4BOEt9iCNnsTEOD96O7tRBwZh6W7FZKdPwUNALpcjlUkR7TZsNgdIJDQ2tZIQMAKNBPTtXYyOH4K/2vU8osOBIjQan7ZWLOFJxIm1NMr9GT48kqioWALkPZS0ybnumovwPrHn4g/LzzSuAlKJnayNS3j6H4/w0oZeXln2LlMjjvsbRYcdiX8yd98+hp3LN6Kz9JJT2s7Q5BHIxUF+JlMFXy/Zy5HvP2Px1jyaCvez7nDVgFPsNhh75e2MM2eyIaONppJ8nMGxxPirfhB/8kyijErhL08/wqzh4fiEjuaGhxYwMkRCQ3UV9e2tNDfWUFHThH3A9KyN7PJyvCZOwgMbdifIlSDx0RDlHc25k0fRXxY+d8MnfLS1mJBRPqR++DafrDhC4jU3kNDWSUdDJcVRkUT0i5PmdAiEDk3C2bCLnWXdGGp6kHr54u/vj5+fN1KHApXC6+dmtpujSL25/r4/ccfFk/EJDGL25Tdy28yhmFrrKK9uoLejiYrqSjq0Nvpv3mnLzkEVE06cvwy7w4FErsDLJEXqF8bYaTOJ7NMS648gkYGhguw6CTMCmnj/vcVUdZhOsOZcRK4JJiFKQ1VGNcFDh+GFluy9B8it6kUhc2AwWzg2+9aRx+tvL6NGEohGW8DLb71IEeNZMDuQxs4GKrOdDA8K6Xd7JxKPEJKHSlm3MgOduZ0eqwx/f3/8/Xzx8lShRobG8wTO5j84g3PqJyJid8g5945/8+mSlTwwWuC7jVkDTxFE7HZIuuBaotr2sXDRd+hCxxHrp8Q2aElA9aFSIqaMIcpbg1fgMG6+aCh7tx2mv3tVEB1IFTFcfflINn3xHjty20gaOxyF+Ov6EeUqP0LDvLDbbOi1bZQVp1PbbXb1CKRSpFIZcpn0eGEGREM1tRUa5kwMxGDSY7XbsZh06BxeeKhLyWpwxVI/itZQT4NqFHc8cgtjA4JJGDad0bFD8Lak8vnXu0mYnEBAv/s7HSZ0WiOdhm5ya7sQpBIEUcRh6wt87HRpk7n5hUgUhAQF4ylzYrfpqSkqorCsEadUgVwmRSKVIpPJkQ4IqWQjs6yF2KQJSExGjGYLdpuFXp2FYAdU5xf3O7cPqRSps4f96/cQOGsBd955I+M8Snji2ddpMAsD7i9IoK0ik30FvYyYHIlXYBAapwnvwFlMi5XR2qpHKutXzUULFXkGJl5/GzdfcQ4BAaHMmp1CdKSEjWvXs8PhwbDhx+PTgohR24PJ4qT7cDnddpAIAk6HA5vD6XI3CH2ad24G8DONqxyZRMBhtwJy5v/lVrr3fsALazJxLRwSEBwglQhIfJO5epaaZYsymDxrBAICUkFAInWFk3P0lLG1qpsr7ryT+dffwPXXz+dPTzyIfN861uZ1Aq77OAQpIDDlqsuRHFlFmnM4iT5SBIkUEQny0xud7iTYKDqwiS+/Xcf+zEK6nVLiUyYwJMCXwPAowv0DCQ6NJCYyBPmxCuCgYOchFDPPIcSmRWcyY7HZkaoU6Mvbsel6WfnNlr735kIQJEglrgZIBJxOGyAlIUHOp5+kM3HS8cDOgkSK1VTP6k/eILVCwoVjE4ibEofC1Mj6ZZ+R3WjEP9wHa0s1HaZftyH6vaGrz2fVlytYt+MQDfVa/GJGkDI8Eo1fEDFRYXj5hTAkKho/jaxPlBEsrXlUdPsyLdEHg86AxWLFIUqQKHtpkls5vGkVeV398kWQINV2kX04AyF+FrfPGw4omHHTA1w4OQajeeCabdEp4h0+kovmTSMxKgCZ3E5NeSPDrhuDqA/nooumE6CU9VuPKSCV9SmJOZyAiM0MyvhxCNuWUaWIZ1To8Z60RHBSk76BVz76Du9Lx5EQk0RCsJqytO95fWMuDoUaH41IRU3br+aaO1v4GcbVwaFvXuGdnTkcWv4WH3ybA74jePqRq8h+588suPlJPv5gIc98sozXXnqNjFYrs668n4Wv3UO80sz2d55hxZEMtn/5Mp9vPsjnzz3HZ598zPJd+X33t3Jw3XZq2o/w/IOPsHrPft574T98tf5N3vz6EASM4a//fI0/XzIKU+1BHn/qI5oKd/HsMx9QpT3T85UCEoeDgLhkpk0cQ2xgOBqlGongxKjTotVp0Wp76dUZjrkqjC0l5Pf6ceXs8cQMTSIlaQLJkWFExY3jyodu529P3Y/n4S95cckhLEd79HYLDcU55OVlkFNWj0WQARZq67tQ+MkxWI9XMNHpQO0znPkPPMbTf7majqIifMbH4uG0YTFbsFhEgodHI7NVkl3Weuw6N/89IiDVhDBpymTiRsQQGuiJUi7BbjbQ26tFp9PSa9BitjoRBAHRriV1dxnJl1xCUnwcSSmjmDJmJAEBMcycczV//9M/uDXZzGOPvkNFz9HRi4gDCRHDJ3DOpKHHK6hHDPfcfBsj/WXYB4z8BASJgN1iRuXtx763n+fLXZmsWfgsX+7LoK3XiLW/30wAY3cdWWlZpKXn0NxpQa4Ec1MDWqccmdk+cDIZOUmzruJvz7zEpaEdlOr9GRLgidVqwWyxgsKXmOgASo5k0mF1m9f+nHL768mUCGwWEzZRglR0IEoUqJSuIadoM2OwOJHJBJdxEUGhUiE71osTsZlM2CVSBKcDpHIEZ99klESGqs9Rb7NYECUSRLsdQSbDabchCoAgx0N5vIsqOm0YTTbkMgl2Byg9+iYS+nGmlAhqdy/lxR2BfPzCbN5/4ll6R81kgrQbo18UgaZUPusezeK751GVdwh9QAopERps+mb2bF7Htx/uZs6Lb3PDFNfwqzl9NW+t6eCBf9zJEG8ZOVs/IdVjLndPi6HucBZalQc9telkOKM5L6KH95fsIGX2fOZfPotgaz7P3LydW9Y8QYIC7DYbCAKiuY73X1xIyr2vMiNSgUQiQUBAcjqiAP8KSgT/0/QU8eh7y7n1T/8hLO9dHtol459zYzhUZWdqkoa9K3Yw998vMtJSRla9yKQJw5FioWTvDtas/5Ys2dUse+VylzCgvpqFrywm+sr7uHZ8OFgaeeSVL5hz8yNcFndcXUvfUUvm3r18tXkX5/zpLW4f7QtAzdbPWfh1GefdcqGrQTUZsDpEQECuUqOmhZUvFnLXqheYFCKHrkJe+6SIGx+9ihBjC2ml1fgoRA7sLGXkjPHUbFvBHl0Qt91xM+eODOPgJ38jNfI2Hrs4CdFh79uoI1K4/QNeqEzh6/vPQZBIkQiuEdePBIr6XfFjSgTSZ5555pnBCUdZvXo1V1xxBbJB/jqpTI5cJkMml7vWz/UhSGUoFHJkMjlyuesjGfC2BaTyftdKpchkMtdHevw+UpkMqVSKrM+PKZPLkcvkLl9m/7sJUhQKOVKZDLlcdsLo4QcOHCA8PJy4uLjBSb8IY3cdbapIpiSGIJXKSZoyjanTxjFiaDRhQf74+YURG+yDl384YUclrZ12WorSKLaFc+0Nc/HrE3X3ihjJvLnj8e37OyAqkdFRASjkUhzWDmq7jQQNHcslM8YSEZ3I6DAp1U0WRiQPQyOzopN6MGx0LGqJa7G4RCJBKtjpaDURO3ocwWopEkH40RBp/w3FxcUYDAYmTjy6QuSPg8OkpaVdT1LKGHykAn5Ro5g1ZTKTRw8nPDwUH403IdFReHn5EhUe1FcuRSy6BrbvqWbeLfMZfXRGUuHH1DmzSQx3qR04Tb20NLSROGY8If1mOZ12G9r6AmrsQ7nh4ol498knWKwWPCOTmHHOOGKiooiNjychIYGEhHhih8QQGRmCd2gIw5JjXOKPSj/GjU/AV6VEEKx01LVjkfgy4fy5pMRHMWZSMraWGiTBQxka6o1ZZ8InajgxgZ4IEglSqQSpVIqttx3RN5aJ8cFIJK6ydRqL11mBzWZjw4YNXH311YOTePbZZ5/9WT3Xs4kz1XP9tRCdDpxI6df2/E/wh+65/m4QcdidSN2zUT+LH+u5/o9VWTeDEST/e4bVze8FwW1YzyDuauvGjRs3ZwC3cXXjxo2bM8ApjasgCGe1xAvgmhBzL6A/7cj6Jh3duPmjolAoTjlJfMoJreuuu45HHnkE+a+zQv+MsGTJEkaOHMmkSZMGJ7n5BezevZvOzk6uvfbawUlu3PwhsFgsvPfee6xYsWJw0o/LvFxyySUkJSWd1T2Uw4cPExYWxpAhQwYnufkFlJaWYjAYGDdu3OAkN27+ENhsNsrLy1m3bt3gpB83rrfeeusJ9WHOJhYuXMjkyZOZPn364CQ3v4CNGzfS0tLCXXfdNTjJjZs/DCezkT+6FMvpdJ71GlpWqxXToNixbn6I6Pzvtg6bzeazvmy4cfNLMBqNp19D60RYeho4sO8gBeWt2AHRcbSyOqktzWbfviza9DbEvn3O2pZKDuzfx759BziSnsbhA/vZt28fGblVNFeXkHr4CEW1bSeIbi7SUVPKkUOHKG/sHZz4i7Fry1n61TrKOgbqgvXHaTPT3dlBe0cHHf0/nV10d7TT0tQ98LmdvWxbtIScZpd4oaU5g9deWknrwGBY/bBzaPNq1h+oBhx0t7T3fUcnHW2NVNa2YBn8YkQD+Qf3UdvbtzNcNLLp64Wsym4eeJrTQkdDPU1NDVTX1tJjduWHo6uUxUs34Qqn7cRxikLzu8VhJn3Tcjbl1J6g3B3FiaGni/b2o3ly/NPT00VdUyvGQbI9xQc3snJLkesPh5bvvnyHDUWuoEQnwlJ7gI++24HWARZDF01tHXR2dtDZ0U59bTXtuh8WnLq8nSz7PpOjKQ6jlvbWVjo6O2ltrqe5+4cdjNaydHZmNoKxnpXr1tFwEm3Nkl1r+WTpIRyAWddDR//f3tZARkYqtV2uhtZu0dHa3klXVwdNdXU0d+rB2c63L3xCTtvJ69TvkdNiXHV1mXz+wad8v3s/6ft38Mmnn5LbYgFs5K/7gk9WfM+ePZnsWvMZH6w5gIhI+nefsWjdDvZsW85dV9/A8198z549m/n0zU84UljMl8/dw7hLH6WwZ2DsV3t3AY9cexEPL1xJecPpMa42qxG9zqXkKPWKQGEuY3dBO06neMKWSbSb6e5sp729/ZiB7ezqoqullHef+jOPvLqWrn7ijLbmXNYdaUQmd61akCpVKBqq0DlEtG1lbFryFXtyG49FFRLNLRw8lIk8OATQ8f3L77CvuJGOjg4as7/n4XfWMOi1gGAie8cmao6Gg7e2kbuvAg+/gZpbTn0dX73zGpv3bOPtV94gtTCfFe+/xeINe0k9spG33nqXF158g2/3FJ3CwPyOcFrp1RuwO0VEiZIIH5GM9AwsTucJ8x4cx4zrUQPb2dlFV1cnqd+8xW33Ps2hmn7lUtSTvnc3zaJrUliUyLB22eloNWAz95C7ZwOfrzyI7lh+OsjacYheixpvKZTuXc0bSw7R2dFBR3sVy976Dzsrj8sg6drryC8spqupgi+++Yq9qaksW7ONwzs38t33u+noauf7t//DV4cG6tWBllUL32B9egOiOhg/o43OruP3PY6V7PwMurwDkTod6Ht76Oruoburi66ubrq7OmlsbqLb6DLr2ppMlr+/kabODrJWf86q/WWY6rJZtiuPhvoq8tP3s37DTjosJ3q3vy9Og3G1s2Hx56RJz+WVp//BHXdezeih4TjsEmjP4ukPDjP3vqd46ql7uOrC/2/vvOOrqNI//Nye3OSW5Oam904KEAhFehOwIjZcLGvF1XW76+76c11Xd9fVtffewBUVkSZIE+klDUhIIL335Obm9jbz+yMBQqiruIqb5/PJH5kzd2bOzDnvKe8573cCQf5KvD4HUdMW8fZTj/LwY/dzUcYIrrvvIR5++HGefPQWxs2ez2/+cAejJY0sXV004F4iFcX7sIohXHH7fVw6LnZA2jen+sBmPl7xNQVFBeTnHyIm8yIylc0UFBRwoGAnzz32J14foAUm89eTmDqMjGHDGJaeTnp6OslRGsp3lRE79U6e/PM16I9FkHGxc1MxM+++CWX+Gj5asYF9hTXUycr4ZPUu2ju6aBP9iYkyHgsj2FKcj3/2fMb6H+L9JV9hd7gJScwmPT2NjORYVCEGAvoXcPhcNjo72mlvacctSPFZ26koPUxtWSmN7lQSA6yYu9spPVyJyelDihefWkNycirJkVOYMCKdSWPiaGqR88CDDzNa2kabdjhzcpPOR+H4wePrOMLnK1awc18BBfn5NMnimZ4RTnFBAQVF+1n39lM89NRSTMdsgYLQ+GQyMjIYNmwY6enppKXFI+koo0CSwXPP/IWL4vriBACYy3bTHnQxN49z8eorH7O7sAhHRz1Fm9ZwqKGd7jYTIQkxBPb7jH09dZS6wlgwM4HVn35EQZ0TlV8kqWnppA3LINKgRa9VH7u+v1aH1GlHM/wq/v38Q8TrlMQmJWNUCyiCo0mPU9PmzuCS8SfG1jAf2ECeajwP3DEOCSpGpsjZvXc/g0XoBVst1VVtCO0lfPzuYrYdthOqD0QfYsRoDCEoKJQxOTMYEd2XZ6moRO1Rk56STlZKFKEGGUXb95B4+RymDYuhLW8ja7a3o+qPjfBj5jzUHylREWqKPnydlXurEfBn4rS5ZEfIQR1EpFDO6/94k0qTC5VxBNdOH4FMqiY9q1+jx2rH4/PisveNSXSxGUQoRXploVx792zyPl9GeX+D6rPWUlynZMKoZLyW8yMV7W0r4J/P/hvZiLGMzhlNbm4uF02YxKQJ48jNHU1qlD9yQzoT0kIH/7QfL5sXP8kfXl9P8iXXcuuCmcQYtMcigbXsXceKYjth3io+21qKMSWHCbOu4IYJ47AePsy+LZtp9Plhs9TT3CsiOhrYfMDC7BlxbP5gCdU+JQqJjSP78zhUcoj8g+U4XceDwvncDnpMJkymHqx2B+buThpqatlfuJeOzEik5jY+XvIyr20qodclABKkEhFTRwcxc7Kpzt9LjUeJt7CAr/Zs51Cbmosz/Vj74ausOvhjD1FoZ9nLL1PYqGPiuNGMzs1lzPgJTJ44kTG5uYzOSABJAOPGjOR00TVMhzbw5z89xWFpFr9fdAMjUiMIUPZZStFSy+vvb8SYqmPHktV0G2LIHT2R239+DR6JicO7d7OtuJNgSS81rV2ASOme3QRlTUE4vIE1W5vRBkrpbDjEwdJDFO8vpKHLeYKkt1ylI9hZyaefHiLYoGbbus/oUocTGqhCKhFoL68hau5EMg0D1qu7O1jy+T5m3HA1Uf2NtDF3Dolt+bzzaeEJ8tq1+WUMm3s13fuqSbjyZq6eFsLKJS+zs7KNzo4OSrd+ysMvbcTe3/iIXjvNzZXkl5VyoLwZU0MtTbJEcqMkVNSWsfWAk+vuuwrNebA8P3TOQxalTL7lD/x5YRAP3XI5c65/iG21JpRKGQSk8thLjxJS+y5zs2fw59fWYBIVp4xeNRjB7SNu4tXM1lXxxucHAajevR/9qLFE+UsYJGbwjZHpE1l0+20k2iopLCggP38Pq1Z+wtqteygsKmTT2g2UW3TERugAEUevidbWVtra2mhra6OjvZ4960rAL4FQfzftHW0c3rmWZV8VYveCEGhg4thRdBw8TNzltzArM5iullrkITpqtnxOoT2bRQsm01K6i0YH2BrKKDzSxt7lb7PJOZxf3zIZJQrCY+KJjYslPjoMxdFgx4BSE0JyahppGZnERoSSOnIEMy6bhtvsJFsXR2pyFDaHlYsvu5Q4naJvqCuKKFU6Qv3laAKlVBRUknrNTPQ+gYScNLqK99AekMTIqOM9sB8nKi667hYuHa3nQGEh+fn5bF23ihUrN5BfUMi+XRvZdqgGXXwMagkIHjsdra209n/7tvZ2ao7sYVOHjMzkYHra2mmtK+Hzj1ZTZXIgESF2/AQiPfVUBGTx6wUT8Jo6aLCqiOoq4o0tNcy5/WYSHXWUVXWAaCJvdz71Tdt548P93PDLRaTrlKj1EcTHxhKfEEtwgALh6HSF6KGnox1fkBFncRF7dm/Goh5HtljFztJGRMFFo0VBbtKAuLB42bvmE+r9xzE1UU1PTw+d7W20tfUSPzGTpi9e5nf/9yz59SZE0Y06dSJXz8xALu0Lco9EikyjJiohnZTUVJKSotGnxRPQX6fFwCCyLs/myLub0U6+ioxQJQkTr+b6yYE8eP0iXFNv5uKYU8vP/9g4D8YVJCoj1/7xFVYueY6x6jyumXcHyw52ABCUNp2XP1nB64/NY9erv+Pq371B5zkFxBcQVNHcsHAqJRvX0tpZz74mCaOTo/5jz/aZkKiCuGjWbMZnJJKQMYIxY7JorNqDyZjN6FGjufKOP/HCH65C1z9s8zht9Pb2Hvuz9PbilfgRIPXS3dNDr6WXnl4LFrMFtwBRmZOZPVyKSZXCZblBVBwqpaW9G2Kn8vKHzzDFYGPNW0/y9xc+o6Kpi8DU2Tz75O0EiKHc97OFBOFFQIFGH4RGoyFIrzkpZm1bVQGbtudR09xK/pef8fb7n+GfPZvxgTa6bJ3IGlXEBR3fCCKIEqLS0qnL241JrqS+vBCXfxDGYAPhYcF42utwKI3EGo4PP3+cyIjNnsDci3OJjU5izJgxhJobqK4TGZM7mnEzruPxp59kSlyf2qrgc2MZ9O2tDh+qACV2czdmSy+9ph7MDjt2uwe08dxw+UR6GlxMu3gq9vojHKlvo8eq4q7HX+PRhSMp2/0Zjz3yBF/sq0GQBHP7X59lTpA/WQt/xvRUDQ63gCpAizZQg0YXhL9q4JpzAYfVgk0Rzryfz0Yr1TBuQgrdLbXUdZrxCkoSEgxUFJdhEwC8lBdsp9oTw8IrRuBtL+WZV19ld203lt5mVn/0KWmLfs3sdBUtnXYQRXzObooPlNDe3Uzh+g95/a1ltFgFfG43Pp8Pt9uDcMx5DZrQFC65cjQKm4eg+AwumjiD3DiBDWs2o82djF/ZV+yp6MD7XxQV/b749sZVcFFZkE83EhLHzObv763kXzPC2LLmINaOJspqG8EvlJm3PcDaNa8TVbSP/Y0DvIb928dO3EbWFx/S6xWJnnolo2x5/PnRpeiTR2FQKREE8djvzhcHVjzFr55dhRsZMnyY2hppb21g55qNlDb19p8lQRsaTWpqKikpKaSkpJCYnE5YUDDGqASSk5JJTkxh/CULuG3+VPRKELoO8vt/LqZT4Wb/7kLMXj8MkYmkhaoR/MKZOf8igkNH8fjTL3Blhh7B0clHT/2NnfYQ1I4Gqho78eGio7mB1tZWGps78PjEE4aGlXt2s2m/kjse/AvDxXJatCnMmXoRPmUdu3YdoFk9nDj9ie9XEx5JRE8PhduqEOVS3C4XXq8Xt9OB26siPFg34PwfN+76ffz51r9Q0ONBqZTisHTS1NZGxcGdrNtefswDL/fTk5iaSmr/t09OTiY5LowAQzhpycmkJCeTOnISt96+gOwoLeDiy1ceYW29FVdVIYea7egNIcSlJCLzShg5YTpj48OYdv+/ePjWKUjwUbHxfZ5fWUxihJTDFTW4fAK2nnZa2lppbWqkxzZA/FCiIiJazdeb99Hu8CANNND21TrymiO5ZtpwZKJAUHgqup6trDjQDl4Xfvok5l9/JSMykonWifS0WEjPGkZySjx6mQJ9WCqX3nwvV4yKQiJVEBIeTUJCDIHGcDImzuWqy6egsrdTeqCIgwcPUlHVitzmPKZe0F2yk1ceXoFZ2svXH7zGh6s288kzj7CiLpxH/3o/01PMPLBwAU8v24vlR65c8O2Nq1RC8c7lPPv2VjptViztrfgMoQwfEY/K28hrL77N5pIGrBYLbe09RI3JIkbfv9df9GG3WrDZbFgsFlx9Yc7xumx0d3X19QoVsdxwVQr5tWaGj4vF7TRjsdmwWSw43YNd5t8UDy0VNnKyM1AiQfQJuBx2HHYrdrsdh/NMXW0vgiAg+E79LFJNDDfccStXTp3G1GnTSAlV0Vi0mkc+3Unx9sW8+GUxikADsfExaPzk4OyiwaIhPUaPXBdJUkwYUp8Xh92O3W7H7nAd02c6hihFoQxEHxxMkDYQnVaDUqEmRNHLcw+/TNCc8Rw1lRKpFFd3Hcvfeo0PC8rxjwxGrfTDT+KioLiYJpuAQuHDYnf86HsWR7F2tmILzSJdr0AUBDxuJza7A0uvDZvbdcZVEz6fgCgIJ0ijHEdJ9tQbuPP6S7ho+jSmDI9DNFez9K1X2VdcwL+f+YB6px+RCQmEBwUgQaC1tR1DShIqmT9JKQkEKvuUP2x2OzabHXd/HTmG4KA8r43glJFkZ2YTrglG76/FJ3gRBS9en4CIiU0H6kAeQGxSLH79xrnqQAluZTbR/oDPgrVZSmB/wPY+pKj81QRKvNjUTdRWmwmNimfUmFlMnziOnJx0fC1dJOXEcrQ/7UOKQq1FrY5g5o0LuWhENFqNnti0eFSiiIRgxl10IzdfOgat8vx2kH5ofHvjKkoZNfMnLLhIzbKn/sjPf/sigZMWctulSYjKOO6+63oCG7fy4K9+ztOftHP7w3eTdtS4Wut46Zl38Rg17Fn6PF8e6QHgyJcf8OGynWx88z1K2twMv+YeXvrHL4hRuNmy5CW+7pXRsOEDPt5SdeKzfENESy15Pj+k5nqaO60o1AFEJaYRlziMi6+fx+ikE5cznchZCogyiBkTx2HwdVFdW4cQHIXe0440NI4IRQ9Nqlguv3Iayo5qzD6QBqXxwKN/5a6rcpDbOmnt7kKQBRKbnEZiYiKpSdEoFdIT7iqR+LB0tdDc2kJjmwlv/zAtIVRNW4+K8RnHV1WIoohKF05qajLT5l9MtE5B5sRLSAhws7toP/VmkYRxU/Gr38H64rYzGpYfBwJH8sowZoiUVLbik6oIDosjNSGeUZNmc+3MbPp1JE7JmQdQEqJGTiY7yp/a6mraHXKijAFYmmQkJITQ22Bh5My5jA720d5tAxRMvvn3/P23txCvFWmpb8XilqAPiyc5IZGk1FRCtao+yddjSJHioKWhltaWBlp67EhVCqRSCZaOGtYv/4DVG2xclTtIicPXxa7iFmb+dC7+EsDtxO3Uoz2FRHZNSQXD4kcjVq7ina/qCBedfLl6N57eStZW+TMhK+a4YKZEilyuQOKx09nVg1IfT0qsFj9dGPHx8cTpDBg0MYRqLtx4JefKtzeuEjlxmdlkZYzhZ395iQ+WPM2CaRkoJaA0hJORPoxxc2/ihXc+4PknFpFtPK4LhCaRB558jRWrVvLpey8xL7PPiGXOu4f3P/6UT977P0aGK0Edx8SscEDJnDv/yiefr+CzT97kp3NSj1/rW1CRV0jwsEv4yaw4Nv/7E/Yebsbc3TVgbtWCw+k5qScn+DzYrTYkXhHZQBG4AXTV7OezTzfTanHg9rixm2vYtMfJJVnx+Hw+PFY7LlsDa1cup84qYqvZyV/uv58Xlm2ntdOCxWbH6bDjsDvweDzY7Q6c9l7qGluwOo+aPhGfz43L7caHiqBAFabaAj5a2co1c1NY+uq/qTbZ8QkiiAKCKCU+dxYL503BqNERk5CIMSwEjU6H3hBCRHwaE6bOJH2gh/lHirerhG0dEfz81ivxVG9k8eZCuiw9mMwD5lbtjr53NxBRwOW043SLp3Wuio42Nq1dQX5FB06XB7fTTsnuHVjTJhITIOJ0O3E4nRStWsu2vBagh6X/+D8e/OsbHKjroLfXisPhwGG34/F48LjtOF1OeppqaTPb+28iIghe3C4XLpcbj9uJ2+NBEAR0kSlMmnox9z3+MPOyDAOezE3RmjVYo+cwLzsIt9NBd005Zd4gDJpBrYXQS1FlG8NnXs3VF08l3l/A36jC7Gui9lAb466eRrTETGePDRDp6WjkQP5GDvp58VpseD1u7L1mGsoOcKD4AIVl1dj+B+ZbAb6RhtaFxJk1tEQsDWXkl1qZftVsogxG0lJCcbU2sGHZEha/+y4ffrSUpcu+xqVLYviwSI6/CRFTSymL//YAr3zVw/X3LiAl9GQvqDJAR3xyEtERetw2M4fyCvHLvJjZORHIXHZKdlYj8TWzLb+b4ePHEq2Ro45MY8akccSHyGlpbKKtw4REF4jPaqKtrZ0uUwdlew7gH59NvMGPQH0wGTlZpMSGYYyIxs/cQH5FB7nzbmLB9RfjLviQZ1YVM2LMWIxKO4dK6kgcNRGj2o/Q8AjCw0IJDdNQWt7A6JlXMS45grCwUPQa/9P2y38MGlqC08TWrw8QO34GOYkRxMalEOxnZc+OtSz+4D3eW/whS5d+zO42KaNHZKLzO+5M8to62bP6bX726LskTVvANbnxJ70ricwPY2QcyQlRBEhctFYdpLgnmBt+MpUghUBp9SHabG7KC/NwRQ9nTGoYMrmO0TOnk5MSic/WQkNTK05RRoDaQ0dLK53d3TSU5FFhN5CbEYXU60YabGT8+BwiDcFEJkcRnxiJt/EwNbZAxo0djkHf55ADsHU0c7C4iHZpHNdcOQ4/Vzfbl7/Mrfe/wshFv2Te8Ijj+RDd1BTtpF6RyaXjY5BIpTh7ujH5AogP1dLQ2EmgUknl9s0UtKgYlRlM2d5K0ubNY8F1c8mMj8agU9NWmo8paARzxmejsHfR5Qtm1Li4Y1MJFypn09BCPAM33nij6HQ6Bx++oHj88cfFjRs3Dj7cjyD2NDeKXTbP4ARRFAWxu61VbG5uFpvbu0S3b3B6Hx5rm1hS2ih6BycMwufuFasOHxZbe1yDk84jgtjbUS+WV7UMeh6PaOruEb2iKApep9jR2iG6BufH6xSbGurF3pMSTs2yZcvEl19+efDhCwqvvVusbzQNPiyKoii6LJ193765Rey1n6p8iKIoOsWKisNip+1sX98rdjZUiuX1HaIwOOk7wtrWLDa2dJ90P0tLnVjR2HXiQU+vWHGkQrQNPllwio31LaJz8PH/kJ7mRrHNZBNFURQ9TovYY7Gf9FwXIjabTbzpppsGHxbF/q19335a4IJGgi4iimD1qXrmEoJCw4iIiCDCGIziNG9KHhBK5rCos7bCUoWGxLQ0wnTf5VBbgiYkhpTE8EHPI0cfpEMGSGQqQsJCUA7Oj0xFZHQMmpMSfrzI/IOIieqTqB6MMtDQ9+0jwtH4n6p8AKhITk7DoD7b15dhiE4iJSbkpN7td0VAaARR4UEn3S8wPJbkqEE+BLmG5NRk1INPlqiIiglHNfj4f4guIopQfd+yPrkqEF3g6UdEPyb+d2rSEEMMMcR/kSHjOsQQQwzxHTBkXIcYYoghvgPOaFwlEgkq1elCVlwYyOXyC15k8YeIQqG4oLXVhhji26JSqb65QOHcuXMJCQlBKj2jDf5BU1JSgsHQ55wY4vxRX1+Pw+EgLS1tcNIQQ/xP4PP5MJvNrFmzZnDS2TW0Fi5cyPPPP39B916feeYZRo0axbRp0wYnnRMSiQRE8YRFz32tlXjyNtQfIn2PChIJUjgeUelbsnLlSjo6OrjzzjsHJ31PSJBK6Ys78R1wrt/8hPIikfS9/lP9qD/tbJzyt/8JZ3qGUzA4n0d7Zuf6+++KU9XD7xu73c7999/PkiVLBied3bjedNNNvPPOOxf0sPqJJ54gNzeXmTNnDk46BwQ8Hi9SufKESFQetxNBqkQlv4B69IIHhwf8VednKL98+XLa2tq45557Bid9L4iCF4fDi1+A35nnur4hXq8bnyhDpTjDsitRwO12I1P6IZOA6PXg8gio/FUnGdKjkd2ONnYSqRSJKJ7Q+EmksnMKz3kmBI8bjyBBdY7f3e10IsoUx/Ipej14kaKQnyHf/wU8bheiTIlycEi47xGHw8GiRYtYvHjx4KSzCxTyA2ixvi2ieGqplnOit5y/PfcmxR0Dw3LY+PCd5/lwb/OAY3147CZqKsspr6igYsBfdW0NpQV57CuoORaI2NnbTmV5+aDz6qitrqKiooLKykoO5G1lbV4FffFpREwt9VRWVlJ59PyaWmqqKqmoqKSysoSvPv+KWtOAiGO+Dj56+2NKu1zUbnmbF9YWH0/7lnyr9/odYKnbx6uPvk+r+7uIhmDmtYf/wLMr+3WwToe5hlffX8IRc98zdJdu5pW3lnGqsO6Htyzh2Q9XsHPnDnbs2M6mL1az7quv2b6j7//Nq5fy1EvvUW87+zv29NSxp6yWU8UXatyxjOcXf3mSwsCpMfH2S6+wbn97//8+tr/yD15aUTAoxoSHjsZaygeW38oq6urqqKqsoKKikuryQ2z4egvFDX3xQgSPjcbqSiorK4+fX1tDZUUFldVVFO/ewZYtB+nf1AtAb9VOXluyA4e7k4/eeo6dDT8sDa6zlf+zGtdzxVy+mUU3z2fOnEu556G3aLQDuNj62iNcc818br79MV55/p9cO+8y5l55LTfddBM3/uQWHnr6fcpa+8TTyta8wU1XXsK83718snifYOKDBxdx6fwbeXP1WQr5t0bE7bTTVlVCc68DP08nTS3tWKxWLO111De2EKKVUn2kjPr246puUpmSQI0WrUaDRqtFq9URFKRD7Krg1WefZPFXJdj6N6LLFH5oNFo0Gg0ajQatTsOhlS/zr9VHjh0LMoQRZdAe670oVUqQytAEBaHV+LN347t8UetBo9Xi6jYhqtTHouADNOVtp7TZTrDCxt4tR5Ba6/n3q2+xq6KOIwcLydu6hhc+Wkfb0TDyFzBywYPHYUd5jpsgetsbKTtSh+3UwcxOoOvAFooqepG31FBvOYXxFn04bFYsFhOVvb10NTfQ2WPBZuuiuv4we79czotL12IecK/u9jKqpSGECCZ6JXpcTbvZXA9adzsWTRyZiVpaasuPCVG6bR0U5+0jLy+P/MJCtix/j+deX45ZBKG7iuVPrMc0oFPndTuxWCxYra2093bT3NRMe0cTB/LyyMsvZO/GpTz4/Aq6+5/J53Zgrq3E4acmIVxOV48FwV7H6tJOQiJCsFssmEzd2N2+vmhZ6kC0A8uvpIMX/vkUeV1SNFoNgRodEWFh6NV9o16JVI5KLkHiF0iwXofaXsXLy1dhU2jQBcrpabcQEKQ9vr1csLB95RaE4GC8zYc4fKCLruIveefDtdTUV1KUn8e6lR+yZGv5D2qqYCDnVhLPAW3yNB6+ey4+dTz3/u6nRKkBVEy67Zdcf/1cbvzDr7jr3t+y8KJwVGNv46233uLNV/7GMPNmbrn779TYBdLm3sbPr81g63sfsCav8YTrd1XsYvEn64m78j5uvST9hLTzjxdTRws7vj6I1C6jvXwfm7fnUd/UyKH8PEztwYT4Wtm5bRcHG/v0UgFkqgCMYeGEh4cTHhaKIUSHx1zHrt3tLHjgWV74/RVo+4c1Cn8tYRH954aHE6Y2seWAmyuvmNr3f1gYsYnpjEgMo2/2QUKAJpDmok1sK+skNDwKuWDFpwkjPATWffgxtYpgjP3iWvb2w+xpknHbb25DUr2PzpSpTA7zUtNtpavWTFRWDmOmXs59N8wl7KStORcAHhuVB/ZScqSv51RWWUeHqZ0jZRVUVFZQnL+LzV/tPyY/MpDethp2blzF8489yhNPf0rHmTpE9lpeeX8LU/7wd+68TMPidz+lvy9wDNHror2pnrqGFpy97eR/vYHCIzXU1beji0gmQi5DaZHgP2BkLZHK0YVEMSwzkZbdu2gzKRiXFUJdbSd+SjXGsDAMukBU/eVFGWAke8xYxozJZXRODgkBEiwNVhQSkMiU+Fm8iANqs9PSSX1dHY1tZlw9rWzeuo0KawAjxowhd3QOmVEqirqtyPqfqWXPR/xtWR5ZKRl07/qYp5/5hIP7i/FEpJIaYKemdDuP/vI3bK61AzK0wSGEDyi/1tqDdKlHMHdMEuFhYYRGRJM9LIOY/oDrEpkKjcrG1vVf0uzTEmUMwOz2EBIdjqprP4tX5aOJj0IJIHqozt+OZcQ87r00mZ1byhh94zUom6po67RgcWkZOXoMl8xbyMIpqSdNufxQOG/GVSKVoVL54a/XoVErjmVYplDi5+eHn0qJQqHEz8+fQF0Qfn5+qINimT1rPOaaMtrtAlK5Am3ySG5dkMWqj9fSe7RiCFZKShoYPmIkBpUCxXc+16kgLCYar78fem0PW7pjuOX6y0iOiUXj58I3fDLD04Zx9bxZJAZJGKSk3I+dd/78S/7+ZTvzFt3EpOHRZygEIvnL32H5pkK6TT1YrKep7YpAJk7I4OvnnmN3ix0/pRKlzEvTwf0ET7uZWy4+GiVMwO4JYOrcuaird7Liy33IJG7yG9uITApl1wdfkLe/kC0bP+PFJ/5NuWnwMOFCwMGna9ewp1OCXq9Hr9Xgp/JHp9ej1+nxVJew7qOSE/SgAHDb6LKLTF54L68t+RvymnV8XXOqgTuI7i4+X7yK0Km3MEPXQ5cqiyvTLPzj6VcpqDmu8CpRqIlLHUZ8pAGpW05U+khCVR7qyptwO/yQeGUESLTIBg4lJVJEZzv5+w4jKFv5Ir+NrsMH6ZYpqCrKp6bdhkTS54vsw8q6d//N5+t2UHSgiOLadqSawOPbnAdOzopepCo98YmJxIQHowtP4Oo5s0hUOenqMmO1WrHYnCc41Xw+C+aQdGbPmUJ6ZBLxCpH9h7r56aJ7GDcyi+yMWAJcCoK1Jwcnwt3Auy+8QXF9Bz09VhynCYLtFzackfIGnn9+Ob2oUCmUiLYutuZbuelPv2SYvq9jIAge5KEjmD8lgT1rPqOwsgWVo4Ed0ghiu6v4Yu0OCgt28sni93j/37s4TW353jn/Vko8s0dVIXFz8Is3eeyxx3jskT+x6G/ruO6PD5Eb0jcgcHvljLn2J4RXfsnSfX1SMdbqAprUmYxO0B+LVfpd01uxja+3NBPi30NtZT7vL/2U3aUH+Wp5AWGhUpob6ijZv4eteWU4BYHu5lrKyso4fPgwhw8foeLwAUqK7ERotbTXl1NeUcb6d/7F40u+wjJobsxS/TVv5pmYMzINrcRFed5WNuXVDjhDoLulltLSMiotGi6+ZBzu5nJqGjtpLM2nuM7HmOwQitYs5YVXPqPdJSEkKoYQWSuffrYNuTYQu6mFzp5uOnts6BNGMyUnkf01tQy77ipS9Begw1IqxSNT4acPxWg0EhFmQBugJTzCiNFoJMwQjNY/EPngFk0ZQEJCIoF4qC04SNyEq5maeLJWmKe3iY1r1uOLmc7d80ZT89kHvLu0iOw5d3LbCBlP3HUHv33kTco6PeBs5vOl77Ji/Q5a2kWyx4whK9GIxSXQ0ridd3YU0KXqprahnrqmPkMukYKtuwuZ3oDc6SFoWCZJYVr8tUH4OzsoKW9CGOgScZvYVFKDJj2HUSNHMfvGO7jjtpmogMELJETBSVt9HQ0N9bT32mlrqGLXti2sX72MN198n5KGRhqbuok3ajju5pIgEfudbBIvXe3tGLKzUfa2IAKCT0Cp9Ed5kmPLw6al71MdPprZRhVuewsbvthEddsAk+e2UlN5hLKyw8iSxjE9O5CKIxV0t7WQt7MAeXgiMTTw8dPP8tmuSkSZmtj4KMyH1rN2Xw9hWg/Nza2Ybd10uwLIGjeFzKAeNrvDuPGG8WeMt/t9cl6N69FWeXB5ps/mAuATZRgTspkyZQqTxo4iPVrGgQ3rqejqn3L3eZCH5XDbvFTWfPQlHsHOrp1tjMxNRy789+JAKnSxXPeLexgVGYC/IYpRuRcxNlrKIW8cl07JISIiiqzJV3PP9bPQyCT4a/SEhIT0/xkIDjGgCdSg0wcRFBSMITiE1PGzmDMmmYHB3n29VSx5YyeX3vEAc1MNCEoDoyaMpnvbJzzx5kasXgAJ/oF6jMYQDMGRTL3uakbEh6EOUBEQksD4aeOJDNIRlZHD1EkjCZRJAIH8T5dR65/MtLHJyLw+kEoRBR8el6dPaE4mQy6XnSXg8w8XqeDBaurCbDbT1W3G5rDR1WXGbO6hy2zFe9rS4mL9Gw9z+91/ZGerF5X0xAbb1FDK9vwqksZdwjWXZgMQEBREVHifEc65YhGvvvBrRmclEqKWglzH8NETmDFrOqmjI7C1HGHdxnxyb/w/3nr0Z2SERuIuz+cfL79BoanvXqIgEhAaT5wR9le2MTIzA4W1jlXLNuGJSCYh1B+XVzhWl+wNR2jxmtHIvPT0mHF6JYi4sXtOlPwBkMgCSUgIx00AKcPSScoczqXzr+PWG2cRopWRmD6MMZffxpO3z+VoP1QikWCuP0JBUQEFxVXIokczNyeWbW+/x8YyE1KZjACVnsBBUVzqdq9hW2U0f7rvRowyEW10ClNHqFny+LN8sb+57wvIlOiDDYSEGIjKyOWyy6YQFRSIws+fxOG5jM9NQ6sPYeSM6YyIMyAFfM4GPnp1C8nz5pKiUyGIfdJPgseD1ycglUqRy+XIZOfVhJ1XzuuTqfzVeD3eY5PwR5F6vfip+nqmAlLC0nKZOnUq0y+9jsdf+hv+u97hrbXHnVRen5yx869EU7uFj1dtoyswghRjEOLpohJ/B/iHpjFjUiZGrRploJZgeS9lh9tIzo1D2tXMgfVL+M2dT1Nl9/YZP40eo9F4zMAaQowE+KnRBoVgMIRgMBhJyMhhVFrssYhUgrWZ5e+sJuyKBcwbGYfX60MUfEhUIVy/6DqsW17lt89sxDXo+kE6HUGGUPQaNYHBBvT6IAyGEKIS0xgxPAm1XKCzsojixm6iozXIlBp0gX64OtqRB+hIHG4EUeDkankBIZEg8bnobm2ipaWZprYOem1mWpqaaG5uoqXDhPe0a0lVzF70d5YtfRHXl6/y4rrqE1KDYoYxfcYUkqKOR5USRfGENbSGjEnceO1MjGoZyAOICQvm4I7NOMwyvCYncYnBtPZ2oTJmcccv7+L3v7+dWVmphAb2fXypKNBacZCK8k6UEbEoNYFgt5A0LhPboa1sPVCDU5Aca/hsdpHRUUlIzc00NzdRW7CK+x5/lspe4ZQGxt2SzyMvLKHG4sNtaWLDxytZtakUZDJ8XkCuRrQ2UNHpgv786WJTGDVyFCPTkzEoZchVoQxP6GJrSS1IZUil0hMa4ub9W1i9o4Obf3MTaToZbp+Azwv6xIncdn00T997P6tLTCBTEhQc0ld+g4PR6/QYQ4LxDwwk2BDc1/kICSctZyTJUUGIbgsHdxVgV0mJCPZHpg1H6Tbj7bERnBpNWIj/GUfHPxRO/irfAm18DmkyFwXlR5dyQG9jOXarkZSwPuPqr1IglR0P4ebs6sQq0xHSH9DXT6VEqVQgDR3HgkwXj//zYxLHjkeBHKVCjtLvFHM+5x0fbTUlbNywjp0Ha2itbcCt0BM7cib333kjIzITsPd4mHbbPCJO650W+pYrnVKpVsTeXcuXG/OImXUd8yemAO4TC4wmgV/9/mbU9YfoPuU6GgHhtNeXEBCawsyZ4wj0dNPlDCQxIQRXs5mIyAh6zPvIK+8+ZaW8YBBFBEUg8cOGk54+jOHpyUSERJI1PINhwzLJSo7B7wyLziUSKcHJk7jlhjlIu44KUB5LPY1RPj1KTTDDp13Dr2+8hqzMRJyHN/DRrkOYekzUlxSxu8LNT266hUkJWgBERPx1kWTOuITshBhCAr3kV3oYOXIi48dP4borJhMkF44N+Y3ZF/O7B+5mTHYGGRkZxATpGB6aTIJBdsqNE+bONmLSEkky+CPz05EyMpPU2CAEUUK/A5+epkPkN1gH/KqvdyiVOjBZOnECw+b8lBsmJOMxddPWKfY5wAQX9Yf2sLPSy/y7byUlSH6StlfMhAX8Ym4M1RX1Jxw/iiD01Y9TFV+JTEVy7lQuyozA1NiMMjYTvbMHuRBIXIyH7Xm76XL+8LsG57V2STQp/Oa+KeR/8C/++MCDPPi3v/P+uv3ETJ5EiMxH0frFvPLp1+R99iIPPvggD/7hN/z0j++SuvDX3DozkZpty3jmmXd4/+nXOdTuY9Zdt3H17QsZESNl78qXePervax//yWWbz2xp3H+8XDoqy85YFIRFxtOVHoGCVGRBIgdbF+/hR0bN2BOmsnCWcNQn9a5pkQulQ70SAxAxNLrImPixYzPijpWSAYPz0NGzuPxJxYReob136duwSX4a7X4SUGQBjJ87BguyopG5taBn4E77r2P8cl6fKcq2RcUIl5vX8vj8Xpwuz14+uezvV7fKY0Ozg5WrFhFYb0Z0dZIlVnKmCnJg886icHf5iR8TtxeCaLTRFNzC50WN1LBRXdnB421lRw+3MBAMyYiRRcehUYdSLjQzNJX36K6o5VNHzzLB9tqEE/17AOoLG1E6p9MwEAn2QA6GhxIjpSyvqgGmcZAQloy6Rnx9FTt4KE/PMRDDz3Ew08tprSuryN0Yv58eHxufEBwYg7ZURpkSJARjL8f4LNjxcil11xMlPbofP3xXnYfSq584BHuvjxz4METOF3TJ5Ep0Wi14PUSYExkzKRJGAJCCRI9BGRewR9umk3wGerED4XTWYZvTNzY63jsj79gwXXzmX/5PK7/yc1MSAwGpMRkjudPz3zAZ8/9nvnz5zP/2oX836P/5Jk/30i4WkpIymh+/uCTPHbvJURqZKjjp/Pn22bih4SEETP567uf8OZj95CTGjL4tucZP2bccT/3L5hBpFaFr1/ZVa2LID1Fw+ZVa9i25xAdtlOs2kbEYe2ifH8e7R1W5KfcUSIlLD6N+NC+ZSp9CLgc3hOdExIp/gHq0wTidmBq7D7jjiFR9CEgRXD0snndbkYuuhVd2ae8uLKgT13XajvJGXLBIAp4za1UFRdRVFTIgYoWRLWHQwUFFBbmU1heg1OtOLmAK6SYClbyp1/cySOvb2HcVTcxM6mvN3l6RDxOD17vqV+Wz22n2+xCbwghLDyc8LAwDFoVsgAdRmMY2dMv46rpYWxa/hWttqO+BTdVBdvYsW070rBUpo7NIjEhkeTMkYxOC+LA7j009pw4ZBFFD211NRzIW89H2w4SPXlYf/4kSHzCcVPls1LtVHL5outR1ddSubOIDTsLqOsJ5Jq7f8XVc2YyZ84c7rznt9w6LrL/CiJdtYcpKCqkqKQKs1vsu7bHTm1FCZs2baY63IBGAiiCyMhMImBA0Ra9HlyD5gNlfv74K04daNxhMeEyuY4tBTsZAUEUkEglWGv3st+h4aqrcli3+GW2HWnH3NONw33KId0Phu9EQ0sZoCMiKoqo8FACVUffngS11kBEeBhh4RFERUURFRVFWLDmWAVQaYIIjwgnIiIEf4UUkCKTSfqGuXojEeFhhEeEE6Q591gHZ9bQOjutZTtpVmcxOdkIEhkBQZFMnZxFyYr3aImexMjIgQayr9Jbuur54vXnWNcawp0/u5zQs0aqB4QuNq8pJm7aZBIM55a/AP9wMocloTv2jk/E1llHUWkVNqsDVdI4Lrsoi/jEWLw2Jz3lO9leI+fymRcR9A1CzX/vGlqCF7mflomTppKZEE1c6nCmzplMYnQkERGRRMZHEp2eQPRAQUwAqZqcGfO4+SfXM/2iEYQHq89heOnh4N4C3OHDGZVuHJyI19FDU3M7vVYrVosFq82GGz+MuiACpT56e3tpryunoLKDmOQ0jIFKeprrIGIkU7ITCYtOZMSoUYzKySEnZySpCVHoA5T4JFqyhg/jaPGRSGS4eypY8tZipJk3cO+8LBSAs+MwG6pEZs7Jxh9wdFfTYNYzeeJIcibPJMtoZd3Kr6nr6sbldtN8eDeLP1lFaYOSsVNHYAzww9xYg904nPlTcjHo/fHXhpOUEoHU1cPu1a/z0NtbmH//75gUe1Sk/UR664vZWgLTLhvVpyZ7FgRUxEUlkRgTevKKDgB81B7Ip7LHjtPkYcTFV5CTmkREmAaXqYNtW7ejih7L1GF9jcP3wdk0tM4aW+Dtt9++oAO3/POf/yQ3N5dZs2YNTjon3LYeXLJANH4nNjCi24odNQGnm3MVvVjsApqAc1zmJHox99jx12rO2/5pn9uFxWJBVAQQNGh9ouCxYXbICdJ+s2/72Wef0dbWxr333js46UeIiN1mQ6Lwx3/ADrhvg9ftQqJQnRCzYjCCT0B6DvPiPreVLpeMUE3fNxa8TlyiCn/FiRd3O224feC2dtPU3oMyIIzkxFBkgNflRJD2+TVEBq/48dFrcRCoCTx5JNCPz23H4pCg050vCRcRp9WCzelGrQ9hsNJOr9mMSq1FNSiP/03sdjt33333N48t8L+OMkB/kmEFkCgDT29YASTyczes9J2vC9KeN8MKIFOq0BtCTjKsAFJFwDc2rP97SFAHBJ43wwogV57ZsALnZFgBZMrAY4YVQCr3O8mwAij9AggMCCA4LIbs7GzS+g0rgFzlh7J/CH/yL2Voz2BYAWRKNfrzZlgBJPgFajGEnGxYAbQ63fdqWM+FM72vIYYYYoghviFDxnWIIYYY4jvgrMb1TDIGFwo/hjz80Bh6p0P8r3O2OnBGh9bChQt58cUXL2iH1jPPPENOTg7Tp08fnDTEt2DlypW0t7dz1113DU4aYoj/Cex2O7/97W+/mRLBtGnTiIyMRHb6xWg/eIqKijAajURHRw9OGuJbUF1djcPhIDPz9IvEhxjix4zX66Wzs5ONGzcOTjq7cd22bRtTpkwZfPiCorS0FKOxL1LSEOePpqYmHA4Hycln3900xBA/VrZv387kyZMHHz67cR1iiCGGGOI/Z2id6xBDDDHEd8SQcR1iiCGG+A4YMq5DDDHEEN8B/w9AZERM9K9q6wAAAABJRU5ErkJggg==;" vertex="1" parent="1">
          <mxGeometry x="380" y="70.5" width="343" height="149" as="geometry" />
        </mxCell>
        <mxCell id="uYHn2Oexpe3gNXdjyP8U-7" value="" style="rounded=1;whiteSpace=wrap;html=1;strokeWidth=2;fillWeight=4;hachureGap=8;hachureAngle=45;fillColor=#1ba1e2;sketch=1;" vertex="1" parent="1">
          <mxGeometry x="-140" y="270" width="120" height="60" as="geometry" />
        </mxCell>
        <mxCell id="uYHn2Oexpe3gNXdjyP8U-8" value="&lt;font style=&quot;font-size: 18px;&quot;&gt;数据增广&lt;/font&gt;" style="text;html=1;align=center;verticalAlign=middle;whiteSpace=wrap;rounded=0;" vertex="1" parent="1">
          <mxGeometry x="-120" y="285" width="80" height="30" as="geometry" />
        </mxCell>
        <mxCell id="uYHn2Oexpe3gNXdjyP8U-9" value="" style="shape=image;verticalLabelPosition=bottom;labelBackgroundColor=default;verticalAlign=top;aspect=fixed;imageAspect=0;image=data:image/png,iVBORw0KGgoAAAANSUhEUgAAAmwAAADSCAYAAAD3ypwJAAAAAXNSR0IArs4c6QAAAARnQU1BAACxjwv8YQUAAAAJcEhZcwAADsMAAA7DAcdvqGQAAP+lSURBVHhe7J13fFRV+oefe+/0zKSHNEJCQu9FelMRWMAC9oaCYFt10VVRse6q67qr/rArYlcU66pYKIqA9N47BEjvk0yfuff8/pjJCEMgQQFhdx4/VzL3nNvL+d73vO97JCGEIEqUKFGiRIkSJcppixw5I0qUKFGiRIkSJcrpRVSwRYkSJUqUKFGinOZEBVuUKFGiRIkSJcppTlSwRYkSJUqUKFGinOZEBVuUKFGiRIkSJcppjhSNEo0S5eTzxRdfsGDBAlRVRZIkhBB069aNSZMmIcsyDoeD6dOns3v37sOWGzduHP369QNg+/btvPbaa/h8vnB58+bNueeeezAYDADMmjWLhQsXhssBBgwYwDXXXAOAy+XilVdeYe/evYfVuf322+nQoQMAK1as4L333uPQV0NOTg4333wzcXFx+P1+Zs2axdKlSw9ZAwwZMoTLL78cSZKoqanh5ZdfprCwMFxuNpu56667aN68OQCLFy/m448/Pmw7rVu3ZtKkSdhsNlRV5aOPPjpiOyNGjOCiiy4CoLS0lGnTpmG328PlSUlJ/PnPfyY9PR2ABQsW8Pnnn6NpGunp6fz5z38mKSkpXD9KlNOZ+udDkqTD5qmqekitKCcTRVEOO/9/FFHBFiXKKeDaa69l+fLl9OvXDyEEgUCAfv36cccdd4QF2/PPP8/mzZtRFCX8kr711lsZOHAgAFu2bOH//u//cLlcyLKMqqrk5uby6KOPhgXbzJkz+e677xBCIEkSqqoycuRIrrvuOgDcbjfPPPMMW7duRVEUCL3877//fjp37gzAkiVLmD59OoFAILyOdu3aceedd4YF2/vvv8+PP/4YFp9CCEaPHh0WhlVVVfz73/8mPz8fRVHQNI2YmBgeeughsrOzAfj55595++23D9tOly5duP3228OC7Z133mH+/PnhfVVVlUsuuYRLLrkESZIoKiriqaeeorKyMnxO0tPTueeee8jIyABg/vz5vP/++/j9fr788ktmzpzJ2LFjiRLlTKD+WRZCsHPnThYuXMimTZuw2+2nhYj4b0cIQWxsLF27dmXAgAG0b9/+DzvvUcEWJcopYNy4cbRu3ZpHHnkksui0ob5hOBP4rfvatWtX/vnPfzJy5MjIoihRTisOvccrKiqYPn0633zzDcnJyXTu3JmEhITf9AxEOT40TcNut7Nx40ZKS0u58MILueWWW0hOTo6setKJCrYoUU4B48aNIzs7myeeeCKyKMopoN4KuGjRInr27InNZousEiXKaUW9YNu/fz933303breb22+/nYEDB0bv3z8Au93OL7/8wssvv4xer+e5554jLy8vstpJJRp0ECXKKSAQCER9Tv5gZFnm7LPPxmazhbuco0Q5XZEkCbfbzWOPPYbX6+X1119n5MiRUbH2BxEXF8fo0aN56623AHj00Uepq6uLrHZSiQq2KFFOAR07dqRVq1aRs6OcQqIiLcqZxjvvvMOGDRt44YUXwsE6Uf5Y0tLSePnll8nPz+edd96JLD6pRLtEo0Q5BdTV1aEoChaLJbIoyimgvkt03rx59OnTh/j4+MgqUaKcVjgcDoYOHcqkSZO48cYbI4uj/MG89dZbvP/++3z55Zen7H0StbBFiXIKsNlsUbH2ByJJEpIkcdddd7FkyZLI4ihRTjvmzJmD3+9n9OjRkUV/CPW2nYqKCnbu3Bn+raoq+fn5uFyuiCXA6/Wyd+9eAoFAZNERBAIBampqImcfhs/nO21cS4YPH47f7z+l75OoYIsS5RQQ9WH745EkCa/Xe8r9TqJE+S0sXbqUnJyccD7BPxqPx8O6detYvXo1b775Jrt27WL69OnU1dXx+OOPs3LlyshFqKqq4tlnn6W2tpYVK1bwzTffsH//fvLz89m9ezePPfYYq1evhtDz+cknn/DGG2+wefNmfvzxRwoKCti3bx9bt25l3759vPTSS8yZMydyM38I6enp5OXlsWjRosiik0ZUsEWJcgp4+eWX+eyzzyJnRznF1FvaokQ53amsrMRkMp0296skScyZM4fNmzfjdrv5+uuvsVgs7N27F5vNRvfu3SH0cXooJpMJg8HAxo0b+e677yguLqakpISCggLmz58ftqopikL37t3ZvHkz27ZtY+bMmRQWFvLFF1/w+OOPU1xczFlnnUWrVq1OC39URVEwm80UFRVFFp00ooItSpRTwLJly1i3bl3k7CinmEAggKZpkbOjRDntkELJck8HVFWlsLCQNm3asG/fPjZv3kzr1q0JBAIsXryYpKQkdu/ezdtvv82XX36Jqqps376dbdu2UVFRwRdffMG+ffuIj48nJSWF+Ph4kpKSMJvNJCUlIYRgxYoV6HQ6pkyZwrp168jJycHj8eD1ehk6dCiBQICioiKysrJOGxFLKPr8VHHqthQlyv8wer0enU4XOTvKKUQIQe/evU957qQoUX4rp4tgA4iJiUFRFLZt24bX62Xr1q2kp6fjcrkYPHgwH3zwAdu2baNbt24QGoouJiYGi8VC//79adasGTqdDlmW+fbbbykrK2Po0KEkJSUhSRIej4eZM2eyY8cOYmNjkSSJL7/8kqysLPr06UNpaSnffPPN/7RLQ1SwRYkS5b+e+ijRF198kV69ekUWR4kS5RgoioJOp6O0tJTLLruMnj17kpCQwLJly5AkiTZt2mCz2RgwYACtW7dGURSys7Np1aoVdrudXbt24XK5CAQCuFwuNm7ciNPppEOHDnz//fcEAgH69u3LhAkTWLVqFbm5uWiahtFoxOl0Ul5eTmVlJTExMej1+sjd+58hKtiiRDkF+P3+I3w7opxaZFkmNTUVTjPLRZQopzt1dXVs2rSJESNGkJSUxODBg7npppu4/PLLadmyJRUVFTgcDlq3bg2h4Zy+//577rjjDmpqaujUqRMJCQmkpaURCATCozhkZWXRsmVLhBAYjUbsdnu4q7Ve3LVv356uXbvSsWNHZFn+n3ZpiAq2M5h6ERCdTvx0KCeicR8zZgznnHNO5OwopxAhBIHQQPNRokRpOgaDAZvNxq5du/jqq6+QZZl//OMfFBYW0qlTJ7799ltcLhdt27aFUETp6tWrGTVqFN27dycuLo7du3eTk5NDamoqCQkJJCYmIssy55xzDnq9ngMHDvDiiy+Sm5uL3+/HYDDQrFkziouLue2221i0aBH9+vXDarVG7t7/DNHEuWcYQgjWrl3LvHnzqK6ujjY+JwEhBHFxcZx33nn06tUreo7/CxBCoGkaTz/9NFdffTU5OTmRVaJEOa2YMGECbrebjz/+OLLolKOqKiUlJeG0HCNHjuTZZ5/lqaeeIicnh4svvpjBgwczdepUOGQc1PLycp599lluueUW3n33XQ4ePEh6ejrdu3dHlmVeeuklnnvuObp06UJ+fj4PPvgg//jHP/juu+9o3rw5W7ZsYfjw4bz33nsMGjSIxMREevXqddqItltuuQW32827774bWXRSiFrYzjC2bdvGpEmT2Lp1K/Hx8Vit1uh0gqe4uDh27tzJlClT2LRpU+QliHIGIkkSsiwzffp0VqxYEVkcJUqUY6AoCpmZmQwbNozMzEwee+wxOnbsSIcOHdi2bRuxsbEsWbIknES2/iNXCBEOVMjNzUWv1xMfH8/FF1/MsGHDSEpKIiYmBkLJxVNSUqitraW8vJzS0lICgQBZWVlomkZ6ejpLlixhxowZh+3b/xJRC9sZxscff8yTTz7JTz/9REpKSmTxfzH1t+mpsXZVVVVx3XXXceGFF3LTTTdFFh83BQUFYRN/lD+OVq1a8eSTT3LFFVdEFkWJclpxOlnYANxuNzt27OCnn34iKSmJ9evXc95557Fv3z6GDx/Od999x2uvvcaNN97IbbfdRmFhIf/5z39Yt24dw4cP59xzz+Xf//43DoeDa6+9lrq6Ol566SVee+01cnNzqaio4N5776VTp04IIcjNzaVDhw788ssvzJgxg88++wyHw8HixYtPm6G6oha2KMdE0zSsVitGozGy6H+AUyPWCIWw22y2E+bgev/99/P8889Hzv4d/O99Z9VHev4eTsQ6okT5X8Pv97Njxw4OHjzIlVdeyVVXXcUll1wCwI033kibNm248847mT59OiNHjsRkMpGdnY3RaKRnz5706tWL5s2b065dOy655BLOOecchg0bxqWXXkpiYiIAiYmJ3H333XTq1InRo0dz/vnn065dO5o3b86ll15KRkYG7dq1O23E2h9B1MJ2hjFz5kxeeOEF5syZQ1xcXGTxfzfiV82mqirLVyxj146dxMbZ6Nd/AOlpGZFLHMmht7skHbbOQ3G73UyYMIGzzz6bW265JbL4uBk3bhzZ2dk88cQTkUW/GZfbzcqVK1m/bh1CNHgYZzSaECQkJNCzZzc6duyEouiOer2aQv1X+7///W8uvfTSyOIoUU4rTicLm6Zp+P3+sKHA7/ejqiomkymy6hHU+7MJIfD7/eh0unCXaaR/cH3dQ38LIU5pctrj4VRb2KKC7Qzjf1qwAcXFRdjttVRUFLBs6Q/4/C78fg2brTk33vgXYmNjIxc5DCFAkkK3vAAhCaQGDM2nq2AL7j/s2LGDf/7zn+Tn7yY+3oKiiAZ0zJn9aAsknE4vpaXVXHTRJdx9z91YY6xhC1nky74xNE3j8ccf5/rrr48GHUQ57TmVgi1SKJ3JnMpjiQq2KMfkf02w1T98RUWFzJ37PatWLaGsvJKEeBPDhvZi0JC27N51kK+/XsnNNz9CXqvGstgLBFJY3BzNYHOiBdu1115LTk7O7xZsAJs3b+K2P99Gu/YZ3HHHZbRrl4MsaYAWOpr/kkdakqit9fDTT2t45pn3yM3twosvPk9CQvxvfin/1uWiRDnVnErBdiiBQABVVc+450SW5VM+mkxUsEU5Jn+cYIuUNpG/m8BhizR9+erqap555u/ojS7S01KoLLcTUP2UFFdz/ujBNEszs3jxekaPuo02oTxAR0MgkFSBa+8uHIUlWDIzsLZudcS+nGjBNn78eHJycnjssccii46L/Px8Ro8ezaiRffj74zdiNkuA75Aa9ef1WJK0XtRFXs9IIusca379Oo82L7K8oXUcuu8iNMmAkcJCJ1dffR8dO/bm2Wf/hdlsPso6okT57+BUCTYhBFu3bmXWrFmsX7+ewBk43m69uNTpdHTu3Jlrr72WDh06RFY74UQFW5Rj8kcKNgFIQgq1kYc2xPU1DpkT6m6s51ebVhARsgYF5x670V25ciU7d87DbFbp3Lk1JcVVbNyYz/IVG5l4w2UYTSq/LNnAmIvupE2bNpGLH44Q2Bf9TO3WbYgYG9iriGvfmbjzzg13N3ISBNumTZswm820atUqsqhxQrqkzlHLVVdei0QNH3/8T2KsGqCGxU3AD6Vl5cTExoAmIRO0Jnn8fgIBFZPZjKaquHyCGqeHBKsRISSMepmAGkCvKBgUCUmAkCQkSeB2e9Dp9Oj1urD7369dkiBJCkJT0YREndeHkCRiDDpUVaXOIzAZJZAkAn4VvQIGWcKgV5CQgneUkIP3iQhuTwJ8AQ0ZsNrMGAz60PFZ2LmriCuveJA7/nI3E8ZPOOQEHfv+qUfTNA4ePEhmZiaKopxxFoQo/1ucTMFWb2neu3cv//rXv/j5559p3749bdq0oW3btk3yTTvd8Hq97Nixg127drFjxw6GDBnCXXfd9dveuU0kKtiiHJM/TLCJ4P9EyPgRFlqHtHnhOykk1A4VacUlxSxdvAC/10t2Xjv69O6DJMthgXQs5s79nuSUciShcuBACV27tWb2N2uYN28J/zftLxQXlfLdD6uYMP5BWrUKDo1yNNQaO6WzZ6Pk5mG0xSB5vXi378R69tlYmmeEbTYnWrCdCF577XXeeutVPv/8KbKyYkOWNQXQEASFk9PtQZZAJyt4/Cpuv4ZRL8gvc2A0mTHrBQerXNT5FKx6FaMkQJbxqiqZCVYSrUZMihyUgEJFUkEKdTUIBAKNgCpQ0NAkhVqXD5Neptjuwe4VCC1AIBAUZ0LWYdTpKCyrwmjUYTYZaZcaS6zZgCegoldkZBRkNCSZsPAKqH4kIaMYdOj1OoK3nACh5+WXv2HmzJ/54MMPyG15fC9iTdO48MILefjhh+nTp09kcZQopxUnU7ABbN68mfvuu4/Y2FgmT55M9+7d/yuyD/h8PtavX8+0adOorKzk6aefDg9If6I51YLtSG/rKFGOhiQhIQUtE9LhYi1YLkJO/EGx5vP72bsvn3XrN/L+Wy/jr1tDhm0fixd8yDezvw2KtSZ9L0ioKtTW1ZKWFoffrwW7NiWZZUs3ExNjJTU1EVVt3IyvedwYUpIwJ8UTCATQZ2Yi5bTAUVwAgBS2E55e7D+Qzwfvv8+NN15AVlZiSKzVP74CCS1o1ap14nB52FXpoMytsbnITolDRZJAZ9Dh1wTdc1IZ0i6Fbi1T6dEmE2uMhby0JOJsJvZXuthQ6KTCFWDZ3nJ2VrsodQcocbipdHqodEvUegL4JT2FdRo/7aykFgMGWzxZzWLJy0wmMzGG3PQEurZIok1WAl3yUunfPpvM5ATKvRIuFDYU2CmsDeDTmSh2BdhZVsuBKifFDi9eARUuL/ZaR/jDQAIkKcD48X8itZmZt2bUvyCbfr1kWWbz5s3s27cvsihKlP8pysvLeeCBB2jdujWvv/46ffv2xWg0HjXlzYIFCygpKYmcfQRCCCoqKti0aRN+vz+y+LD1b9iwIZzEuq6uDo/Hw+eff055efkhSwSprq5m3rx5uN1unE7nEft54MCB8JCCBoOB3r17M2PGDLp168bDDz9MUVHRYfXPVKKCLUrTkGDjunVMf3wKbz9+N8sWLkDTIh9uCVlICAHzf5zHg/fdxe23TOSJJx6irHgbo87rxuDzenLdlf3YtHkptXXOX/sgj4EkSSAEZaWVmM1m7HYHQoCsyHTu3IqqajsVFTVNC/0WAklW0AIqvjoHmjeAhIZ8hPo8scyZM4dly5ZFzm4SQgi+/fYHTCY/F13UH/CHrVHBLtGgzFQUHQkJsewr91LhCuBUNTq0SKS81k1OagIt4s2k2szEmHRYDTJxJhm9rNE61UqqzYBFLxFv0eEL+DhYUYMtNp46t8q24lp2VvrZbZdYtauIPRUu9lR5KKqspX3zZJwuDy1idWTYDDSzKOSmJZBis2DSy8ToBNnJsdiMMunxRnw+P9uLa7CY9ZRU1bB4w052ldaydX8lv2wv5udt5awtdPLTpoNUOQ49TgCB1Wpg/ITz+ezzWWzdtjWivHEOTSkQJcr/IkII3n//fbxeL1OnTj0ist7r9VJcXHzY9MILL7Bs2TKKi4spKiritddeY+3ateH1ud3u8Di9mqYxY8aMwz6MHA5HuLyiooLvvvuODRs2sHPnTj788ENmzZrFjh07+PTTTxsUesXFxXzyySdIksQHH3zA3/72N6ZPn87rr7/Oiy++yDXXXBPen3osFgtTpkxBlmXeeeedI0TemcjJ7RKt718K5c3atn07y5cvZ/fuPSGnxpO36d+KXq+nXbt29Ovbj9yWOciKEiwQgKT94Rr3j+oS3bRpM5/+6wEGdknGYDawfH0Rg8ffS/+Bg4MVhEATAWRZz6LFv/Dz3De54cpB2Gt9vPPpL8TF2ejVrhn9B3TBnJLA/z0/hxsm3kdSUkJoC0dvROfOnUNKszKsFiPz56/gksuHMmvmQn78aSWPPjae6qpKFi3czDXXBr8Yj0WgpJjqdRsQzVIwx1qR/QJ3ZRmYzCT36nXSukSvuuoqcnJyeOqppyKLGqW8ooKrrryaMRd15fY7LgG8oYjQeoL3pMcboLCggOS0FphN4FdVLHod1XUuJFUQH29FaBoSoGqhaElZBH3WCF5DIUloSDhdbmItMTicdej0ZvQmAx5fAM3vw6XK+HxubBYjcRYTnoCEQfIjyRKKCEaX+QMCr89PjFmPJuuRhECofry+AHqTBUVWCQgNoerQKTr8CDRVRVF0+LxuJEnCbNCjk+vfEvWxvRJen8LZQ25h5KgreeThhw45D0en3mcnNzeXJ598kquuuiqySpQopxUnq0u0urqagQMH8uCDD3L11VcfETldW1vLxo0b8Xg8yLKM3W7npZdeYvLkydhsNjweDxs3bqRv374MGTIEgIULF5Kfn0/Hjh0JBALs3LmTlJQUkpOTqa6u5t1332XMmDFceumlHDhwgJdffpnExEQURcHr9XLOOeewd+9eKisrufPOOykrK8NsNmOz2XC73WzatIlXX32VKVOm8MYbbzBq1CjOO+88AGpqarj88st55ZVXGvRXmzVrFs899xyzZ88+4aMD/fd0iR4i1tatX8+f/3wrN15zDd+/9x6la9ZQvm4tZevWnTZTeWgqXLGSL6a/wXVXXM5df/0r27ZvDx2OQJzE03U6I4Rg4/qVdOqZTtrgPmSdO4y+53Vn85a1+ENmaNXrwLN5HmLDfyhf9AE3XHIWzbOTad8umYvO78P+g9XssZsp1FrgVC0ghTu6jinWCJUG/IKtW3cy9LyzOLCvJOi0LgR79xTSvHkaSUlxiCZFNknIej2WuHhcpaUQGxt6DIKy4GR1iep0OpR68X+cLF+2AqeznOEjegNqOGDj1yl4d+r1Cunp6dgsEgYl6PwvSZBgsxAXZ0aSQFYUJEVBp5dRdDKKrCApMoqioOgUdIqMQZFJsMWgKBKxMVYsZj0GSSXWKBFvNZERZyAnJZ6kGBM6Cax6DYMio5d1yIoBSTZiMOiIsVqQFSM6SUKRZXR6AxazBYMioUg6jLIBo05CJ6uYZUGMXsYkq8Sa9diMRnShxy14lPX3iIbRYOCGG8Yy88MPqK6qOvRUHRMRSsRbn1k9SpQ/ChFKCHsy7SVHY9OmTWiaxuDBwY/tSItzbGwsAwcOpGXLlhQUFJCcnEzfvn3p0qULdrudjRs3cu+994bFms/n46uvviImJgZVVXG5XJx77rmsWLECs9mMqqq0bt2anj174vV6KSoqon379qxcuZL8/Hxat27Nxo0b2b17N1lZWfznP//hlVdeYfHixWiaxtatW9m5cyfl5eUsWrQIu93OgQMH2Lp1K8uXL2fz5s0YDAYMBsNhx1HPgAEDggajbdsii844TqqFTQCzPpnFs0/9k56ZmYwbdT6dW+YETbC/tjWnERKogupaO2t27WDGV/+hUpL5+5P/oF+/vpGV/xB+j4Wt/ktKhPwMjEbjEebwhggEVGZ++CYtc02s26NQ59YY2juWbau3cNnlE7DGp+Eq3gGrZ2GsPMDsvU6G3HwpPr+CxWqguLqG+x/4gAvGjmDwsGFYzT7ee/1jJky8j6QmNJ5z584hMbGUivJSbLZ4EhKs/PjjBn76eQV/+9sEykorWfjzJq4f/0CjQQf+klLsG9chZ7YAVcWcEIczfz+YjCT36h3+0jjRFrZx48aRk5PD448/Hll0TFRV5e6//pW6uj28+daDId+1esH2K0IEp1qHE01IqKqGFJJ2mhb0PZRlEbRUSTpUTUWTZCQBkqSBFOzKlpBQJIFWHzEry6AJZEkQUP3Ikg5kkIWEqgXwoaAnGLgAGjpJIEl6VE1DaAGQZDQRjAmVZRlNE0iSQJZkgj3qwejQ4PplkASyrIAWIMZiwGIyRrwkBKCjrKyOoUPvZMqUhxk3btwh5UdH0zR++OEHBg8ejNVqjSyOEuWEUN+kRgqhSPx+P5988gnx8fEMHDjwiPf5ybKwPfnkk6xYsYLPPvvsqCKHkI/Zv/71L0aPHo1er0cIwc8//4zb7eb1118PL2u325k5cyYXX3wxTqeTadOmcd111/Hyyy/z6KOPEhcXh9lsDkeeqqrKrFmzWLBgAZmZmdhsNrp27cqyZcu4/PLLuffee5k4cSJDhgwhLi4OSZLYtWsXzz33HA899BDTpk1jwIABtG3blrfffpsLL7yQ6upqzjnnnAaf67q6Oq655hpGjRp1Qt7lh/LfY2ED5vzwA48//DDXDzmbl+6+lwFdOxEbY0b4vQifD7w+8J0mk9cf3CfVR4LNzHln9WT6ffczMDuHe+6czJatWyMP74xDkiSqqqp47bXXmDVrFq+++irff/89qqpGVj0MWZaQZIXl23QYzRZapNvYus5NO9mNai9BSBL6hAycbc6HUfexRk2h1G/DZcmi1JeGy6sgKYJanwenvxyT0YFGMJVDU1F0EnFxsezdV4LJEnxRSJKMo85PfJwVm83cgE/dkUgimGBW83lQVD+ayxNZ5aSgadpvym1UVVXJ/B/nctFFZx9itm7gvEkyEho+X4A9pQ6+3VDMvO0V7Cp3saOsmvlbC1m1r5IFO8v4dH0xX67ay6fLdjF3wz62lQcorPayeudBNpQ4WXXAzp4yJ2sL3Dzz7XY+W1/Owvw6Fu6o4LMVB1i1r4bV+8pYkV/F+gN29lX5WL6/lu1lLr5ZdYBvNhSwfFc5B+0ae8qdbCtzsLHIzgG7j1q3kyq3l592V7DsYA3ztpbw6epSZi3fzwEn/Lijjq82VLD6oJ3iqroGXlESEKBZs2Z0757LL78sxev1RtRpGFmWGTVqVIMv9ShRThSSFArMagS9Xs9HH33ElVdeyejRo/nXv/7FunXrmiz4fitut7tJ/r6SJIW7Jev/jYmJwWq1otfrw/ViY2O59dZb2bVrF4sXL2bixIl4PB6sVisZGRkkJCQcJtYWLVqEzWZj6NCh9OzZk27durF3716ysrJIT0/HbDbTuXNn4uPjw+dg8+bNbNu2jc2bN1MVsqq73W68Xi96vZ7y8nI+++yzBi2W9fPqgxLOZBq/ar+R0vJypj3zLFcPOptbLx6DThEIvx+0oDhoqK0OZvoSIMmgKBHtUqjskF8QsgDI9X5mwTX8WuPQXyGTgayErAERSCETBSA0DaEGiI2xcN9142ifmMCdkyfjcDgilzo9CB1m+PwdBU3TmD9/PlarlbZt29K/f3927drF5s2bI6segRASxqptdM+ppVPzShLVPWxX44lJ74CEwCub+a6wJY8vaE6p8QIKqpPRm/RIeolASA9aTB5iY+0IPEDQukN4v4+OJEl4PQEKCg8wdGhXaqrtCAGaJrDXuDAajRiMTctwLSQJRdZhTUnFU1WJPimpYQF0gmnevDlpaWmRsxtl+fKV6PTQvkOLQ7pDG0JDCDAZ9HRplUbbdDOdWqbSOSeDvq2bc0HvPPq0SeOs1ulkJ5no1zmPc3vkMap3W/q2TqJji0TO7dGanrlJtM9Jol3LFDq3TMTvqcUSY8bh8tGxQweat8wiI85E5zYZ9G2fw5+6tqBTXgpdc5LonJ1CZoqFtulxJFn1dGiZSs+8ZpzVKp1ebZrTPjOe3PQUclJTyIw30jkjgXO75tCjQxbtcjPo1CKRzjlxdM2Op3vLVDKT40JBFREICfBx002XMW/e3P+aCLAoZz61tbW89tprTJ48mbvuuuuo01//+lcmT57Mli1bcDgcLFmyhPvuu49zzz2XsWPH8sUXXzRZWB0vzZs3x+l0NujcfyhCCGJiYsjKygpPSUlJkdXCoqpr164sXbo0HICgqmrYCrdv3z5qampwOBwIIejWrRurV68mJSWFrKwsRo0ahc1mY82aNej1erKzswEoKyvjlltu4e2336Z9+/b06dMHv9+Ppmm4XC78fj9Op5PevXvTt2/fBgWbpml4vd4jLJhnIif+bggx88MP0Tkd3DLmIhRkUOudhuVg98yR5xUkCb+msS3/APNXr6TG4QRJCWsvgRScgv04uAJ+Vm3bypLNm/D4AyBLCCkoLupXL4I6DiSJylo7C9evYe2OHcH1RlD/QSMJGUlICFXDpOh4/Oabqdi7j1mzZkHoRj5dCHovCTRxqF/TryWHCji3243P5yMxMZEWLVrgcDjIzMykrKwsXKchBIAaoFNLlblrl/PxTz8Sk+ygUrVQVOlGILG/1ElZlcDjk8G1i9w0OwfLS9CkOqxmQMjo9XoUWUaIYBddvWj/1T+pYYQQ6A060lLT2LRxHxazCRDo9TKtW6dTWFhKWVkTo0QBLaDhqSrD0iIbd/mxj/1E8fjjj3PrrbdGzm6AX6+XAD75dBZtWmXQunUuEAh5ERx5vqRQ16cQIAe85CQYaWFTiDVKGPUKsSY9STYzuUk2BrVKpF26lXZpNpKsekyyhlERWAw6kkwyOXFGEowyGVaZey7qxtm5Ftom62lu8dK7hZUuOclkWE2kWCR0soZFFrSINxNv0jG4cw59W6dxVqtmmCQfBp2MTS+IN4JFL6EoCiadROc0K9kJBtJtBjo3k+mXG4uZAFlxEt1axJBq1aGT5QbEdCilDBrpGbEkJlrZuXNnRJ0jEUKgqiqffvopNTU1kcVRopwQDh48yFNPPYXL5UIIEbasH22KRAhBWVkZRUVFVFVVNfmddjyMGDGCrVu3NurTJcsyXq+XmpoaampqsNvt4ZQagUCA6upqAPbu3ctPP/3E5s2bGT58OHV1dWEr2qpVq1iwYAHTpk1jwYIFKIqCwWDg888/p66ujvLyciZPnkxxcTE5OTm89tpr9OrVK+zva7VaGTlyJFOnTsVoNOJ2u2nWrFlYFMbFxeF2u9mwYQMtW7Zs8Hzt27ePgoIC+vY9Pdyafg9HHt0JwF5by38+/ZTLzjmHpMQ4hKb+qoaOgSSCPi47C/bz7MyPKaupCeYFlYJqShKhkDERbLKEprFq5y5e/uwz3D4vSEqwy0sKZVAPHV7Igwenx8O738/hP4sXE/ZoboiwkAA0lfTUVMaNHMnHH83E5XSdNFP1b0JISJKGJMns27uPH3/6kbXr1xLQ1JBj/q9VVVVFp9ORm5tLeXk5sbGxZGZmHrq2BpEAFB0r7G669WjPuWcPYrUvBZecgdMXAASt0q0M7+vhiuHlJNi24wmUkZ3ux2Suwh3wA4Ly4hr2bilGeLzIh/lhNUEACw2dXsHtcWEym5BkCVVVKS2tIS+vOckpcQ2+ACMRCIQsoUk6vA4HhpiYyConBYPB0MRx7n69tyorqjiwv5CeZ7ULWZqOcc8iIckSmqYiyQoJCYlYzEaECOD1eHE4nAihomkqMWYTitCQhIoQocZDBO8PTdMQmoamqQhNw2aQSbQYaJOZSIwiSDTJwbMYbnRUJE0DVUWoavC5FAJFkfF6vEc0UB6PB6Gp2KxWJFlGU1UkIZBCUcYmvYLf50NVtdBLO/LeqP8IEeRkp9G+fRY//rggok7DyLLM1KlT+eWXXyKLokQ5IWiaRkxMDM8//zzTpk3j+eefb3CaNm0aL774Iu3atcNgMNCjRw/uvfdePvnkE7755htuv/12MjMzT0o3XmZmJv379+eTTz6JLELTNFasWMHChQvZtm0ber2ekpISKioqKCwsRJIkjEYjX375Jc888wy1tbXhdqRZs2b06tWLxMREtmzZQlxcHFVVVWRmZnLfffcxaNAgYmJiGDBgAEajkc6dO1NUVESPHj3o2bMnGRkZrF27lubNm4f3x2KxcNFFF2Gz2RBCsG/fPjIzM1m+fDkej4dJkyZRWVnJBx98cNhxHMrnn39Op06dDlvvmcqxWoDfzMZNG6kqLuacHj2gCY1oPQINo8mA1WImMS6BzJQUULXgK1sSoANJkRCyjIYgJsaKUW+keVoz4mOtwYZECjYoyBqSIiPJMkIWCDTSkhPx+Pz0aNe+gYbgSASh4ZU0ldF9++GpsbN+w/rIan8oQSuVwoqVy3nzqxlscKzjyxVf8tbbb+H1+Q4TAPW+FfWRPOEGugkWQw0Zt6MFhvw69IU+jJ4MkpUS8jLjkIBqTwUb7D/xw/538adpKHodQhPIkoIsSQhNI85sJtZkw+sBTZLCIyIcaUU5HEmCgKpxYH8xrfIyqCivQVMFcfE2+g/oROs22RgNSpOOQwol3FUMRtw1NWhKU0TUH8OuXbvZtm0rl1123mHjhTYcySrw+7zY7XaEEBj0MjpZAFow3YZODp0fDYRGMHlH/ZkPrq/+Q6R+7SIkNE16HfEWI4oMCmpwPYdcsqB80pAkUCQJIYLdmLJ85HVVFDm0bGgrkhqMMFVkEBoGnQ69Tgml0Dn2u0NRID3dRnVVFS6XK7L4CKRQjqi6urrIoihRTigeT+O+sX6/n/PPP5/33nuPL7/8kn/9618MHz483O3YlPfZb8FgMHDHHXcwd+5c5s6dG55fv73ExERSU1PJy8tDkiSWL19Ohw4dSEhIQFEUWrZsSatWrbjqqqvQ6XQkJyfTtm1b8vLysFqtzJkzh6FDhzJ27Fh2797Nyy+/TElJCcnJyRB6Ds8//3xqa2t59913SUpKwm63M2fOHMaMGcMbb7zB66+/TnFxcXif6tN/bNiwgYEDB2K1WsP7mJKSQnx8fIOjNCxcuJC5c+cyceLE0PjDZzYnVLDVn9xVK1fSKj2d5FgbaEdrYI4kWE9m6759tGqRQYwlBiGCDazbG2B/UQlurw9ZSEiaBJLMio0byUnNoLi6Fm/IkhMUJjKlVVXkl5TiV4PJUiuqaqioqaZTq5aEQtQaRwABlZy0ZsQoOrbv2BFZ4w9FBtwuN98v/o7ULqloRmjWrhkr964kf9++IwybQgjKy8vJyMigrq6Ourq6JlgMBaqmkdYsDU95NZV792GxatQZathTtjvYRScpJBjj6Z7WHX2RguIRbF67h7J9dgyyhJBkiovLKSooQa/XhSyuTbsGQgQf2L79OuN0OshpmYoQQYEQ3HcF0ZBTZANIImjVEe5aknJbotXWhn0XTyZPP/0077zzTuTsBvh1XyoryzGZJGLj6iO56gXMkccqhITRZCSrRQZ6nYIsyWGBbjDoMZuMyLKELMvIcjCNhywH6wTn1f8bnF8/GY3m4PBQoXFDg8tKQXfQcD0JRZGD7qSh9dR3fRy6LlmW0esN4f2qn6dTZJT6OpKEXqc7ZoLbYFe/BgguuGAo23dsaXT0gvp11W83SpQ/Gp1Ox6233soVV1xBixYtIotPKgMHDmTChAlMnTqV+fPnwyHPRm5uLoqi8Nlnn5GSksLNN99M+/btGTZsGBdccAFr1qzhjTfeIC8vD4vFgtvtpqioiG+//ZZp06bRtWtXxo8fT/v27Zk4cSI5OTk88MAD7N27FymUOHfJkiXk5ubyxhtvkJCQwKeffkpWVhZPPfUUd955JzNmzGD58uVhwfjAAw+gaRp5eXn06NGDgoICFi5cyLx581i+fDlOpxOf79ePWoBFixZx9913c9lll3HuueceVnamclLeXBvWb6BtdhYWqw2h1TvzN6FRlGQ8bg+7C4vpntsKNIEky+wuKuat775l0fo1TP9uNm/O/paAGqC6popdhQUUV1Yy++efefOb2fj9Gp5AgM8XLOS7JUv5ZeN65q1agZAkthYUkJGSQnp8QpMEm0QwklGI4IDV8TGW0zLwoKqykl1Fu0nPS6dlx5Y43A7a9m1PQVFwuKVDkSSJtLQ09uzZQ2xsLImJiY1/yQkJvSIodS8n4+xOtLugH3bTNkwxCkmxiUgI0qwpDG85gj9lj8boM1FVUUP39m1BVSkvr0GWFWyxVuITzMFBvjXpkFuike0TVG3Z2c3p07crycnxIMDvC7Br135qaqqOEKZHRQqaZiSjFWdZJZIlpknd9b+XdevWseM4xL4mBIsWLWb48F7ExdoaPUeSpKJpUFlhx+kLDt1V5wtgd2uU1bmocbgJqFDn9eNXVQJqcMB2VYAnoKIhqHV7qXK4qap149cEAU3gcHtxuL3Uef04fBp2pw+PHzwBcPoCeP0aXjX4qaVpENAkVE3Drwn8gQCaCFnIUdAEVNmd2L0qtW4/5XUe6jwBXD6B3eWjzhPAJ8DtD+BV67P5Hg0BSCQkmKmtrcbeRKtZvcNylCh/NH/kx4Msy9x2221cfvnl3HrrrUyZMoXly5dTVlbG8uXLWbJkCddccw333XcfeXl5uN1u3G43nTt35rHHHiMrK4vS0lI8Hg9FRUUsW7YMo9HI3XffzfDhw9FCQQEAN910U9gHzeFwsGfPHrp168bYsWNJTEwkOzubsWPHMmjQIAKBAOeddx5ffvkl5557bnibN9xwAxMnTqRXr174fD5GjhzJRRddRL9+/bj88su588478fv9VFRUsHLlSqZMmcL48eMZM2YMd955ZxPdUU5/TmgetqA1TGLkyJH0S0vjkVtuBbcr/HJtFEWhoKSUe19+iYcnTqBDy1aUVlXy5NvvMLxPb84/91yefOMNamodPD35DhauXsXfZrzJOw8/RozJwGVTH+D1Bx5i4ZqVbNq3l6nXX4fD7WPBypXcOOYinvvoY5xeD4/ccAPB0MUmHLog2KBLcNcrr5J+Vk+m3HtvZK1TRkN52AoOHuSBFx/kyilXsmzeUtr2bEtNoZ22oh3Dzw1mgyaUj+bbb7+lZcuWeL1ePB4PRqMRn8/HsGHDDtnK4WiqxnsfzqDQUILJnUlAExiTK7GUGbhh/B3o9Ic/DI8+fA9XXtWd8rJqTFYzFpOeRx77kD8N60WPnm3IyEjgow+XMuGG+0hMij9s2YYI5mEr5qyzWocuiOCF52fzw9zF/O2xG/D7fMydt4Zrrrm/0ZEO/MWl1G3ZRNzgQfg8XsyxsZQvWoxkPvl52LKzs3niiSciiyIIbd/jZvToC7nowm5Mnnw54IyseBhCBK1sLo+bEpeCkDRq3S7stS5UDYySRlZaKhoaBp2ChsDrh7IaO34BOYkxlJRV4RU6av2C5Bgzfp8Lk8lIaZWdjJQEPH6B0+UFEUBvMmPSKRSUlpPXIo1EixE9KmU1TpBkKhxeshNNxNhsVDgDmCSVeLPC7sJKHJoO4fcSkGRMej0ZiVbstXVUuQJYLSYSbSbqXD7ap1lItMYco2tUJn9fMRMn/R93/GUqYy66EI7ythEhB/Dx48dz11130aNHj4gaUaL8fjZt2sQVV1zBL7/88rsTNJ+sPGyHomkaP/74I++++y779+9HlmXS09NJTk5GVdUGfehkWQ6nggpbyXU6NE0jEAgcYQCQJAmdThd2wdHpdIhQEFD9sn6//7DlZDnowlE/z2AwIELBDkIIjEZj+ONLURQURcHlcpGfn4/f7yc3N5fx48czZMiQ35ywvCmc0XnY6rsdklNScHm8EAiEnKwiX59HQZLYXVRErNVGRmIySIL5q1ZTXlPNgC5d0Lxeyiur6JqXi2zQsXzTZjrn5pKTlYnb66Kq1k5BZTlfLFpERnIK+4qK2bhjO8P69MLnD3CgtIQuuXkgN707rh6BRGl5OcZQPpnTDU3VcLvd5LbPpa7CAT4J5IYbOr/fH36A6sd3OxYCkJHJMBuxxihkZCTTKjkp7GB+WEUAQl1eStCPTdM0ZFnG6XSjqn5iYgwIoQX9A5uIJMvk5xewYf0eKiqcgESMJQaD0UxAFcfxUAYFn09VCZzir67GzvOhuF1uQMNolI4hWH5FkhRUTcPj9pISI7Nux0HSYkz0zEmhd24KzdNSqXb5MOpk6jwa2/aXs35fJQ6PTGJMDHtL7CTHWxnQIYserdLw+9xUO9wYdTIZSbF0yUog1SrRsXk8bdPiaJ1sJjfFhtcvkIVg9bZ89lfU4VE1Ch0BJFnhQJWb/HInuw8U8vWavSzeVUFui3TOykmgd5s0BrdrTscWzTDKATpmJdMuKxmXL4DNqGCRfJRW1jby7tDIatGcjh3z+Hnhz6jq0c9TvTVj2rRpUbEWJUoIWZYZNmwYb7/9NtOnT+eRRx7hoosuonfv3vTr149BgwYdMQ0YMIAhQ4YwZMgQBg4cSP/+/cNpNQYOHHhE/YEDB9K3b18GDBjAoEGD6NevH/379w+vq0+fPkcsN2DAgMPm9enT57D19+7dO7y+/v3706dPH4YNG8aDDz7I9OnTeeuttzj33HOPo104MzihFrZ6nv7Xv1g1+1vef/ghzAYDhFNONIJO4ZUvvqC0qobbx47BZjVz/2vTkSWZ5+68i7LyMv783HM8POEG8jLSuOellxjSvSdXXXABX82fx4z/fMU9467lb2/OYMaU+2menIykKOgVhX1FhTz85pvcP24czWKtpCQk/urzfhQEIb94WcIdCDD2gQe57NabmThhQmTVU0bDFrYC7p92P2PuHIO9vJbqyip0moGO+vYMO/dXy1m9ha1Xr17s2rUr7ARaVVXF8OHDw/UiUVWNjz56B52hkMSkWBISE/D5vGzb5OT6625Db6hPoqgBMo8+fC+jRrfFZDJir6tFkSSef+lbrrhsCGPG9EOWVP797x+YeOP9JCU2bmGbN28OcfHF5O/bR5u2eQR8KkuX7eDnRSsZd81oWuY0Y+HidfxpxC20bdsmcvHD8BcXU7tlC7a+ffBX27GkNaNi+QqkkzzSweWXX07Lli15+umnI4siCG5/y5atTJ58Kw8+OJZzzukVGvD9GIhgL7/PH8Cg12H3+Igx6DHogoLPHVCoc7gxm3RUVNci6xQCqkKzZBs6CbwBDaOiYdbpABmXx0cAQYxeQUigyHLIx1QKf+f5hYrd6cFmMlHnclPqkom1KBjkAHFmM9V1LsprPWQmmthb5cXt8dMrNwWzTg6tRwAaAU1CJytoaPg10MvBLuFAQMOkb+y9YWbKvS9wsBDefuttTKajZ26PEuVkc6ZZ2KL8Ps5oC1s9/fv1Y8eB/VTV1YaS1DaijOpRBdX2WmIsFpZv3YymyaTExWE2GhGSxKKNG3C63Thdbrbl52PWGTAadHicDpas38BVw86jffMsslKaodPrMZiMlNdW8/2SJZTVVKPX6dhTVEhBWQVSE3wHJEJRojqF4vJy3JpKq7y8yGqnBbIiEx+fwK7Vu2iR3QLFKDeYnBigqKiIxMREiouLsdvtTbL8aJpGs6wkCrCz4uA2nCLon3DYlRXBcyoQpKTEIkka2S0ygyk3QmkaFCXo6A5Sk539g0EHMuYYC/sPlKI36JEJ+kb27d8el6uW0tJKdPrGv6ZkRQJVo27PHnylJTj35TeaB+5EMGnSJC699NLI2Q0Q3JctW7bictXRvXsn4MhuiSOQJJxOBzt27Mbl8mKWZVSfD5fbS43dg7O6mjijgiI0UuNtpFjNZMbq0fm8aF43Js2P8PlxOF043W5koaIDamrsOOtceNxe3C4fLpcXp9OBy+ki4PYQo4Dq82Ex6IhT/BgCPuIVGb/biUnz0jzBTIxOoX2ymQ7JBjx1tbjdXtxuF263B6fLR8Dtwe1y4HEH98Vht+N2OFEa7NyMREWIAELTCKiNn6fGRvWIEiVKlNOVxlXLb6BLl67Epqbx45o1ICtNHzRdgk65eah+P7GWWCxmCxeffQ5ZycnMX7oMp9vDuT16UlBaQm5mc64bOZLKGjvfLFxI744duPTsc2gWH8cV557Lj6tWsmT9BhavX0/r7BZkpqTRpnkWZZXV5GRkNklDhjPwyzLfLV+GIS6OXmf1iqz2hyMh0AIqpQUldB7YmYP796N5Akf1pTebzUiShM1ma7IzpqZpJFpjuPLcgYwfPZS2zTPRjtIFpQmw2sx06dqa7OxmwSZXSJQUV7J7dxE+XwBZOs48bAiys9JISrCRnBQbtM1osG3rfowmC/HxVmqqq7Hb7UdMlZWVzJ8/nxWrVuGocyDkoBCQLGYUna6J2/99DB8+nF69mnLvBPfF7fYgo6FTGj7HkQgEJpOF9LRUTKbg4OtGkwGTUY/VaiEhwYbBqMNk1GEy6TEZ9RhMeoxmAyaTAYNRh8FkwmI2YjLpg7+NeuLjbVhtJgwmPSaTDqNJj8lswmg2YDQZMJhMwX8NetKTbaQkmNAbDVgsJmxxccTHWDAadFjMRpIS4oiNtaI3GjAaDRiM+uC+mnUYQvtqNAX31xJjDqYAafTaCLKaJyMJDY/72Kk9NE3jgQceYPfu3ZFFUaJEiXLac1K6RAGefvpfLJ/9DW/efz+JsTENjjATiQB8aoCK6mqaxSei0ytIkkRVbS11LhfZqenU1NXhU/0kx8UjywolNVX4vD6apzQLuqZpAk2SKCgrQw34yGiWitFoQKgqFXUOZCFIiosLBkhE7kAEApAUmeKyCs6fOpWb77mbm268MRxc8UfQUJdo4YECprxwP5fcdQml+0uQFBlvrY+OSnvOiwg6mD17NsOHD8fhcJCYmMiePXsoLS1lxIgRh2zlcFRV4/3336RHTwNdOge7HIsKi5k9+wDjJ9yGIdwlGhRCDz10L3+ZPJBmKUmAYOeO/dx3//uMHHEWPXu1IyMjno8+/IUJE6eSkND4cCE//TQfq3U/u3fto227XIQmWLpsJ78sWc+fb70Yk0li4cL15OaeQ05OzmFRgJIk4fV6efbZZ6l1OHjmnnvIM+hQclrhKi3G1rIlzl27wWQ4qV2ix4OmCV5//Q0++3QGX3/9JDFWQ6PCRQCaKuH1eDGa9OEB3UEOJq6G4IDrEiHrpISQJBBaaOQEDSQdMsEkupIUjOLVNDX4txS0QwqCOlsSgvqxS4JnLLiMQEEQCLsbSIQMqVJoKHoRHPw9+BEXtLRKaAhJQhZSMLGxAIGMIqlNsIQrbFi7n1v//Dyvvf4mXbp2iaxwGDk5Ofzzn//kyiuvjCyKEuV3cyZ0iaqqyq5du9iwYQMlJSV/WFt2KhBC0KxZM7p160abNm1OuE/bqe4SPWmCrbCokAnjrmdoXkvuG3dd0OwiGrEWCClo8wu95YNDTIlQ6LMEWiDUxSohNBFsFJRgYyJUFQHBIa8kQAmNiqAJNBEyJdYPOao1LtYgGLXq8Xu545nn2O/38+mnnxIX37jP1cmkQcF2MCjY7vj37ZSWlBKXlMDGxZvoQGvOO3d4WGDW1dXxzTffMGrUKAKBAMnJyaxdu5by8vIGBVv9cvWCrVt3I0kJsTjdDmRJZuHCMq6//lDBFuThh+9m4sTeeD0qsXFWauvqeOD+Dzjn7M706tWOvLx03nn7Z6646nbi4uIIBPyoqnrY5HK5mDdvHs2bZ1FXZ6dLFx2S5GPn9nz69OvON1+v5Ic5i5n2/B0UHCxh3ry1XH/9VFq1OjJKNBAIsGnTJvRGI63j43Fu2YRIbYZeb0anyHjKK066YNuxYwdms7lJ+ZYCgQAvv/wKs7/5gK++egJLjLFRwQaCQEBQVl5JnM2GBAQQqEKg+X0E/Bo2mxWP348/9PFk0uvQAJ0cfJ6EpuLTNEx6PZJQkWUdDqcLvV7GqDcgkNAAfyCAXqdDkYOpNwTg9qkE/D78KsRbTQihUm53k2SLIaAz4/Z5EX4PZp2M2ahHQ0ZGQ2gg6YLbV1UVo0GP1+tHkiUsZlMwZ98xj12hsKCOQYNu4p13ZzJ48ODICofRqlUrnnzySa644orIoihRfjeno2A71MCwYsUKnn/+eXbu3ElqaiqK0rSE42cqkiTh9/uprKykbdu23HbbbSd0iKr/GsEGMGf+PO7/y2QmXzSG60aNDFrA1OBX9tEQwY//4Ld36Ms89IkOgCYHhZqQQAoPRhkSbwTf7fXLhyqFrAmh4axCJoGjCrb6rw1Zxu338/T77/PFihV88OkndOnYKbL2KachwXbwQCEPvDCFO56ZjA8fCrBm/nra6doy7Oxfgw5cLhf/+c9/GDlyJD6fj4SEBLZt20ZZWVmDaT0OfdA//PBtjIZCUlOTSEiKw+PysH5DLddd15Bgu4cLLmhLUkI8ldXVeL1+Xnr5B1rlptOpUyajRvfm+WnfM+Tsy0hJST4k8Wrw5SFJEk6nk3vvvRer1crAgQM4+5xm1NmrUBQdCYnx/Dh/AwsWruGaq86jY6cs5s5bw59G3EKbNo0EHZSWULthI1JaKp6qGmwtsvAWFYHx5Aq2m2++mezsbKZOnRpZdAQ+n5f/+7/nWbv2e95790GMJkOjkaIi9BHj8vjxocOnCWpqnZRW1tI2O41yuwO3PwAo7Cp2UOFwkZ1kxC/pSLTFUFtTTXpyAka9gtcfID3BzLJtRWQkxIAcvB7NEuJxqyqxJoU0q4FqpxcMZhIMgrX7SqlwQUpiHPZaJ5kJJkpqPKTFG6ly+HEFVNpmJlDn9CJLkGiNwS9JuD0BHB4vhQeLSIg10SkvC9XnR8iCFklxGHVHf1cEUSg4WMWQIbcx480POOecsyMrHEarVq144oknoha2KCeF01GwEXqXz5w5k8cff5zBgwczadIkWrduTWxsbGTVBpEk6biEnRRKji0OSc0RSX3bcmi5LMtHzZN4rLJjYbfb2bNnD2+99Rbz589n6tSpXH/99SckB96pFmy/f4+PwYjzhvH3p5/mX59/wp3/9ywbdu3G4XIHfcMUJTjpdIdMCpJeQVZ0SDod6BXQKaAP/a38WibLCpKiIOkUJCW0fOhfqX59evnX9eoUUHRIii7492Hb/XX7qqpid7tZsXUrt/7jKb5au5ZX33gzKNZEIx/7fxCSJBChLqfaOgdq6AFwOd24XW7mzp3LK6+8woYNG5AkiX379rFp0yZ++eUXHA4HHo+H2tra8MgHdXV1uFwuNm3axD333MPChYvweDwkJsWiBgLUVDuwWIzhB03TNJzOX/OESSKYcqO0vAaQsdli8Pt9dOiQTY+zOuJw+IixmOnUqSMdOrSjXbt2tG7dhry8PFq1akVeXh6dOnVi+vTpfPrpZ3Tu3Bmf1095eRWZzZvh9wcAiYA/gNmsp6ysGked+xgqPIgg1PMngcEWjzExAb3NdswPiBOFw+E47BwdC6/Xx969+xg8qHcojUzj+ycJgd+vUlRWzcIdlcxet5cSlx+TycC20mpq3B7cQsFm0dG+uY0O2Slkpthok6RD8TvomptCswQLmt/LnuIqftlZStvmSZj1CrVOHyZbPHsrXMg6EzV+KHQJftlZzgcLd7G+2Evbtm25sE9b2qdb0bxOyuxu0uPNZKfEEyu56NsyEaMi43J7qLK7UFApKK1h78EiSsuqyG7ZgoClGT9tPsCucgfvLNjBtoKypr2iJBVJCuZoagxN09DrD//AiBLlv52vv/6av/3tb9x3331Mnz6d3r17h4eaasrk8XiQJOmI+UebVFXF4XDg9/uPKKufXC4XtbW1h82rqqpqcDuE3qFyaBSV45kSExPp1asXr776Ko8++ihPPPEEs2bNijxFZwQn1cJWz/KVK3j15VfI37qNjPhYWjVvTqI5JmgzOKSR/dWOdnSaUuf3UF5Tw57iYorsdrr16cOtt91Gp44dI6v9YTRkYSs4UMj9zz/AFVMuZ//e/RiMRpyVLsz79QzsM4gvvvyCefPmcfHFFxMXF0dOTg45OTns2bMHVVUpKiqiW7duh/ky6HQ6Nm7cyCOPPMLV11yD2aQwbFhz3E4fflUjMzOBxYvLGD/+dmRZora2loSEBAglzr1mXC8OHCglLsFKjNnIQ498QI+uufTr34Fu3fJ4+62F3DBxComJwWWOxdy5c0hpVobQVHZsP8CAgV346j9L+ennNfzzqZspLCzk5583c9119zfYJXoogZJSajasRU1MRmfQodeb8FVWwElO69H0xLlQVVnNdddfz5VX9eLaa4YeNo7o0RACVE1QY3fgk0xoBNDJEkZFYn9pJS2S4zBbLAhNxaiTkAjmbUMCt9uL2WxEEhourx9NUthbVEmbFukomifYfanXE1BlLDqNEkcACGA0GKlza8g6PTE6iNMHBZMsyfgDGt6AH6NBjyQEep2MWwOhqmiSARHw4PYGsJgNyEJgMOmpsAfFXG5GIuu259MmO42UuGMlzgXQUVBQytlD7uCll9/hT38a1uAbov5L/4UXXuDSSy/9rxgIOsrpx+loYcvPz+fKK6/kmmuu4fbbb2+yz1pZWRlCCFJTU3nsscfo1KlTEyPdg8NCzZ49m2uvvZalS5dy7bXXYrVaAaitraWmpoa1a9dSUVFBnz59qKiooHXr1jz22GM8+uijZGVlHba+nTt38vbbb/Pggw+ydu1aFEUhPj4+nKx30aJFXHHFFaSlpR22XEO89tprfPDBB7z99tuNJlpvjP8qC1s9fXv3Yfr06Tz90ksMvvgSpBbZlNhslNlslFl/ncoP+ftoU1Pq/PYpFnPbdgy/+mpemPEGz7/w4h8i1lasWMHy5cubZDEAQt2+Gh6XB7MphoriMhRVkNsqj06dO3Hbbbfx8ccfc+ONN2KxWMjKymLJkiXodDqaNWtGVlYWPXr0oHv37uGpc+fOjBkzhh9++IEHpz5IdnYL9u0rwmjSkZ2dTq3dFeqtDiatPdS0LoSgprqO9u1bIkuC6qrgV5SsKPgDAWQp2GfdRE/CkB+CSlFhMR06tqS6Omi5U/0a27YeJCOjGSkpscdMnFqPEBooeqzJyWguD7q4uAYb+BNNfZbveqqrq1m4cCHl5eWH1QMIBPzU1taGrn8T902SEEKjzuEkRnJjlQKYtAD4/WTYLHidbrxOB15XcPSDGrsdR20djjonWkDDUeugts5FwBdA+NxkJZjxup1U1zhx1Tnx1NURcDmorXViCrgwqQFkr4sEyYM14ET21FHncOGsc1HrcOB01uF1O3E5nThdbmpqnXhrnbhqnWiuOjSfH6MsUD0e/D4fLrsDMwHSYw047VW0y0wm1tSY/xr1ncFBwaoGjtplIoUS5955552/S6wdq4snSpTTkTfeeIO4uDgmTpzYZLEG8Mknn/Daa69BSPQdK7q6pqYGp9MZ9kGura2loqKCrKwsdu/ezY8//siBAwcgZCl77733KCoqIhAIMHfuXLxeL9u2bSM5OZnMzMzweuufNb/fT3V1NZIkMWfOHIqKikhOTiY5ORmz2cxnn31GVVVVeLljcf3115OamsrMmTMji057TomF7QgO2eKp3/jRkRC/+rD9gTz00EO89tpr9OnTh6uvvpqBAweSnZ0NwEcffcTzzz/fwNBUDzDuwXGsXbSWVt1aU7yrlHZSG4adc2Ti3KysLGJiYqioqAj7GZx33q/RpJFomuD992fQqZMBe3UdHp+PvNx0Fi0ubTDo4NGH7+Ha63qxe3chySkJxFgMPPTw+/xpxFn06NGatLR4Pv54GRNuaFri3Llz55CYVEL+3n3ktMwGobJ06W4WLV7N0/+6lYP7C5g/fz3jJzQcdHAo/uIi7Js2omS1IOBwEJPSDFdBwVF92IYOHcqNN94YuZrj5q677iIrK4u//vWvEApCOP/884mJieHiiy/mggsuoEuXLiiKQkV5BWPGXsykG89h/PV/AryRq2sAOShGQ9Gdwfid+qdLihB+Uug461OrSIf8XW/DloFgBKkkRMihNLid+gTJwarB5DfBJesz2kU+1fXblgiGi/+6HYEStqAFl1ZDQj74d+M58kIWtsF38MJLbzJq1MjIClGinDJONwtbSUkJ559/PnfffTdXXXVVZPFR8Xg8XHXVVfTv359LLrmEBx54gFatWjFp0iQqKyv55ptvuPnmm8nIyADgq6++YvXq1QwePBgpNGD7L7/8wl//+leqq6tZsWIFLVq04Nprr2X+/Pls27YtHIjVoUMHDAYDtbW1JCcn069fPxYsWEC3bt3o0aMHGzZsoLS0lHfeeYdzzz2X7du3M3jwYPr3749Op6OyspJ7772XN954g9zc3MhDOQwR8pF+//33effdd/nkk09+13U61Ra2UyfY6t/qZwgCLdRYHHuni4uLWbBgAX6//7i+Xo6GJEnMmjWLb7/9NjwvLy+PCy64gMsvv5wtW7bw1ltv8f333x8m2O6b9gCjbhpFWUEpAoEuoKO9oS3Dzvk1+rNesDVv3pyEhIRwSLemaccUbKqq8eGHb5PV3IOiU9EbrNhijCxfUR4RdBC8yI8+PIVLL+9Crd2BzihhMVp49PGZ9O7RhrN6taZHj1a8/eZCJky8j8QmCraUZmWYTTK/LN7JmIv78tHMn1mwYBW33345iuJnyZLNXHrZ3bRp3UjQQXEJ9vXrUNOaERMbjxII4Cwra7BLdPz48WRnZ3PZZZf9roSrkiSxf/9+DAYD6enpyLLM7t27ufXWW7Hb7QDYbDaGDRvGxRdfTNs2bbnjL5O5+dbzGH9dUwWbRCAQoLzCjtGgxx/QAIEsafgDQeuT0WRAU8GvCjy+AGajDklW0ElaMOWGFhRNUv2oBpLA6/UhK3oUnQ5J04ICrT7tByAkGVkLgCTh8WuoaFgMCqoGLp+GQS+jSBKqpiJUgSLL6HQKcjCBB6qQgtGiEkjokFDxq8HkILY4GzEWc5O7RG++5a8MHNg/HLzSEPVjHh7NEtcUTCZTuJGJEuVQTjfBtn79ev70pz+xdOnSRsXMoRw4cICJEycyZcoUEhMT+dvf/kZOTg7jx4+nrKyM/Px8LrjggrA1bObMmZSXlzN58mQAli1bxnvvvcerr76Kpmn4/X6MRiNer5eKigqWLVvGK6+8Qps2bRg+fDh5eXl8+eWX9OrVi9dee40BAwZw4YUX0r59e3bt2sXevXv56KOPePDBB3njjTfIycmhffv2LFq0iM6dO7Ns2TIefPDBsFtOY+zbt4+hQ4fy+eef071798jiJvPfK9giOMP021FZsWIFzzzzDC6X6zdHsRyKLMts27aNPXv2HDY/IyODiy66iGbNmjF//ny+/fbbQ3zYCrjv+Qe4+C9jqCqroq6uDp1PR3tjO4ad8+uQU/WCrV+/fqxatYrMzEwMBgOVlZVNGprKYCgiOyeVhPh4aqrtbNzkaDBK9JGH72X0qNYkJcdRUVlFwK8x7cVv6dWzNX37dqRjx2zee/tnxh+HYIuPL2HPnl306d2NsooqVi7fy6Jf1nDXnVeRnGzi+++XM3LUbbRt0zZy8cPwl5RQt3kzhrw8HHv2kNi5M7U7dx2R1sPj8XDdddexefNm2rZt+7sEGyGhIEIDHiuKgt1uZ+nSpXi9h4uxVq1bMfy84SxZsoy77rmQ68eNaKJgU1DVANU1dmJtsegU8AUkfFoAWQiKq2vR680Y9DK7S+yU1qmkxxmQhUaMxYQ34CUzzkqcxRBMpaEF0+QEvF4UnS4oToRAoBFQNRRZAUnC61eRJaiodXOg2o2MhtlsDAaneDQSLAYq6twINBIsJtqmxWI16vEGVHSyhCzVi8TQ20AIfAENnSQF8zA2Ou6vjoLCUs4Z8hdi4zLJyEht8MOpft7SpUvJy8sjPT39uK+pLMt4PB6WL1/O4sWL6dy5c2SVKP/jnG6Cbfny5QwfPpy9e/eGhyJsCi+88AJWq5UbbrgBgJtuuomOHTuGBVkkH3/8MWvXruXqq69m7969GI1G5s2bxz/+8Q8WLlzIypUruffee7FYLOzfv5958+ahqip6vZ6CgoLwubrlllu47rrrePTRR2nb9td3+aZNm3j00Ue58847+fjjj7n00kvJzc3lxRdfZNKkSZSWlqLT6Rg4cGDYinYsampqyMvL4z//+Q+DBg2KLG4y/zOC7b+F+v56TdPC3Yu/B0mSeOihh3j11VdJSEigb9++nH322Zx33nm0a9eOr7/+mmnTph2e1uNgAVNffIBrHriadT+vI6NdJrVFtbST2zPsnMMT53777bdkZGSQkJBAYWEhihJMTtyYhe2DD96kS1cDZaU1eFwe2rXPYtHiyDxs9Ra2+7h2XE/Wr99BZvMUkpLjuP+B9zjvvK706NGa3JxmfPD+EsbfcB9JTQw6SEoqxet34vNoZGQmM+f7dSxYuIK//20SBw8U8cuSLUyY8BCtWrWKXPwwAsVlVG9ciz4zE8mgQ5YUvCVlRwi2+i7RHj16MGHChN8txMMWKRHMK7ht2zZGjx6Nw+EgKSmJPn36MHToUEaMGI5Bb+SGGyYy8bi6RMHn06iqsqMzGqjyquh0Ooor7KQn2yirqsVgtmIzQIzJCDoDqt+PTgTYV+EiwWrCatFT6/biCcikxMjs2l9BSoINW4wBEfAjSQp6kxlF82C1mCm3e1i3v5zebTKpC8gYZAmT4qekvJYYswGLSY/JoGf3wTIyUuJx+jSQZZKtRgorncTbTMSYjLhcHiqrKom1mIiNtWHUy3i8Pqw6hVhrY1GyCgUFpQwZ/BceefSfnDdsKDrl6KN39O7dm6lTp3LxxRcf9zWVJImioiKGDh3K3Llz6dmzZ2SVJlEfkR3lj8VisTTZItNUTjfBtnr1akaMGMHmzZtJT0+PLG6QoqIi3n77bcaPH4/NZgPg9ttvp3379tx2220sX76c1NRUunTpEn6vffDBB6xdu5Zx48bx8ccfk52dzd69e7npppv44IMPSElJ4c9//jNut5ulS5eSk5PDjz/+SLdu3cjNzWX37t0cPHiQ7t2789hjj/Hqq68SHx9PXV0d8+bNY9GiReTn5/PPf/6Tf/zjHwwcOJDU1FS++uorzj//fHw+HyaTiYsuuqhRsQZQWlpKjx49+PLLL+ndu3dkcZM5IwVbQ4pWVVUqKipQ1VCm9DMQk8l0wh/opjBjxgx27NjBBRdcQNeuXcPCjKNGiRZw37T7ufC2C9ACKvt27cOis9LJ2J7zGrCwdezYEY/HE46wcblcDeZhq6fewhYbW0laWjxmkxG/X2PtupoGLWyPPnwPF13UmRibEafbidfj59nnvqZ719Z06dqc/v3a8/Zbi5kw8YEm+7AlJZfi9TopKqigW/d2fP/dGhb8vJJbbhlDTk4zZs9exvnn39ZoHrZASQk1G9cjpaSBJDDZYnEXFTXYJTphwgTOPfdcbrrppsjVHDdffPEFiYmJnH12ME/Ynj17uPPOO+nYsSPnn38+Xbp0CQdulJWWMfbiS7jxpnOPS7CpmkwgEGDDnlLKPCrNm8UTo1corKqjW3YCMhIeX4CUuBgkAiF/NAmXL4BBkfEJjQPlDg5UutArAlkKinmXX0WSdZhMJvweB1ajHp3RREV1HUJRaJFkITvJhkUXEkBCCnWpyggCCKFDkSRqvQH2lNupqHWRaDFSVushEFDR62ScThd2r4yQdLRuHsemnQcZ3DaDzrnNGukSVSgoKGHI4MlMe346F1xwfmSFw2jVqhVPPfUUl112WWRRkygpKaFbt25899139OjRI7K4UWbNmsW0adOwWq0oJzjrepTjo6qqiiuvvJLJkycjy/VjHP8+TjfBlp+fz5/+9CdefPHFY77j69E0jZUrV2KxWFi9ejWBQACDwcBbb71FRkYGo0ePZuvWrbRr145x48aFc5m98847VFdXc9ddd/Hcc8/Rp08f1qxZg91up7CwkL/97W+kpqZSUVHBggULcDgcfPXVV1x55ZWsXbuWSy65hNraWn7++Wc8Hg/PPvsshCJVZ8yYQUZGBuvWreOxxx7j4Ycf5qKLLiI1NZV33nmHK664AkVR6NatW9gAcTTqtcp3333HY489xueff35EROrxcEYKNkIXes+ePXzzzTfMnTsXl8tFIBA47m6H0wUplAtGp9ORk5PD+eefz9ChQ3/3Q9gYQgj8fv9R/WMaEmwHDxbwwAtTGXvHRaxfup6cVi1x1bhpp7Q+okv0u+++o3379mzdupXk5GRsNht2u70JXaJvE59QjcmgkJqahs/nZd36aq677vaGBduYTuh0Oux1dZhNep56+nNGjOjNWT1akZ6ewMwPljAhnNbj2B3k8+bNwWor4uDBfM7q2Zlau4tfFm/j2+8XcfNNF9AsJY5flm5m7Ni/0Lr1sbtEfaXFODZtQpfTmqqdW8no05farduOamE7UWk9rr32WnJycsJpPTweDz6fr8HElSXFJVx+xZVMnHQ211/XxC5RoRBQfRQWl2CyJWI2GFE1PzEGhbLqWmQhSEmKR4gAktAFfcpkOThQSDDOEqEKtNBQ83aHh8Q4E7U1DhS9CXOMGX/AD1oAv9CjBvzoFIkYox6P0GGRAsioIZEmoakqXq8Xs8kc6tZUCWgCt8uLwWJDJwXwqxqqKtArCsh6PD4fCIEsvNT5JJLjYogxNhbIrlBYUMbgwXfwf9Ne5/zzRyHLRxdCubm5/OMf//jNiXMLCgro2bMn33///XELtpKSEi6//HJGjRrFqFGjTohF/o+mfnCy4FE01n19+iDLMlu2bOGvf/0r7733HkOHDo2s8ps43QSb3+9n3LhxWCwW3nzzzWOKGULtuMfjwWKx4Pf7w1kAbrzxRtq3b8/dd98dFj2HJp59/fXXSU1NZdSoUdx+++385S9/QVVVLrvsMv7xj39w6aWXho0E1dXVvPXWWyQkJJCbm8uMGTN47bXXCAQCDB8+nH//+9+MHBkMHqrf1rZt23j11Vf585//zMyZM6mpqSE3Nxer1UpBQQErVqxg1qxZDb5PIxFCMHnyZOrq6njjjTeaPJ52Q5yRgm3jxo28+uqrLFq0iJycHDp37kzLli3Jyck5o78iXS4XO3fuZO/evaxevRpN07jmmmu49tprSUlJiax+Qoi0Vkb+bkiwFRwo4P4XHuDah65h78Y9xDdLoLKwirZyG4Y3YGFr1qwZmZmZ7N27F0mS0Ol0jXaJvv/BDLp1M1BT6aauzknHzjn8+ONBrr/+SMH2yMP3csMNfdiwYQ/Ns5phsxm5f+p79O7div59O9GxUzbvvLWQCTfc32QftuSUMsBPeWkl7drn8dVXK1i0eDX/9393sn3bTn76aT0TJz7aaJeovziYh01KaYYpIYGA20OgquqUCrbIaxpJeXkZkybexKWX92TctU3Lw6Yho/oD1NU5iI+PRZLrhZgcHKtTFaCEmlehhQMHJILtrCZAQgmOQSqC1jHQEEIOJqYVhCNQg5HU9VYvCS20DUQwgXMwoDR4HiUkkDQ0dEgiZNULjUVKKLVLcFlC25RDy9ZPjfFrlOi0599g1Og/HVWwCSE466yzeOKJJ8INwvHyewTbF198wfPPP8/8+fOjyXtPE7p27cp9993H1VdfHVn0mziRgm38+PF4vV4++uijyKLjYunSpdxyyy288MILYQv/8TJx4kQ6duwYjnL3er14PB7i4uLweDw8/fTT9OnTh507d7J48WL+/ve/s3jxYr7//nt69+7NzTffzJYtW2jTpg2pqal8++23rF+/noULF3L11Vczfvx4li5dyoMPPkiHDh144IEHyMzMDL8nt2/fziuvvELfvn2xWCysWLGCSy65hLPOOovZs2fz4YcfNvk8LV68mLvuuotp06YxcODAyOLj4pZbbsHlcvHee+9FFp0UGvt8PSaqqvLWW29x/fXXo6oqr7/+Op988gn//Oc/ufnmmxkxYgTnnXfeGTtdeOGF3HPPPbzyyit8++23TJ48ma+//ppbbrmFTZs2RZ6OE0JkQx75u0Gk4CDddVVObIk29u7ZRyCgNnh5JUmiWbNm5OfnExMTQ3x8fJO+8nWKjr17izGaILd1OtXVdQ2kXAitRwgqKx107JSLqgWoqKhFkRX8XoHT6Qx2l4lDG/3G0TSVulonOr0Rt8uDJIHX62fp4vWkpCSRnp7cNGuupKEoCgarDVd5OboY67GMeyeMQ69jY9dUb9CT1SKL/H0HEcIfWdwgMho6nYTFYkYIDU3V0DQVTVMJBFT8mkDTNFQtgKYFU7WomoYmBKqmomoaAc0XjKAUWvBcCglN9aMFghpOC6o6hBZAVQVqaD2apqKpGkKTQFXRhAiuX1VRhYaqglD9qJoI5UoLoCGC+xHQUDUJCFqbVK1+XFkNoTV+X4ats5KE3MjHoRCC55577jc3Wr+Xep+5Jt2nZwSHiuqmCuzTC0VRTsgQRSeD4DjLTczFeQz69+/P2LFjeeihh1i9enVk8WEIIcIGijVr1rBmzRrWrVsXju7ctGkT69at46233uLxxx/H7Xaza9cuWrVqRd++fTGbzQwcOJBVq1YRFxfHjBkzEELw17/+lY8//hhJknA4HLRu3Rqj0cjAgQOpqKhg3rx5rF+/nueeew6/38+NN97I0qVLASgvL2fu3LnY7XYCgQBnn312OPHuqlWr2LRpE3V1dU1qx9avX88jjzzCiBEj6N+/f2TxcSGEwOPx0KxZs8iik8ZvvlOFELz22mu8/PLL3Hvvvbz88ssMHDiQmJiYyKrHZN++fSfUAbcpF+1QXC4XW7ZsCf8+dPlD/05JSWHcuHF8+OGHZGRkMG7cONasWRMu/yOxmMzE2+JQTBIer4fOPTtSkl9IXEzQYfRQhBB4vV6sViuBQKDJ6Ug0oZEQm0TpNj27l6sIn+Hod48EZouRujoHFouJGKsJVVXJbJ5CixbN8bgP7UJpHEkCTYOSokqMRgNOpw+EjCQJ8lpn4PF4sdtdyPWRhscidKyqCBDweNAZQ/nETjJ+v7/JL1+D3kBmRgarVm7G4/E38TxJqEKiprYOt8ePzy8orKhlW34JVbUeautq8Xn9eD0qPp8Pn9ePz+PH4/Hh9aoEvB7cTh87DpRTXuvB5fOxeudB9pfWsL/Mzsb9lZTZnazeVUhBuQOHx0et04vH48Xp8uBwe3B73Hj9fnxeHx6PF4fThc/twe0L4PP58Xr8lNa4sTsCFJfbOVBSRX65nX1ldtbsLmBPcQ1ujx+7w0N1rRtfExIhAyB0CBHsojnaPVBv1RwyZAhmszmyOMpvIii0j/w7yomgb9++7N+/n9LS0sii4+auu+6iW7du3Hrrrbz55pvU1tZGVoHQx2RcXBwZGRmkp6eTnp5OWloajzzyCJMmTSI5OZnU1FTOPvtsrrvuunAP2gUXXEB8fDyTJk1i9OjRDBkyhCuuuIKkpCSmTJnCoEGDMBqNEGrzKyoquO6663jggQfo2LEjcXFxTJgwge7du/Piiy9y2223hX3L4uLikCSJYcOGMXToUOLj42nRogWdO3cmIyODs846i/PPP/+Y7VhtbS3vvPMON954I23atOGuu+763UK9tLSUffv2MWDAgMiik8Zv7hL94osv+Pvf/86///3vJjkzNsSaNWvYtWsXY8eODV/M30phYSE6nY7U1NTIomOiqiofffQRzZs35+yzz260u4qQ/9GUKVNYu3Yts2bNOiwz88mmoS5RIQRvvvsmW91b6Du8L0X5Zeybv4tH7nmUpKSk8LL1PmypqamYzWbKysowmUxIjUWJahoffvgOhtoAtRVOdAaFuMR4qmQ714+/BUNE986jD9/LVVefxf79RVhjzcTHW3n0sZl06dyS7l1zGTioA2/O+JkbJt7XpG6DuXPnkJJSgckkKCutpU3bFnz2yWIWLFrJ3/8+kfLSChb8vJFx4x5odKgRf3Ep9vVrkNLSMMUnIDwePBUnf2iqxx9/nPT0dCZNmhRZdAQej4cXXniJuXM+5auvHycmxtio9UIAaAJPQGNjoRdXQCXepFFV58GgU9AJlfQEM5IskxpnRgvlP1MlPR6fB7Neos6jsb2wmjJngESrCZteIzbGRH65E8VgxG53YTSZSI83oZMEAb+PzKQ43B4Pbk2gyKDXVHQ6PVnJNiRJQtUElT49qG401cfiLQdRNYi1xmA26vB7ffiEQBIq5TVeWmck4lehzO5kWJcsEmMa8y9RKDxYy+DBt/Da9LcYNuy8BoVD/Wuu/tluynPeEL+nS/Szzz7jxRdfZM6cOZhMpsjiM5LFixexY8c2jEYj/fsPIi8v7zef2z+CHj16MGXKlN/s0xjJiewSrampYciQIUyZMoVrrrkmsvi4cblcvP3223z44Yd4vV569uzZoGtPQwEYsiwjDhnlo17s1H+I6vX68HUXIb83TdMQoah4QoOwm81mpJD/m06nC/vJ1bsIaJoW+vAKpsiq357f7w/PJ9SWxccH3Wm0UF7FyH0m9LyXlpaybt069Ho91157Lddff314mKzfw2effcYzzzzDN9980+B5PBn8JolZUVHBq6++yrXXXvubxZrD4WDOnDn07t37d4s1j8fD888/z/fffx9Z1CiKojB69Gjmz59PQUFBgxf9UIQQmEwm/v3vfxMfH88LL7zwh3Zx1D8k115xLZ2tndk4axOutXXc8+d7SUpKPKKdF0KQnZ1NcXExGRkZJCUlNWn/JSTKa8rpNjyZQRe3wGgToNX7KwWp/1MgUVtbR5eubTCZDFRV2kGA0SCTkGQLf42LJt5+khQU1hvW78Dn81NQUIpAQq8zsnH9QeLjE0hLS2ximgYNSW/EFJ+Aq6QEJTY2uD/h4zj29f+tPPzww00SawCKTsFkMoVeWJGlR0FAQBN4nB5S4wxU1FTj9XnokJ2CySDhCfip9ivYPX6W7ihhQ0Ed64s9bCyqYVtBFXvLPZTWuGiXHsvgdumoHje5KXFkxlvo0iKBAa0SSbTAwHbJWE06bBY9ifE2NhU7kM0xLN1eTGmd4KBDY01hDT9tLWJXuYv9VU4W7ypk2b4qlu8oITXBRo9WaWTaDMTqNAZ3zKR7diID27fgrLxm7CuuICvFRvfcJNCaYl2UyN93kKwWLUhOTj7qcGdSKEH0l19+GeyWb+Q5/2/A4XBir60LdmWfcDQ+/fR9Fiz4iJqanZSWruPtt/+PdevW/aZzGwgEqKurw+12Rxb9zxIfH8+ECROYPn36CbGyWSwWbrvtNr788kv+8pe/IEkSW7ZsYevWrYdNmzdvZtOmTYdNGzZsYOPGjYf93rBhA1u3bmX37t3hZbds2cK2bdvYtGlTeN2bN29my5YtFBUVsWvXLnbu3Mn27dvZtGkTO3bsYOfOnWzZsoXNmzcftv365bds2cLu3bvZuXMn27ZtY9u2bRQVFYX3ZcuWLWzfvv2I46hfVpIkbrvtNr7++mtuu+22EyLW6qNXL7vsslMm1vitFrYZM2bw8ccfM3PmzN/cf/vNN9+EUxs05YusoTqHzqusrMRkMhETE9Ng3aNRX/fzzz/HbreHEwU2hfnz5zN16lTeeecdOnToEFl8UmjIwnYoXo8Xo6leAAetRfUcOjRVbGxs+CUghDim8K7Pw9axgwWP10V1tZ0WzVNZtbqScdffhtGgJ+hwHhR2jz48hSuu7sLOHQWkpiWSEGfjwYfeZfT5fejZsw3JSTY+mrmU8ROnkJyYeMR+RjJv3hwSEksoLizGZDKTmprEwkVbmDP3F5599naqq6r57rsVjBs3tVELW6CkhJoNG9G3aIFWU40lMxNH/gGESUdy777heifawnY8aJrKjBnv8PbbLzBv3jNYrYZGLWwAfr+Gx+3DGmPCj8Dl8YEW9AUrtLvw+AWp8THsLKrGagt2idvMOmxGhfIqBwmxNlqlxiAhQn5lQV82SZKRFRlNgCILap1u9Do9imKkTpWorqmiyuHHqDeREGvhQEkJu8vcJFh0eCSFzhk2UuOsgIJeEcSbwOfXcLp9xNliAIEsgdvro87lIzHWgiLXByxEHmUkOv7xxAzWrK3lhRdfIjMj46jLCCFo27YtTz/9NGPHjo0sbhIny8ImQmOi1n9DB38f5UBCBO+II0dkcbvczP7+G0oLtqNpArMthbFjLyc5qemJUwUiFBgSXLfb7ebAwQOsX7eOoqICFJ2G0VhDn95tSE1NZOeO/QRUmZ9/3sPUB57AbLGEfFSP/Cirf9qF0JAkmfz8fL74/guqq6sxmI307dqHswedHYzek4KhM0e9qL+T09nCRqhd+/Of/0x8fDyPP/74b25vj0ZTPtbPdE504GNlZSUPP/wwZWVlvPzyy8fdq/d7OPJpagSfz8dPP/3EoEGDmnTzBAIBVq1axezZs9myZUv4Bpk9e3Y48aQkSdTU1DBnzhzy8/M5cOAA33//PcuWLQubRCVJwu/3s2rVKr777ju2b9+OJAWH41m6dCkFBQVYLJZw3crKSn7++Wd+/PFHampqwvtjt9v55ZdfmDNnTnhoJoB27dqxY8eOo/btN0Tv3r1JSkpi2bJlkUV/GL+KNY54yRmNRvx+P2VlZSiKgtls5sCBA0dNIVJP8BQp7NlQA36JJFs8hdsFQtUjK6EGJiTWADRJ4PNpZKQnoZMkXB43sl6h9KCL0v1OrFYTWjiasHGECJrgY2Ot2Gtc6PTB8Sct5hjsdi8SMmZLYwlWg0gmE56Kcrz2WkRsLL7aOrSSg5jTgkkltSas47dwPCluJEkmMSEeWdZTW+s+4jo2jITX62H/gQO4PB5kDSwGHTEmIwqCZIuBlimxpNoM9MiJp0OyhU4pZtokW8iINdA1J4UMmx6n043PHwwMCAQEdrsLrzeAFgiA5sfvU9GhQxYCSXixSioZVhNtUqxkx0k0Mwbomd2MkZ1S6ZRipl9OEm2axZFgkDBLPjSPB783aAeLsRhwOd0469y43R4UWSLRZsHl8GC3uwioWhOOXaba7kHVBAa94ZjVJUlCDaUbOd0IPjvBZ0kVjYs1QmdGCuXSc3vc7D+wj5LSUt58azp7tnzPiIGJjD63GfGWYt558xXqjuPdFiS47pqaat5//y1++H4mK1d/z5atv3DwwBaKCiv5ZclmfD4fbreXdu1bENDqqKkJDrd2zIsRus+Liot44f0XKVSKMLYyIrLg+w0/MGf+HKT6KOZG1vPfTFJSEk888QRlZWXcfPPNLF26tMnvkaagKMp//XSiCAQC/PLLL9x8880cOHCAJ5544pSKNfgNFrbi4mJGjhzJSy+91GhIrMPh4PXXX6d58+Z07NgxPFZYr169uP766/noo4+w2WwIIfj000+RJIkvvviCa665hlatWvHEE09w8803M2jQIOrq6nj22Wdp0aIFPXv25PPPP+eiiy7C5XJRVFTEihUrmDJlCmlpadTU1DBz5kx69uxJaWkpmzZt4sEHH2T79u289957YQfFPXv2MGbMGKxWK4WFhTzzzDPcfffdNG/ePPJQjsrf/vY3qqur+fe//31KQvUbs7A1Rr14btasWTjoYPz48ccctkTTVD58732KN5XTrp+eWKuVXT/F4DP6GXX5UFp2DvrwOSo9KDqZp56bygWjO6CqKi63A0uMieeenc2FfxrC8LMHYU3UeHn610yc+ACJSY2n9Zg3bw6xsYXk79vHoME9KDhYzvLle1i0eD3XXTeajHQri5dsYPSoxhPnCgFV8+fj278ffYwJ1efH2Lw58UOHIgQIKdgEnmgL22OPPUZ6ejo333xzZNERaJrGli1bue22m5j8lz9xyaXDmpSLTQiZstJSFMVAckoCAhUhJHbt2E+sLY7UtARkRcLv81FUWEFZWTWdu7bCZDIT8HvZsmUPeoNE+3atQJJwOX1s376L3Lwc4uNjkCTwePzs3HmA+AQrLbLSAIn8fQcoKi6neYt0WjQPzqupqaW62k16WiImsx6BIH9fEdVVtXTs3BqjQY/P52P3rn04nR4ymqeSmZGGEDL78wsoKS2nc5e2obFEj9VAmZky5WV273Hx1ow3iU849jPRqlUrnnzySa644orIoiZxoi1sh/YGrN+4iU3LF+F1OmnRtjNDhp7bqLtIaWkpc+fOYcvW9ezatZPszDQqayv52+SRZLVMRlb0SJrGyx8uo1fPS+jdu1fkKhqk3sInhOCrr7+guHgtrVpl0CIrgcpKJ2vX7kTWyRQeLKPnWe3IaZFOj56tePSxd7hx0mM0b55xiC0tct2ErWYfz5pJgbmIlu1zSMhKYPUva0hPzWDNp2t4/J6/Y4u1HWUtJ4bT3cJWT0FBAS+88AI//PAD2dnZjBgxIjzwepSTT1FREfPmzSM/P58RI0bwl7/85bh0woniuAXbzp07GTBgAKtWrSInJyeyOIwIRZGuW7eOF154AZPJxN///neqq6u57bbbuPXWW/n+++/DjoezZ89GlmU+/vjj8LAUY8eOZcKECVx44YU8/fTT7NmzhxdffBGj0cgTTzxBXV0dgwcPRpZlPvroI5577jmSk5PZvHkzU6dO5YknnqC2tpa9e/cyduxYJk+eTG5uLnfccQfr1q2jrKyMsWPHotfrqaqq4rnnnmPSpEnHPK5IXnvtNRYtWsT06dNPSN94Y/wewVZ/qXfs2EFBQQGKotCpU6dG++A1TePdt98mzm8gp6eCvboO14E4CutquOCiS0hrmczu1QVs/q4EOWBiScGH3PHoQGqqXMQlmHH7nTz4wDtceuFQ/jT0XArLC/joiwXcP+VxrLb6c3b0V3IwD1sJHrebPbvLGTCwPd/OXsXCxat55ZV72L5tF9//sJobJjzcaJeoEBqaz49vzx5w1kGMFVObNqDTBfOB1VssTrBgu/rqq2nZsiVPPvlkZNERCKFxsKCAq668mnHX9ueWWy8BmubbE0yzAYoSjKIF8Ho0Aqofk8WIJMkIzY8vICFpGgaDDkmWUQMqHq8fk9GATicDwdQcbrcHRVEwGoMfI0JAIBD0rTMaFUAEB5oXAllRUGQZAWiqhtfrw2jUISsKEhAICLweH0azDkXWBVOKqAFkKejkLMtSKH2Ihs/rRadXQtbfo7+ifD74y+RXsMXk8NhjjxJjjTlmA5+Tk8NTTz3FVVddFVnUJE6WYFuzdg3fTn+a7FgTHlXC4bCTOXAsV1x7fX1g8xGUlVfw3P89ydkDMkmNkcgvrmb1xoPktsnDXpjP7ZNGEPD7sCTE8+E3a8jKHMrgwcc3bmJVVRWff/EOCQlOkhITOOecHhQXVrF4yXpiYuLYs3sfHbvkghqge49WvPTiN9ww8RGaN888apcohxz3jDffQOqkYIjVUVtTixpQ6darO7Oe/ITHJz9OYnLC0XTfCeFMEWz1bNiwgdmzZzN//nz27NnTRL/dKL+XvLw8RowYwahRo+jWrVtk8Smj4afpGAgRzOfUmI9YZWUl33zzDcOGDcNkMiGEoKamBkVRwsKh/l+9Xs/YsWNZvnw5Z511FvHx8ezatYuamhq6detGVVUVs2bN4sorr8RoNBIIBCgsLMRsNjN69GhWrlxJ7969w1ainJwc8vLyGDt2LM899xzDhw/n4MGDbNq0ibZt27Jq1Sq8Xi+jR48OW8VkWUZRlOM2N//e0OBTiSRJSJJEu3btOO+88zjnnHNISUkJX4ejIQQoeoE+rQp7bQ06o0ZqFx+S1UNydgKSJJHVthkJzWORjAGSdS1xlVpJjWuBSUvC6xSoQrBpYwGzv/uFL2f/wgUXXI3V9msAQmNoqoLdXkdiogFHnQskBb83wM4dB0lMTMIWE4csNX4thCQhG42YO3TA3KsP5g4dkXT6YKMggkLlZKAcZ76nGEsMBoOROocndH7qlz3WuRLIsoROV19HIBAYTQoxMWYUKZivTZEVTAYFk0lBlgVSKIebNcYYWlYLrQtiYsyYTIbw8y7LAoNBCos1AL1OQa+XCfaOB8dKkBUJi8WEoijhRLo6nSDGakCnKEgIFFnDoFfQ6WQUhWAKXlmg08lYYiyNiDUB6Ni79yCrVm2iT98+wUHrj4GmaXTr1o127dpFFv1hSJKEz+dn8YL5jBzUm27nX83l9/+DUZdcya5tmyksKg7VDL0zARHwojkqWfHzXIb0asbws9Lp3r8TYy/sw1k9cwn43ViSUtmwX6JKS0dYmzU9eCWCYAoYN+eeexZms8LcH1aHrOYKJpMBq1VPm1ZpuD0eKiocofvk16TKR6O++ZBlGQ2NpIxk6iocJKYkYTGF3BvqFz/6ao4gmDAouH3hD6D5g3kMQ7fgGU/Xrl158MEH+emnn9i7dy/5+fns378/Op2kKT8/n/z8fH7++WemTp36h4o1fotgMxqN4UFZj4XT6aSqqorc3FwIRVXs3r2b8847D5Mp+CI/NGzX6XSyd+9eunTpAsCPP/5ITk4OJpOJ7du3Y7PZwpav/fv3c+DAAYYNG0Z5eTnbt2+nY8eO7Ny5k5qaGr744gtuueUWfvzxRwBWrFgBQMuWLcNJcUeMGIHT6cTnC2aR93q9uFyu4+7WdLlcWCyWE9pXfqppTHwrikxycjN2bD1IzQEdkiuZlb/kE2tLRgl1m+hjdPQa24I//bUzls4BtuzZgs4AflVj7txVOOr8dOvbn8SsVlx19S30OZ4BdyUQqHg8fuLibMHfQiBJOqqqnKxfn09mZgfS0tMilzwC+SjeQZIUTL76Gx6JJtOYMK5HkiSMJhP9+/ZlyeI1uN21oVZLNNJ6/VoWtK6FHPcPacR+rVm/rkPXJxpo1erniVAjW7/MofUO3y8JObT+oPD71Vmxvk79vEN+w6+t+KHLNkBwbrCupsn4fWC1xqALPbsNnaF6i84bb7xB9+7dI4v/UAoLC8jOySW770j0SZl4NT3mvJ6cM/JCFi74GerPhhpA8zjwl+zAM2ca2QXz6Jaux+MN+UcKlRZZKUiSjuTUZhRXViFZ46l06JCl+qCG40MKWT8RGjZbfNBSazaFAx18fo2lS7YTHx9P86zkUERq8BkSoqErUX8Bfy2TNSgvKCe3Y0uKC4qprqpGlqRDbocm7neonub149u5C/eKpXiWLcWzfSvC40VI9fkfz3yk0Ag1Op3uCJ+t6HTipvpz3Fgbeao47tYpKSmJ1q1bh0XQ0RqhxMRE+vbtS1FREXa7nTfffJO+fftyzjnnkJ6ejtlsDg+NBLB3716KiorCL9N169YxaNAgVq1aFR5zrKioiJqaGj755BNGjx5N3759KS4uJhAI4PF4sNvtVFdXM3v2bIxGIzExMXTp0oV27dqRkpJCUlISxcXFeDwefvrpJzZu3BjeX5fLhaZpjfqMHIrf72fNmjW0bt36vzYZZ/31HTBgCFZbS+b/sJkP3vqZqmqZs88+Lxx0ICsyMYlmDBYdl151Cbv3V/Duh1/z6VdzKa+SmPrgI1x22eWMGjmavLy8Q7Zw9IY5jBDo9Qpp6SmUlFZiibEgSRoOpw+90pIWWf0Ye/G1x520+VQSCASOo/tCwmgw0LFzJ5Yt34rT6Tmke6kJ5+t/AhlQ2bplH8nJqaSkpBzzpVpfVm9RPtp764/A6XRii49H1yyP+avLeebVH6iukUlPjqe06AAAal01dTsX49ixkIDXjU/TUeZSMWfnYszI4uB+J27NBIqMIsvBxNIINKHhCwT9MsP66TiP3WDQsWrldkqLqxk2/Cz8PoHHEyCo4wROhwNJ1tApuuNdNQACCYPOgN5kQAhBQG28B6dBJAGainfzZrTNmzBU1aCvqYEt2/Ft2giqGn12opzRHLdgs1qtnHXWWfz000/HzJJvs9m455578Pv9LFiwgIEDB3L33XdjNBrR6XRhP7h6rFYrkyZNIiEhAULjqJnNZlq1akX79u3DYbSLFi1iyJAhTJo0CUVRyMnJYcyYMVgsFrp160aLFi2YMmUK27ZtY/ny5VxzzTW0bduW5ORk7rjjDnbs2MGCBQuIj4+nf//+4QjJgwcPkpiYeFii2cbYv38/+/btO25fljOJ+usbFxfH9ZMmcsdjt3LHo7cy+b7JpKalhV63wRQAwf800lLSuOXPdzL8wqsZPeZaHvvbk5xz9tmHtBiHIh/FJvIrsixTV+uhuLiAXr3a4XJ6KCmpoGXLdowcPYbBQ84lNvbIUR1OJyZMmMCYMWMiZx8VvV5HamozZMXIwQNVv+VR/S8laNmp/3v+TytJS21OVlbWUd9F9QghcDiC3XaN1T2VBPdHYe6S/fh8ToYM6siK5dvw7tlAT0MpqqMc2WjElJaHtc0ALC27YzhnPFtMebhkE0XV8WDLptSdjFdVEKGu5eLaAM6ARmqsinqoVes4Dz0Q0MjNzUDTXOzaFfwA1+llhCZhNBo4d1gPqqvrOLC/LCgWjxdJkJCeyN4Ne8nKaUFKSjJaU0e5OAwZ1e5AlBSj6BU0IQCBwWTGd7AQ1e48in09SpQzg+N+uiRJ4vLLL2fXrl38/HPQXN8QQgiaN2/OxRdfzJgxYxg8ePBh1qsxY8awe/duHA4HhLorr7/+epSQj1u/fv246qqraNu2LUIIcnNzufjii7nwwv9n77zjoyjzP/6e2V7Te0IgJBB6B5Gioqiod4pnQz0PLKfeeZ5dz3JWPPX86Z3l7GLDXrArKogKIj1ACAHSe9tNNtvLzO+PLSRLCAlNxX2/XqNknmefnZ2Zneez3+dbft9NaJnNZi644AKOOeYYVCoVCoWCiRMnMmfOHH73u99RUFAQWQ4ZPnw4c+fOZc6cOYwfPz6SBkSWZVatWsWsWbOCuX/6yCuvvEJ8fPxhLU3xcyHLMjqdlsJhwxgxciQmoxEIBOVaaDlRQAj5gUmY48yMGD6SgoIh6Lr5pIR/4QYfpn0hPT2TLVuqiDMnUVZWR0uzBZXCzL333hfqER6rb+P9HJx44olM7tMycPBzyDIMGTKEwqHDefWVT4BwtQO5hxlX6CJ8xdCmCG1d+xwMugqmA6Hrteo6ntCHaxls9/n82Gx+klOSIt/lvRG2qF177bVs3749uvlnR5IgXuzkvDkT+N2s8UwdIuIWBbbJ6SiMKSjUBtQJA1Do4qlpk/lwm4kmRlNUZqC2xcuALJH4pFQkSRXMoydIGAwWjMZmvHJn6MdS+Jz27/oFAhKZ2ckUDstn7eptDByUgVIhIgsSXq+f2ppW1ColBpMGuR/1gcPIQFNNE0qNCktjG063az9mpuA4AY8LvAGQBJR6PYJKi9fnRCQAvr4F7sSI8UtlP74WMHLkSH73u9/x6KOPUllZGd0MIWHXG/n5+YwePZoffvgBX8gxNEz0a6P/7i+9vV6SJL799lvS0tL6OKEGee+991iyZAk33XTTPieLI4Gu5zD42BeCgiAytwbbg932fr7DbcH5M/zvPSfnrvsKCwuJj8+nusZOm8VDaWk7J570B9LTwzlwhC7br53g5xBCNf0G5Oayq6IRry+c1qO7RTJ8LSoqmvjpx12sWbODok2VLP9mC+vW7QiJNrnbNQrS0zkLPw667u/6bznKoTy6T0/W0uj3Cf1b7iomo6+/EghGjO5JeKdI2a5GVq/ayvEnHN+HXILBcjhLly5l06ZN0c0/O4LkYfIQPeuKV/H2F++gyx+CIX8iLjn4A9Lrk6hqdrFpVyd1Vg+rtgWo6sgkPk5PXpaWbdUerO1tKBXBerUKZNKN8Zg0Wux+V/Cs92jh3jdKpcjOHbWU7WrkuBPGUl/Xhs/nD15RWWb9uh2kpaaQkR72Yesfggx6tZZhRw2j3dZOu6UdoQ8BRNEIgCbOjKwK3vN+lxvZ70epUiOJgObIKAcW47dL/78VoSWqP//5z2i1Wv72t79RVVUV3aVPzJkzB4PBgMPhiG46bHg8Hvx+P2effTaKPgYOvPvuu1x33XX86U9/YubMmdHNRzx+n49Vq1ZRWlq6l+WlrhN0kMrKKj744AM2b95MfX19t9cIgsCnn37KmjVrWL58ORs2bMDpdPLVV1+xbt063n//fbJz8hgz5kTMppHMnn0eR0/rPQfgL42dO3dSW1sbvbtXVCo1p556CttLqiktLQfUofMamhRlEBBoqLeyuaiMxBQz//3Pu/z4Yyk/rSlm8eKvQoJNBCHs+xYWVmHxFd4XHjf8/677o/uF/46enANdBF3X9uj3Dc3SkXtk9zg+n0TRpgo62t17SWexO5nqxk1l6PVmcrKz+2wZV6lUPdyvPz+yqKZC9FHSvJPy5jKWV+5ie0uAJlcadg/YXX6qmz3Iokxemo7fT1KQp15JQVozekMHstKCSd+CUgwgh65Ek82GzenErNZ0CejoP6Io0tFhx+fzkJgYB4IcXLKUBQRRYOLkobQ0t9DU2IIo9v99ZAGUehU7N+4gPSOdpOQkZLl/ljpJkqiqruadTz5lh9MFPj+Sx0fA48HvcKEamI9oNvdwz8aI8ethvwQbQFpaGo8++ihGo5EzzzyTDz74YA9L2b4wGAzMmDEjUsT150Cn0zF79uw+5VBrbW3ljjvu4M477+TGG2/kuuuui+5yRPPuu++yfPlyAD766COKi4uju+yVqqoqNm7ciN1u59Zbb8VisQC7LWmPPfYY27ZtY/v27Xz++ef4fD6WLl1KQkICJSXbqCgrZ/y4iZx00qkU7CM57i+Rxx57jMWLF0fv7hWVSsHw4cPR6+JZ81NpdDMIIqBkW/EuJk4cQt6gNDxuD4Pykvjz5b/j2mv/ALIvNEd1FWXhyTBsEQsuwe7uQ0joBSOAdxPcF9xCQjDyt4AsB7fuy7FBYbZ2TRl19daQ9Sws5qTIWLIcHEupVPL2m9+yvaQ21Dea8Ot0vPLqJ0ycNKlP/mtd6cmi+3MTEGFXQwMnTzmVv571VzxtCqrqO4iLU6NVQ4JZxbTh8YzLM2PQusjOaiYh2UGNtZVKSwPDMsyodSo8kj+Y8NYPlTvqqNhaT8AJiPv/mX0+P2PGDiYzM54vPl1LSko8Gq0ahGAambS0eJwuD3aHu1/XIYyAgFfyYWtuR6FSolKro4Oa94nD4eDSSy/jv489RvzE8SiOPgp/Xi7+vEEopkxBN3I4ohhShzFi/ErZb8EGkJuby7PPPsu5557LDTfcwB/+8AfeeustKisrsVqtdHR0YLPZfrVbR0cHzc3NFBcXs3DhQk455RSWLVvGI488wlVXXYUgRE9oRy5+v58nnniCsrIyVCoVWq02UposXO6qaw677777jpUrV9LU1ERTUxMtLS0Rv8bx48fz+uuv89Zbb0XOn8/nw+fzoVQq0Wg0wfxMkoTBYECr1ZGUHAoG+ZWebovFgq2fpYEUimDgwbQZM1jywbf4/eEfRGGRJSHLPo6fPYms7Ay2bN5FYmI8EycOJzHRzIABacG8VIKEPxCgo8MTEkaEvvoKOtrdeDw+BEHG7fbh8fjwegO0W51IUgBBCEenKuns9NDZ6UIGfD4PLpcPSRKw2RxIobqQgqCgo92O1xsAFPj9UN/YwZtvLKOqqjEkDFX4fDIdHR4kSUAmgCDIeDwSFksnW4q348ffy+NJQ1FRMTt3NnL0tKMxGIz9Egr9Td1zWJCV6G0mLOUNWJpaGacPMDNPh8FXjzJU9k3CR6e3k3pHE59VfkxLdgdtshuDUo3N6cTpckYSuYjIjBmRT1qyieqa+qBtsx/nKBqvN4Ct009qahxtLZ0RcS5JMt98VURqSgq5uZkE9idYQJaQXQHGHT+R+rp6WhqbEELR533B7XazefNmzjv3bK666i8MyhuMkJmFYfwEDOPHo8zNBYVi9++WGDF+pfS70kFXws78ANu2bWPx4sX88MMPtLW1MWDAAERR/FULGlEUsdlstLa2UlhYyOzZszn33HMjkaxdP//h4kAqHRwI27dv5+9//ztXXnklqampLFq0iAkTJjBx4kTKy8v59NNPufXWWxk6dCiEKkB8//33nHHGGYiiSElJCaWlpZx++ukolUra29tJSUlh9uzZqNXqSDBJcnIyO3fuZNasWRQVFTFo0CC2bdvGlClTOPnkk7tYZ/r+QN8fDnalgz/+8Y/k5uZy333hQIm+4XK7efedd3jkkft59rkbmDRxKMgSCIHQORBZv34nRqOKH1dt54Ml3/Le+/+irrYZtVpFRkYi9Q0Wln27iSSzibLyOk49bTJJSXF8tXQTJqMOhahg0pQCvvxyPatWbWLSpGG4nD5kwcull56J2+3k62VFEBAI+GVmzBxB6c4KPvxgNaNG5REIBK0sx80azUdLVqLTaqmubWDY8ByGDM1l0aLP+fjDVfztqtM56+xjqa1rZ93aUhLi4xAUAWbPnkDJ9irW/lSKzx9g+fK1PPG/64k3h8tS7f6OBe11GhYuXMQrr3zPhx8tYXDeIFSq3n3YCC2bPfXUU5x55plkZARrx/aXg13pAKC4uJjaxkZGDE5n28pv6VDGMXZiLp1uBV8t/ZYbr70Fu6uTHa07cPs9pJpTWVe7geLVP3HNObMx6DX8VLSNgoFZNNW0sHFTDXFxcfh9DgqHDsAcb2Ddmm1kZM1m5oz+uRI0NTXz8ccvk54eQKc1ctysMVSUNbCxqJSEhFR27NxFQryJ7MwUxk8s4N8Pvc0ll95JdnYWcrh2fDTBiwjAi4teQCqUiUuNIyDKNFY3MGLMCD56ZAn3XHMvCYkJQYfXHgcCq9VKSUkJiYmJuxMiy4RcAIKvCc5AwR85QrDocYRfW6WDGL9tDkiw9URraystLS2UlpbuM7nuLx1RFMnMzCQ3N5e0tLRfRJ6vn0uwPf/887S1tTF//nw8Hg+PP/4406dPZ8qUKfj9fjweD2lpaZGl5ZdeeomGhgauu+46nE4nNTU1fPzxx9x2222Ul5dTVVXFcccdhyRJWK1Wvv/+eyZMmADATTfdxPHHH8/48eP59ttvOe644ygtLWXatGnk5OREHdmh4WALtgsuuIDc3Fzuv//+6KZekSSJkpLtXHvddUyZnMHdd88P+QmFLV8qrr/+SUwmLQqFSF1dI1dceSZFm3YxZ85kUlKS+ecdzzN0+ABOPnEKt932DDfddAGvv/4VddUWzpl3LJ02B6NGDWTN2hJeeulT7r3nz1jbHbzy0ie89vpCPvnke1599Ssuv+J3NDdZmD5tFJXVDdx99wv86aLfMfXoEXR0OKiqaGDDhh3cdvsCnnjiA0aOzGb27Kl89PEPbFy/k5tvvggEFwvmP8hxx01m6NAc3G4X48bnc8P1T3LrbX9ky+YyVv+0jf/85xrA14NJVaC11cFxx/6N08+4kGuv+TuJSfH75aS+PxwqwVbTVIshx4C3tp0BWUPY2FaEHy+V2yv5+0XXopKVdPo6Maj0aJU6WtotvLroSeaeXkhdXTNp6YmAkuaWZkpLmjHHxVFcvJ0pU4Zx3HFj+eD978jKPp4Z+yHY3n//RU45ZTC11c2ICjVJyQZKS6vQ6ZIor6zgpNkT2Fy0i8Jhg3jzjeUsuPiOfgk2eZhE0uBUtn67hfwxQ8gfMoiXbn+Je6+7r1fBVl1dTV1dHYMGDSI9fd9Js3siJthi/Jo46IItxqHl5xBsVquVZ599lnnz5jFgwAAA7rvvPmbPns2UKVMi1R668vzzz7Nx40YWLFjAgw8+yPTp0yktLeX222/n3//+Nzqdjvvvvx+3282XX36JwWAgEAjw3nvvodFoOO2006ioqKCtrY3JkydTWVnJ9OnTGTZsWLf3OVQcbMF2zTXXkJOTw/XXXx/dtE/aLB28+MKzvLH4Bd58658MGTqgm+Vp69Ya6mpbyB6Qgsvlod3qYNiwLLKyUnC5Atx041M89O8r2L69mvfe/44777iUP82/l1tuuYDkZAM+v4/UVDOVFe28+uoX3H//5Tz04GukZSRx9FEjWPFdMVqtitmzx+JyOzEZ9CCoue/el7jz7j8RH2dCkn1cdskDzL/0D0wcN4i/X/0YJ885ihNPPIrbb3+CUaOHcN45J7F+/SZuu+0FPljyMH6fl9TUBD79/Dvuuedl1q55lScffxOj2cRFF52IIAQjHoPLv+FKC1r+97/3ePzxT3nmmeeYMmVSv5JdHyiHTLA119Cp85NvHEB+7mDeXfU1qXEGytaXcPVf/xYpxh4WO06nm+df+A8nzs6mtKSSWSdMp62tnerqGnbubMFkNuFydjByRC4pqQmsWlVCVtaxzJjRv1qiTU3NvPvucyxYMIXKiibKy+oZOy6fos2laDRJlO4sJSs9ibg4HRMmFvLoIx9wyaXBWqJ70Vl7CDZpmIQuwYAgy7Q2Wxg+tpAPH17CPdd0F2xdVzS2bt2K1WplzJgxmM3m7uP3g1+DYAtP0V1Xc7xeL5WVlbhcrsO+yvNbIXzedTodAwYM6Pad/bmICbZfGYdbsMmyzJo1a2hoaGDixInIsozX6+V///sf06dPZ9KkSTzxxBMMGzaMiy66KPLwePjhh7Hb7dx5553MmTOHyy67jLq6OvLz81m0aBEPPPBApOKBLMt4PB7eeust2tra+POf/4xGo6G1tZVXXnmFzMxMZs6cidlsjixHH2oOtmBrbGxErVbv10Pc7fGxdetGrrziKk48aTgL7/sr4OxiZQsvE4cc/WUhFIXpxx8Q+e+jH/C7047mqafexWjWc+89V/LPu57n2JmjyR2Yzo7SWqYcVcirr35Ou9XBP+9cwF+vepiZx0whI9WIy+2nuqqV448fT319KyajBmt7O0s+WM1/HrsKQQggywr+9+RHJCSb0Cjg/Q9WcuYfZnHC7LE8+MCbTJw4HLNRybgJw7jrzhf4+9Vn02HrwOn0otYoePbZj/nrX+fx6sufkZAUz7x5x1BQkBkSpuFHlJpdZXWcc/YdHH/86Vxzzd/JyEhHFPsW3S3LMuXl5eTk5Ox3tOihEmyNzbXIiQXs3FZOqs5JyqBxmJUOli39hOuuvSEo2OTgtZVFcDqcPPf8f5g3byRKhZrlyzYxesxAbLZ2iorqiIuLw2gUyR+cgdcXYEvRLjKzT9gvC9tHH73EoIFKlEot48fn09RkZfPWUuLMqdTUVjN61GCGDxuITq/lrjtf4tLL7uqfYBsK8enxmNPiWPfdGkaNHc3Sp7/knr/fs4eFzev1snbtWuLi4hg2bFifI/v3xq9BsIVxu92sXr2axYsXs2HDBhT7Ufs6Rv8Jn+fRo0czf/58pk6dus80QoeKmGD7lXG4BZskSTQ2NiIIAjU1Nfj9fvx+P6+++ioTJkxgzJgxyLJMamoqeXl5kQLnDz74IKIocuONN3Leeefx1FNPsXz5cp544gkuvPBCLr74Ygg9gOvq6nj00UcBGDZsGOnp6QwYMIAPPviAoUOHcv/992MymbjuuusO2oN1XxxswXYgyJKE1drBS6+8zMMPPcg7797FtGmjAE8XwSaGxA2hLFwSAmDv9OF0+yjb2cgHS37g9NMnMW3aGPx+mW+Xr0cQZMZPKCAhIY6167aQlpbIgOwMNm4upcPq5dhjxyLLAdZt2ElTfSvDh+eRNzid8rJqXC6JESOzQxOqkk6bi6VfrSYtLR6/XyA5KY6RowZTuqOGmqoWpk0fgU6noa6+mQ1rS0lMjmPs+CEYdHp27qyjpbmV9Iw0qqvrmTgxL7S8LnWJJlVz2+3P8NXSbfzfw48wYeJ49Pq+uSnIoXJUY8eO5b///S/HHXdcdJc+cagEW119PVNnTOOjT74lPVFDVl4WAa/E0o8/59rrr98tziMWNifPPvdfzj13BI5OF9XVTWRmJdPR0UFxcRNGo5HKqnJmzBjD8GED+fyz1WRlz9ovC9uSJYsYNzYep9PL0KE5WCwd7NhZg8mUSn1DDcfPGkNWVgYgcNc/F3Hpn/sp2IZBQk4CjZWNJKYkMLggj5f/+Qr3XRu2sAX7d3R0sHHjRjIyMiK+sn2ny5t24dci2MrLy7n77rtZtmwZxx57LCeccAJDhgzpczqbGPuP3+9n165dLFu2jBUrVjBt2jT++c9/UlBQEN31kBMTbL8yDrdg2xv33nsvJ554IlOmTIluQpZlHnvsMYYMGUJubi7/+Mc/+PDDD/n000+55ZZbePHFF5k0aRK7du3C4/GgVCq57LLLuPbaa1EoFFRVVVFQUMDjjz/OK6+8wn//+19Gjx7NscceS3JycvTbHRIOtmDraVmjP3g8XsrKdnHPPfexa9d63n77fvLyMkJ+XntDybJv1tHS6iAhQc+mTTuYf/EppCbHh8RdMEEt+EOCQBWa2KQuKTXC4yu7iMKwZY8uIpGIqOqei83fJc2HN7Q/GHUabA+PH04ZIoX+HVwODU76MqDk3fdWcMP1T3HNNdczb948UlJSIj8Q+srgwYO57777mDdvXnRTnzhkgq2xHl2mllRlMpkZWXy95WuSNams+24d115zTbdxAJxOF8+/8F+OPz6Dkm3lnHrqLDptLkp37GLHjiaSkpLQGySOPWYiarWSxYuXMmDA/lnY3n33ef74xwm0trTR1uqgYGg2K1duRKNOpr6hmuNPGENWZibAflnY/IUSI6aOwOl2olQr0Yt6Xrn9Ze4L+7CFLNQ7d+4kPz+/l4CR4HcssnwcQQi2yYQsz7vvmV+yYAsvARcVFXHzzTeTmJjIzTffzKhRo/p938c4OGzdupWFCxfS0tLCQw891O9nwIESu+ox9onb7cZut+NwOHA4HLS3t2O32+no6IjsW7duHd988w2yLNPW1obP5yMpKYlHHnmEwsJCVq9ezfbt27n88st5/PHH+eKLL/jqq68wm80MHToUtVrNjh07qK2tRZZlFAoFHR0dbN26lYaGBkaMGEFycnJE+Pza6JrDbn9Qq1VkZWVx2WWXoNen87erH2X79qqQQArnRAsLo/AmMPXo4Rx77BiGDMnib387g9RwepTIhLY7bcfupUexi2UrPJbcRZx1fWx0fT+xi/iTQq8JL1kF03zsFmZh4RfeR5eZPHxMwRqboOH997/njtte4He/m8uJJ55IfHz8fk1aQqjiwS8NURSxB+xsrdpC8bZtKFRKdBotQuh+7+mulySJuLg4CvLz2LRxB21tFhTKkJ8bMhq1OrR0I+9lhL4jSX7yBmcxaUoh8fHxyHJQGAUkmarKFjo67F1+APSXoKBSaVUIIhGxJQrBLANFRUVUVFQwcuTIXsQakXGCpe4F/H4Jvz98H4YP7Zd37feGIAg0Nzdz6623UlhYyNNPP82YMWN+kffvb4WRI0fy3HPPMXHiRG6//fZ+J0M/UGJXPkav+P1+vvzyS15++WVef/11Fi9ezFtvvYVKpWLLli28/vrrvP7663z66aesWrWKtrY2Vq9ezcyZM5k0aRLXXHMNkydPpry8nAsvvJCrrrqK8847j4ceeog33ngj8vBJT09nxIgRFBYWkp+fj1arZfz48eTk5DBlypRI9On+Wqh+bj788EOWLVsWvbvPCIKA0Whk5MhR3HDj9bhdWs49+5+8tOhTdu1qoqKyiYqKxu5bZT1NzXY8Hh+iQklzs52KyrrgVtFERWVU/1/YVlnZzKoft3L5nxdyzd//y7HHnsj8+X8iJyen3z4k4SVRSZJ+maLfLzN18FRGFI4mb1AeJ4yehVljDhUw3wuygFKpYPSYbAYPTiG/IBONWhWxMAUtkwIghiRQL2PtE7GLkAcQEEVwOrx02tysX7cdi6VtvyodBEWWAgUiAmKweL0C3B4P6zesR5ZkJkyYsG//1dDH83oDbN1i5/PPXHz6qYNNm+x4vKHj7u18/gJ58cUX8fv93HHHHQcUXBHj4GE0Grn55ptRKBQsWrTosD5PYkuivzIO95Jo2CzfVzweD21tbWRkZCAIAg6HA0mSMJlM3fpVVVWxfft2pk6ditlsprq6ulvGervdjizLe7zucHGwl0T3Nw9bND6fn5bWZjZu2MR7777LsuXL0OvVKJXCHlncZQHE0CwmyUJweUoIXVNZRBQkpF9y5ncBLG0daDQG/vSnBZz2uzkMzM0lPiFhv6wMsiwzZcoU7r77bubMmRPd3CcO2ZJofS0nnHBiMBrS70OhVFFWVsaHHy7huuuu3218DOF0unj22Uc579wRpGckhyybKtav38ymjfUkJSXRZmli6tQRDB06gLffWkZ2znHMmNG/UnrhJdELLxxHXJwev9+LUmnkk0++RaNJpKq6klPnHMWGjdspKBjAW2+u6HdaD6kQskdmUbG1grSB6QzIyOb5257n9OlnMjB3AMOGFe5loCjk4P28caODsjIBo1mLIAp0Wt0MGigzYZI2dN/sHuuXvCRqsViYMmUKDz30EHPnzo1ujvEz88knn3DnnXfy2WefkZYWrmt9aIkJtl8Zv3TB1pWeXhu+3aL3742exjgc/FIFG4Df58ditVBbV0Np6U6Ki4txu1yR9sgXWhZDf4VnyNB5FKRQIXA5WuP9YhBC90haWirDh48gL28wGRnpmM3m/b4fZFmmpKSEwsLC/RJ8HFLBVs/xs05AoRBwu11otTrKdpXx4Ud9EWyJoWusYv36TWza1IDZZMbn76QgPwtznJGNG3eSldX/oIPm5hbeffd5zjprJK3NNlwuJylpSRQVlaLTJbJzRzmJiSaysxMZP6GQhx58i0svu5OsrKBP274I5mET0Jk1aE16KkrLGTV+FG/96y2uvuBqxowdE3ZkjH5pD8hYrX6+W+FFFNXIkoQgCogKEY/TzvEnGIhL6F7l4pcs2F588UVeeOEFPv744wMeq79IkoQkSZGghqKiIvLy8jCZTLjdbjQaTbfvodfrRalURpLlO51OdDodoihGnPbj4uIiS9pVVVVYrVZGjhzZY+CE3+/vtt/n81FVVUV6enpktcVqtdLS0kJ+fv5+f58PhJaWFs477zwuu+yyg3b/7IuYYPuVsXjxYp544gm++uqrPtU/jbF/eL1e5s+fz4wZM7jyyiujm/vNueeey6BBg3jggQeim/aLQCCA0+mis9OGw+HA7w/0u2D2Lx2FqEClVmEymTCZTHtMEj8Hh0yw1dUxe/YJWCwW7HYHmZmZ1NTUsGTJkh5rFocF27x5o0hK1NPUbCUpKZ7i4jI2baolLi4epdLL0KEDUKpENqzbwYDcE5k6dWr0UD2yfft20tPTcTicfP75YgbkiCiVWiZMzKe2ro3tJTuJj89kZ+kOVFoNo0flM27cIO6793Uu+tMtpKamgCCgEEXE0KZQKBBFEbfLTUVFBYPyBrH4jcXIw8CYZEBr1lNWvJMRY0bw2eOfcu819xEXH9cvwdbY6OXHH72ICg0ajQIpEMDjCRDw+zlmppaUtF+PYLv66qtpaGjgnXfeiW465Pj9fpYuXUpaWhrjx4/nkksu4a9//StqtZq33nqL6667rtvn++abb6iurmbixIk0NTWxdu1aLr74YtLS0vB4PNx1112MGDGCCy+8EIC33nqLH374gYceeghRFNmyZQsKhQJBELBarZSVlTFv3rxIsvry8nJuuukmbrnlFvR6PQqFgp9++olt27Zx3XXXUVJSQnp6+n5ED+8/kiRx2WWXYTabI1kODjWHX5bGOCD0ej319fVUV1dDl19Cse3gbQBlZWVUV1cfNL+R4447jkmTJkXv3m8UCgUmk5GMjAwGDRpEfv5gCgoKjqhtcP5gBg4cSHJyMlqt9mcXa4cSQRBwuz1s3ryF2tpaampqIvfi3hAE8Hr8rFu3i5rqZqoqWvB6AwhCcPl78+YqmpttDByYjc8vU1xczMaNG1m/fgMbNuzeioqK2LJlC9u2baOkpIRdu3Zx/fU3cOKJJ7Fs2TJkGQbkpqFWKyivqMfv96FUaZCRUalEjjl2BC0tzVRVNqBUijQ2NrFhw0bWrV3H+vXr2LhxI0VFRWzevJmSkhJ+/PFHTjvtNG655WbqausQRAFDkoHN320iKyeL5KQUpMDu72LfEYCgj6JWp8Tj8uPzyBiMGgQxWPv0wPz4Di82m61H69PhQKlUYjAYWLx4MXa7HUKBMcuWLSM7OzuSmzNMdXU1lZWVZGdnEx8fj8fjobOzk5deeonm5mb0en23gBGv14vRaMThcNDR0UF8fDzp6emkpaUxePBgpk2b1u1HzRdffIEoimzfvp21a9fy/fffU1VVhc/n45tvvmHZsmXs2rUr0v9wIIoiKpWK1tbW6KZDRszC9iujtbWVK6+8kp07dxIXF7cfD7UY+0IQBDo6OigsLOS///3vfpe96Up/l4JjHFzkUMDB22+/zSmnnLLf7gSHysLW0NDAqFGj8Hq9pKSkUFFRgSzLfPnll1x77bXdxiGc1uP5/3LssWmUbNvF3DNPwd7ppri4hJ27mjAaTNQ1NDBqVC5DCgawcuUW1OqRTJs2Db8/EDFYhV0ORFEMCT0BhULBu+++R05ONoMG5bF8+QdcNH8CLY1W6uvbGT5iEKt+3IRGG8+Okl2MHpuPz+th5IhBPP30J8yffzsZmen4AwGkQCBy7iVJQghFPr7z9juc9rvTWPHdCnST9KjNarwON4GAxLCxw3h74dvcd+19xCfE98PCBo2NLlat8mEyG7G1exAEAXO8mnari5kzNKSmhaOUg/ySLWwLFizA5XLx5ptvRjcdUn788UeWLl2KUqmkuroap9PJ+vXrmTlzJnq9nvT0dNatW8epp57Kn/70JwAWLVrEzp07ueKKK6ioqOD777/nvPPO4+9//ztPP/00ixcv5qijjmL8+PF8/PHHfPvttzQ2NlJQUMCJJ54YqhPdHa/Xi1qtZtOmTXz44YecfPLJfPHFF5x00kk0NTWRk5NDTU0N69ev59Zbb/1ZLPBXXHEFLpeLl19+ObrpkBATbL9CvF4vq1atwmKxHPYb9LdCXFwckydPxmg0/mx+dDEOPgMHDuSBBx7Y7wn6UAm2uro6Zs2axZo1a3C73YwePRqbzdZtSdThcKBSqVCr1ZEl0fMvGIvD3sGOHfXkZGdis1sp3tpAQnwiyckqcnKTcTo8bN1SQXbOiUybdnSXI9o3LS2tvP/B84wfn0hzQyfZOckEJD9V1Q2YTClUllXgdPk4etpIJk4s5K47X+TSy+4mO7tvPmyLXnoR/xCJlKxkzJnxrFy6kjFjR7Hkvx9y0Zw/MmHCeEz9sHI3Nrr58UcvgqBBr1chBQK4PT4CfpkZM7QhwbabmGDrTvQPy/fee48tW7ZQVFTE6aefjslkIj8/n5EjR3arMvHOO++wdOlSUlNTyc7OxuFwcOaZZ3L99dfzwgsv8OyzzzJ58mRmzZqFLMvceOONWCwW/u///o+ioiLUajUOhwOv10tCQkJkBenMM8/kyy+/ZNKkSZjNZhYvXsynn35KQkICN9xwA0lJSXz33XecccYZ/Y4cPxjEBFuMGEcgVqsVpVL5s0W9xgiSn5/PwoULOffcc6Ob+sS+BFtLSws2m43c3Nw9lrN6E2z19fUce+yxbNy4EY/HQ2FhIZ2dnd0EW2dnJ0qlEp1OtzvoYN5onPZOqqqbGTQwh5bWZrZsqSfeHE99Qx2TJo9kyJB0vvhiNdnZs/crce5HH73EkAItCoWGYcOzaW5up6Skgvj4FHaUljNyVBYej8yIEQN59pnPuPiS/tYSlTGkGmmpbMYQZ6RwbCGL73yNi0+/mEDAj8lsIjMzi/j4+OiR9qCxyc2Pq7yo1ToCAQlBBlEp4nZ5mTFdS2p6TLD1Ba/Xy4oVKyKf59///jcLFizAZrPx6quvkp2dzY033ohOp8Pj8dDa2kplZSUvvPAC999/P36/H5/Px7XXXsuLL77Is88+y5QpUzjuuOOwWq2cddZZ+Hw+zjnnHMaPH09iYiJff/01W7Zs4eqrr0an06FUKsnMzESSJNRqNWVlZbzxxhvk5+czZ84cXnrpJQBmzJjB4MGDEUURg8EQsRQfDg63YIv5sMWIcRh4+OGHefXVV6N3x/iVsrdf80VFRZx33nlce+21fPDBB1it1kibStXd4b0rgiBgs9lITEyksLCQ1tZWvF5vt4lHr9d3K3QviiJtrRY2btzBmDGF6HR6PB4/ICPJEp2dTjptdhRKEeRw8uP+4/X6GTuugIQEI5s27CIxwYhGowz6hAmQnpFKwO/H7fJ1D2XtIzIyGq0aj8eLRqtBpVAiCgIFBUMYM3YsWo2WkpISNm7ciNPpjH55d+SglUijVSL5QZYF9AYVciSZ8570dl36i1qtPmxi4VBht9v5+uuv8Xq9XH755ZFggIEDBzJjxgxuv/129Hp9xHerpKSETZs2sX79eurq6li+fDn33nsvRUVFPUZvbt++HZPJxPDhw2lubkapVPL2228jimIkxZNCoWDAgAEolUqUSiVr1qzhjTfeQKPRkJubS0lJCRqNBpVKxaOPPsoVV1zBypUr4Qh3O9nzbMaIEeOgU1FRQU1NTfTuGIeJ8EKC3+8/4ILZgiCwdu1aVq1atce2bt06Nm/eHKmZe9JJJ3HHHXewfPlyiouL9zqZyLKMVqultbWVxsZGtFotSqUyctyEAk26ToCyLGM2G8jKSqaqqh6rtSM4vgyCIDJ+wlAys03U1bYgHMCTXhQF2tsdNDa2ISPT1GhFkoLnUBRgxTebSUw0kzswDXk/fGoFGUS/kjHHjKG6upqm+kYEUUCSAmi1WvIGD2bixInEx8ezZs0aNm/evPdrKAQ3lyOAWqNEpQaHPejL1rO5L1hu6Mcff9zjWu7PFl7S3tt1/qXj9/v59ttv8Xq95OTkUFVVxRdffMGGDRsoLi5m27ZtdHZ2otVqefzxx/F6vRQUFDBlyhS0Wi2jRo1i4sSJqNVqdDoddrs94mctCAIul4vy8nKmTZtGcnIyt912G+vXr0ej0UTKDg4ePJhHH32Uuro6nE4nX3/9NbW1tZxxxhlcfPHFNDU1IYoiZ5xxBgkJCcydO5c//elPjBs3rkeBeCRxZH+6GDF+ISgUim4+HzEOP4FAgEmTJjFy5Mjopj4jhJzy77//fv7617/yl7/8JbL99a9/5ZlnnomICafTydq1a7nvvvu45JJLeOaZZ3qdUAwGA2azmdbWVtLT03vtS0TkaRhckE1ri5WERAM6XbDSATLYbA5kSYVWpwHk/bB9BVGplBRtKkWjVTPr+ImY4+LweAIggM8nYYrXIQFut2+voqg3BATaOtporWlFr9ehNxq6GwNlGZVKxaBBg5g6dWok5URtbS1+f7Dm7O6+BHMMCgFEhYwky/h9geBU10PSQUEQeO6557jqqqu6Xcv92a666iruvfdeOjo69nntfqmIokhmZmZkKdLr9bJmzRqmT5/OBx98QEVFBZIkceyxx7JgwQII3bfJyckUFxdzyimnRKK6ExISmD17NjqdLjK21WolNzc3kiS9vb2dqqqqiCXP7/czZMgQ4uLieP7555EkicmTJ3PmmWeyfft2iouLUavVLFmyBKVSyaeffkpqaionn3zyYUte+3Py67yrYsT4lRELXPh5EUKRkG+88QajR4+Obu4zsizj9/t56aWXWLly5R7bv/71r4gwz8rK4owzzuD5559nxYoV/Otf/9qrZUgQBOx2OxaLBY1GQ21t7V77hhFFEbvdxYZ1JRiNBqwWF26XF1EIvn/RpnIaGzvIzk4BWdjPBdFgdY2x4wrR6/Ss31CCw9mJRqNClkCpEjnqqGG0tbZTW9u6X0JFFiA1M4myol2kZ6QTZ45DlvY8WlmW0Wg0jB8/nilTplBbW8uGDRtoaGjAZrPh8/kQFQpkQKNV4nX7QQJznBZkKVT4fc8xFy5cyPfff7/Htezv9sMPP/Dqq6+SnJy8z2v3S0UQBMaPH8/kyZMZO3YsNpsNg8HAtddeyznnnMOyZcuoqKggNTWVnJycyPVetmwZKpWKsWPHUlJSgt1uJzc3l2uuuQalUonL5cLv95ORkcH06dPx+/34/X5Wr17N73//+1B92mA0MSG/NIfDgVKpjPguDhw4kKVLl2IymXA6nWzbto1Zs2Zx9NFH09LS0s0afaTS/29XjBgx+k30claMw48gCHsEAuwver0evV6PwWCIbHq9nuTkZGbPns3999/PBx98wMsvv8wll1xCTk5ON/+znvB6vSQnJ5Ofn48kSQQCwZxqveHxeJERKRw2EKNRhySBHMpFNrQwG4NBpKa6OeS/1vtYe0OSJOLijfgDHtotdkxmA+Fb2S9JbN1SRXy8ifSM+P1KMyTIAi6bm4LxBTQ1NtPe0Y7QQ03SruciMTGRo446itzcXJqbm7nrrru49dZbsdvtiIKASqnAHKfFYNSgEMMF2npGq9XucS33ZwuP8Wv/nns8Hurq6vjoo48oKSnh0ksvJTk5mUmTJnH66afz4YcfctFFF7Fo0SL8fj87d+5kx44dXH755dTV1fHEE0+QnJxMcnIyVquVDz74gG+//RZDKCCAkLXb4/EwZMgQjj76aHbu3Mknn3wSuX+mTZvG1VdfjVqtZsuWLawK1alOT0/H5XIxe/ZsfvzxR+Li4vj444+59tprqaioiPokRx6/7jsrRoxfCfPnz+e0006L3h3jMOPxeKJ37Rd7+zU/depUXnnlFf7xj39EUhGE2dtrCLXFx8fj9XrZtm0bGRkZqNXqXl8jSRKJiWbGjMln08ZSRKUfrU6NLIOoEMjOTiU1NRG32xsSa3sfqzc0GhVrftqCzeZg7LgCvB5we3yREmeNDa0YDQZMRlOvx9sbbocHc7IZp8uFx+Xps7ZMS0tj6NChmM1mNm5cz7vvfoAkBX3rEIJWteAR7X3A/T3mnjiYY/0cCIJAW1sb9fX1TJgwgUsvvbRb9YCZM2fy+OOPc9tttzFnzhy0Wi1arZY//vGPFBQUMGrUKP72t7/xl7/8BYVCQWpqKqNHj2bBggWMGTMmMs7YsWM5/fTTGTZsGAAJCQkcffTRXHLJJQDodDqys7MRRZGcnBzy8/MZP3488+bNY9y4cUyaNIlzzjmHo446ilGjRnHDDTdEfOCOZGKCLUaMw8DBrnQQo3+El1suvvhitmzZEt180DAYDPuVzkEQgg7f1dXVtLe3Y7FYorv0gIwsi1RXNdPc0kp9rTVklRORJVixfAPlZc3k5wdTbOwvgYBEclICcfEJOBxuWtvaUAhKBEREUcFRU0dQW9tERWUdCkX/pxRJkIlPjWPd0nWkpqaQnJaC1MOS6N7QarXcddddfPDBEk468UQkKRD04wuJNCEYOtqraIsBdXV1bN26lZaWFrRaLe3t7ZSUlLBly5ZuW3l5OUlJSXg8HrZs2UJHRwcVFRWRdrPZTFtbW+RvWZaZNGkSO3fujOxTKBQkJSVF/m5sbGT69OmoVKo93q+2tpbm5maampoiy996vZ5BgwaRlZVFXl4eY8eOPWhVaX7JxPKwxYgR4zdDbm4uDzzwAPPmzYtu6hP7ysPWG73lYWtoaGTs2DH4fF4SE5Oorq7B5/P2WunghReClQ7Ky+r43enHYm1zs21bCbt2NWMyxdPUVM/4CUMZOjSbpV+uISv7hP3Kw/buu8+z4OLJbN9eQ11NA9NmjuXHVVvQaBLYuaOCo48uxGKxMXRoNs8/9yUXX3JH//KwFUJibhKNFXXoDHqGjCjkjXsWc++195KQmBAUWz0OtBs55CPa0uLnh+8dmExm3K5gdKjeoMZicYQS53ZfEv+t52Hz+/18/fXXLFmyhKKiIlpaWjAYDD0u34elQtel6a7yYV/L9+FrtL9IkhTJRZibm8sJJ5zAOeecQ3Z2dnTXw0YsD1uMGEcgGzdupLS0NHp3jMOMSqX6ZfoYyRJGo4GamlpKSkrQ67VoNL0viQYCMomJ8QzOz2Zz0XZstnZUagWSHJw8hxbmEh+vo6GhhQPJ66FUilSU19PSYCEtPZWmBgt+nxS0XIkSq1YWE2c2k5mZvl8+bACeTjeDRxVQX1dPW0tbjz5svRHxjZICIAg4XV4UKgWiQqCzs+9LrL8l6uvruemmm/jnP/+JVqvlvvvu44cffmD58uUsXbp0j23ZsmV77Pvmm2/22NfT9tVXX/H111/vsb8/21dffcUPP/zAu+++y9y5c1mxYgWXXHIJX375ZfRHO2LZ/29xjBgx+swzzzzD+++/H707xmFGluVeRdDPhSzLaFRq3C43dbV1aLWaPglLjUaDwaClsqIJr9cXjFANiZOKygbsdg8pqYkh97X9+9yiKNLQ0EZcQhwjRgzA75Px+wOAQCAgMzAvHbvdjtVq2y8LiizIBAQ/ZZt3YY4zE5do6jFKdN/IkeS4giDg9wdFLYIQSumxP2MemXR0dHDzzTdTVFTEo48+yn/+8x+OP/540tPTSUxMJD4+vttmMBhobm7GZDJF9plMJjo6OkhISCAhIWGP13TdRFHE6XTusb8/W0JCAikpKQwbNozLLruMl156ieOOO45bb72VL774IvojHpHs+4kQI0aMA6azsxO73R69O8ZhJOzHdrAiRQ8qokBHp43cgTlMmDSODpsDt6d7pYNoRFGgtdlCSUkZR00dj9kUh8fjA1kEBKyWTqSAhMloDFYl2E/B4vP5GT9+CCaTlvXrtpOcEo9aqwBZRqlUMGr0YLw+H5ZWG2Ivx9sbCYnxODodpKQmo9caQj5o+4EsIEugNyqR/BJSQMZk1oTGi013hJYWn3zySWpqanjqqaeYNm1adJc9aG9v5/rrr+8mjN577z1uu+22bs81WZYpLS2NJNmtra2FUJT8PffcQ0lJCYRcC3r74eRyufZprU1ISOCWW25hwYIFXH/99Wzbti26yxFH7A6OEeMwIIpir5NvjENL2LJ2/fXXM3PmzOjmnx1BCKbjaGu24ndK+L3eYDqKXiY1AIVKgV5nQJJ8eEMRsIIgIUkSAwak4fN7KC+vRhAPTLBIkky71UogoMDpdCGE/Mp8Pj8/fLeFpMQEcnLTugcL9PF2F2QBa3MHuSMGUllRTWtrC2I/l0SDBKsZCGKw0oEgyCCAy+VDQAhZ33o/n78FysrKePrpp/nHP/7BkCFDopt7RKMJWnxzc3MjQurHH39k0qRJGI1GnE4nTqcTQRD4/PPPefrpp7n99ttZsmQJixYt4vXXXyc3N5evv/6au+66i88++6zHiG2LxcIDDzzAf/7zn30KtjCXX345gwYN4rHHHotuOuLY/29wjBgx+owkBXNjxfh5EEKJc6+66ipSU1Ojm38BiPitIqU/1vLlOz/irJNCCXD3LlwkSSIhIY6CIYNYs3ozAdmLThf0e1MoRAwGHQmJiWg1apD3P5GrWq1iw/oSArKCiZOH4PUEQjVLQaEQUYjBNCJCVAqN4H/3fc8LIZElygIKUUQh9lyVYN/IwU2WkQKg1SlRqkQ8Ln+XZdEYL774IiNHjuTYY4+NbtqDlpYWVq5cybp163A4HGzYsIHXXnuNDRs20NTURE5ODqtWreLpp5/m3XffhVDUbkFBAWPHjmXu3LmcdNJJ1NXVcdZZZ6FQKFAqlZxyyil0dnZ2e6+wBbyqqqrXMm7RqFQqrrvuOr7//nuqq6ujm48oYoItRozDQEJCAnFxcdG7Y8QAQAFsX1NJUnYcQyfk0G5x4LZ7eg2OFIRg+au62mYyszLxesHj8SEggiyzo7QSh8NNzoB0ZHn/H/V+f4BBeVlodVp2llajUIFSpYRQ1N+IUYOorW2ktqYlKL76INK6IhEgLiWOypJKUjNTSUiMR5b7Zl3pTrCOqoyAWividPjxeyVMZk0o0jTU5zfO1q1bGTt2bI+RoGHCPy5FUcRoNJKUlIRarSYhIYFJkyZRXV3NwIEDmT59OuvXryc5OZlZs2ZBaPmzpqaGGTNmYLPZKCsrIzMzkx07diDLMtOmTeOzzz7jhx9+6GZFEwSB5ORkJk6c2G+3hZEjR5KRkcHmzZujm44o9v9bHCNGjD5z++23R5JCHira29spLi5my5YtbN269Ve5bdmyJfJgP9hIksTq1av3rD/5C0CSIGVQHANGZDJx2ljShhtQaHoXF4Ig0tnppLW1lbHjh2A2GQn4gxOgJAdzwjmdTpqb2/oUwLA3AoEA2dlpIPhpaOggMSkOpUKBLAj4/RLlu+owGfXoDTo6bG50Bn30EL0iosDWZsdkNtLe0o7D4eqzdaU7ckiQBf8vCxIBSUKWg8vNwVxsB/+++jUhSVJQZI8YEd20B7Isk5SUxKhRo8jPz0ev15Obm0thYSE+nw+n04nBYKCxsZH8/PxIeg1JktDr9ZGyVl9++SVKpRJJkhg0aBAffvgh7e3tzJo1q8fr3NO+fZGamkpcXBzbt2+PbjqiiOVhixHjV055eTn//ve/WbNmDX6/H/kA8x393IiiiFar5eyzz+bSSy89aAkxJUli3LhxPPTQQ5x00knRzX3ikOVhq2tg1qyZfLN8OW6Xh1FDx+KVvHzy+cdcd13Pediee+4Rzps3CluHi9Lt5eQXZNFpc7N5SzWJCUkkJqsZmJuCy+Vj06ZdZGXNYsaMGdFD9UpTUzMffriIMWPicbrcDByQid3poWxXFSZjChU1FQwbksOgQQP47ruNBPwDmHf+H7v4oPXgOxfWVeE8bENlzOlmEjMTWbNsDSNHj+Sr55Zyz9/7noctiExjo4dVq7woVVq0WgUBv4TH7ScgScyYriU1LVhnNcxvLQ+bLMucdtppzJo1i+uvvz66uUe++OILvvnmG+rq6khISEAURebOncvWrVs58cQTef7551mwYEFEBD711FOYzWYsFgu5ubl8//33TJkyhcLCQmRZ5u233yYrK4srrrgi+q0gtGT73Xff8cILL0Tq8u4Lj8fD2Wefzemnn37Ifxh35XDnYYsJthgxfsW8+eab3HbbbUybNo3f/e53ZOfk7LHo02V+/FUgSRJr1qzh1VdfJTc3l4cffpi8vLzobv0iLGLz8vJYuHDhLy9xbk0DQweMotZaiSz5MXqy8OvsfLvmK6679trdViMAZFxOF88++x/mzRuNx+OjYlcT6ZlxdNja2bqlHrM5gdbWRsaMziOvIJPl3xSRmX0sM/dTsI0YbkKp1JKXl4q13cGWrbtIiEuhaPNOrBYHickpJCXmcc4554WW2qRgtGpPN16UYAsMlzAmG2lrtKDSqRg5ajiv3/MG9117X1Cw9eMObgoJNpVGixyQEAQQFAJulzck2H67iXPD34Hzzz8frVbLiy++GN2lR1577TWampq4/vrrefPNN3n33Xd58cUX2bp1K0uXLkUQBK6//nqMRiOEBFu4UoJKpaK4uJgRI0aQm5uLKIp8+umnjBo1iiuvvDL6rWA/BVtxcTHz58/n2WefZdy4cdHNh4zDLdj2304eI0aMPvPuu++ybNmy6N0HxMcff8wDDzzAX/7yF1588UXOPvtsph51FEdFbT3t+yVvRx99NNdccw0ffPA+okLBFVdcQX19PXTxrekvYYujKIoHtDx4qFAIAhVbazEZzQwfMYyW1jYs9Q5UsrbbKl7XdBcKUaC1zUpxyU7Gjs9DrdXj9vhBAAUCOsFMTspgUpNSkQ4g6MDnCzB6zGB0OhXr1m4nPk6HVqNEkmXizUmceNKFnHP2lfzxj3/q4he1F7GGjCyES0UREqECOr0Br8MDkoygUCILXa91jwP1goRWqyTgC+D3yeh0qgMqzXWkEP4OnHXWWaxZs4by8vLoLj0iimLkuqpUKgYMGIDZbGb06NF88sknpKWlRcRauH95eTmbNm1iwIABGAwGtFot77zzDtXV1RQUFKBUKqmqqurx+yzLMkqlsl/f0w8//BCDwdCt7umRSN/PSIwYMfab9957j6+//jp6936zfft27rvvPs455xyuu+66iJOuJEvIkowsyUiSjCQHfXckWQq2hdolKYAUCBCQJQJyMA2EHAj+v9dNDvsFSchSIPTADabMkMPvI0nB95aCUV/BLbDnWNGbHMybJUkysiwxYEAuTzz+OLIs8/DDD8N++rd0JRAIEAjsv3g5VMgCJGcmUF9by/bS7SQP1KJARaBFjc8VwOP0Ym20IXkl5AA4Ojz4AwEMBh2JCXGUbK+g025DqVAGc64pZDJz4zGaNNjbJAQxmJ8s9G7d33wfiKKAxWLH5fJiMuux2ZxIkowogEqlJC9vEJmZ6f0bN3QdpYCEEiXuDhd5owfT2thGe4sVsWtEZz+GlQnqO7fLj0avRqUScdi9obc7sHvnSOGUU06JpMHoSTBFI4oiO3bsYMWKFaxfvx632w3A8uXLSUlJYdWqVd2c/QOBALm5uVx99dV4PB6mT59OZmYmjY2NBAIBxo4diyzLbNiwASkqdUdbWxsrV65kx44d7Nq1q1vb3igqKmLRokX8+c9/Rq/vn//kr42YYIsR4zDQ31+MPRF+uPr9fp555hmys7P529/+hiB0icuTweP1UFZRRntHO21tFnbV1VHd0ExDQyM1jc20WixY29uxtlnoaAv+32K10Gq1YLHs3qxWK/X1dTQ3NdBubcNqbaO1pYW62mosViuWdhvrS8soKqumoaWZpuYmLBZLsK+lNfR/KxarlTaLhdbWVqxWK9bQ2LW1tTQ1NQX3Wa1YLG1YLK04nY6gMJMhPT2dBx98kMWLFx9QpQg5lDIgPT2djIyM6OafFUmSCCBRMDmHhJR43B4vOfmZ5I5NwGfqQKkV8XkDlG9sZO0HO6ne1shPr1fg2GbApE1gRGE+BlUG2anpqNUCICEi4neB3y3gcfupqbGRnJwcesf+CRelUsH2kkpkZKYcNQqFUovX68Pl8eDzhfKdQb/HBcjNHUD5ljLcbiftbVaS0hKp3FVJnDYeo8EAITHbZ2QZEJEkOXg0okwgICHLQijydH+iT48stFot99xzD6tWreLRRx/F5/NFd+lGIBAgMTGRYcOGMXr0aAYPHsz777/P1q1bWbRoEZMnT+aCCy7g8dCPK0mSUCgUTJgwgZNPPplTTz2VadOmYTabGTlyJNOnT+eiiy7i1FNP3WPJ02AwcMstt/D000/3Kf1OcXExl19+OXPnzuXcc8+Nbj7iOLAZJEaMGIeNsHVp/fr1fPnll1x11VWYTKZgG0GxJooiHq8Hu8uNpNHR7JZo90K7K0CtPUCbX0GbV8aj1qNLiEdrNpGcnExyUiIpycnBf4e2pKQksrOzSc/IJCEpBXNCMubEFMxJqXgVGqqsdoxJiehMZho6vdTYvAhaExpjPCpjHFqjmaTkJJKTkkhJTiY1NZWkpCSSQmPn5OSQkZFBUlISiUlJJCQkIWv0CCp18MOEJurx48dz6aWX8sgjj+yRu6k/yLLMCy+8wHHHHdcny8LhQqFQIAUkWustOJ12zGYzOzc00FJnRZegRRAFDHE6JswZwsTfFaASVDiavCT6Cyj7QcZWryM1yQxOM5IvuFRZW9tIeUUzZdX1LHrjA5LihzJ8eGE/zFXBfkqlEp9PZkjhQHxeD99/twFZdmMw6Fm7ZhttFi8pKanB/n0aWmB34g+ZY485Fq1Fw/YfS6jcWkNrRStlK3Zx7unnotZqABmhzyJLQqEMvoNOp8QXskaazVokyYdCIe+XqDwSGTduHAsXLmTRokXceOONbNu2rcdEtgCZmZlMnTqV1NRUTjvtNKZOnUpGRgb/+Mc/SE9P56qrruLuu+9m7NixCIJARkYGOTk5AJhMJlQqFTqdjvj4eFJSUlCpVGi1WtRqdfRbodVqGTJkCMOHD+81DVJbWxtvvvkmCxYsYMyYMdx55517iL8jkVjQQYwYh4F58+YxcOBA/vWvf0U39Qufz8cVV1xBIBBg0aJF3ZcI5eCSaHHJNtpsDnIGDSbJpMeo1RKQAvhkUIoijVYbVpcHgyo4fyWZ4jBq1EELhCCgVCgQQlOby+PHJwWwe7w4XW78CPgCAYw6DaLfT256CiLgdLuRRQV2lwefz483IOP0uEgwGUg2G5GR8Xr9yJKEUa9DkmQcHk9wOpaD+cM8fh8t9k4SdToGZ6R2m1rr6uqYM2cOt9xyC+eff36Xlr4jH4To2UMRdNBh62DxosUkSAMonJJHTkEq6z7dxfrSFfzuvJMYPSa4hCQggACuTjftTQ6++OYj8gYJ5A/IJzlHgeQxsrZoDZ9+sRIwMmTICNxeD4MHFXDSSXP6aQkLSSoZlix5n47OIs468xi0WjU2Wyf33fcyVVV2br7pn0yeMiUk2ILH1xeC0in4X4/bw2dffEpdUz0GnYHjjzueATkDkAl95lC/fSPjdkusXuWms1OFMU4FgN0WQKN1MHOmEa32tx0lGs2GDRt47LHH2LZtG4WFhQwdOpTs7GxUquC5I2RhI7Q0Kssyfr8fnU5HIBB0iRAEAaVSGWkLBAIIgtBNQPn9ftrb20lISDggYWW1WikrK2PHjh10dHQwb948Lr744m7fp8PJ4Q46iAm2GDEOAy+99BIpKSmceuqp0U39oqioiDlz5vDmm2/utcRSq6WNpsYmhg8bFhEocig1QugvvH4JvywhI9DY1o7bL2HQa3G63ajVauSARKfDTpzJiBSQMei1aEVAENGqVahEAVW3B2/XSVXGJ4PTF6CuzYrfL6PTqIKO73LQatPe3oleo0ZUCui0auL1OhQhZ2NZktCoVaHRdk/UCxcuZMOGDbzwwgvEx8dH9veF8GOu6/nYH/F2KAQboWjftV9to2DgEIYencn677bhlNv5xx03d5s8u1JaWsrHnyxi+qRCkswZOLx2Xnj1Pdosfu695z4GD+5b2aG9EzxnNpudJR++ja2jAoVCwm4L4JOMzDn5d4wbNzb6RT8fMiDItLT62FrkxtIaFBEJSTIjx2hITVUgREWu/tYFGwSTL69fv54ffviBuro6LBYLbrd7v74fvSGK4h4+a/1BEATi4+Mxm82MHz+eY445JmLJ+7mICbYYMY5ApFDCygN9CP7973+nuLiYjz/+GJ1OF9kflks+nw+73Y7L5SI9PT3S7vP5UCgViAIIIWNIQAKFGPT3cXjcqNQqAgEZu9OFgIhSKSBKAVRqDTqdBiUyPr9Ep72ThPiEoAiS6Ra5GPY9C+lDAkCLtRO9ToVKIaJUqemw2/F6fSjkACajAb1WF7KjBAMORIUCMeSX1/Vsbd68mQsuuIBFixYxceLELi19Q5IkHnnkEebNm0dmZuZ+XYtDJdj8Pj/ffP0N69ZsQB+nIyE+ntNOO62L31nP7Cgt5dPP3kUQAoiiikF5I5k8eQppqaFlSuijdao7uwVtyBYmyVRVV+FwuEhIiCMzMzPS1+fz4fP5enT4lmWZQCCwR+Z6SZIO2KdzTwIRLx+vT8LWLiELMmaTiEajRJYlBKH7e/7WBVtPP1wcDscvMrk0gF6v3+sPmJ+DmGCLESNGj7S2tnLmmWdyyimncMstt0Q3Q2jpQQ5IqNTqbkIqiBSc0MJKSA6qNylUGgnC+7usbsmRzsgQXKQKz+O9SQJZAEHabSUTILTi2u09QEaWw5a/3YTrUgqhCViWZTweD5dffjk5OTncd999Ua/oG3l5eTz44IOcffbZ0U194lAJtjBevwePyxvxTeyN3UuG0GmzoTMYUEasnnu9Mt0m6c8//5zq6mouvfRSHA5HJEnxI488QkJCAgvmLwBBprmlGWtbO3HxJmy2Tqqra5g+bRpanQ6r1cqNN97ICSecEBE+H330EfX19SgUCsrKyrj66qt58803yc3NpaKiAq/Xy0033bSHkDsw9rYsG/KvE+Q93LZ/64KtKy6XC6vVisvl+sUKNp1Oh9FoPOBze7CICbYYMY5AOjo6UCgU3fIV9ZcPP/yQG2+8kTVr1ux1SVCSw8Wvg34nu+VWWHKFpnhZRg7VfQw+AISIOAvO5RIgEAj5/itCFi85lL4jaB3ZPZ5MUIyFnyZBURA8AlkWI5JPECJHEFweEQBBjPgzgYwgihE/l8gibkhk/N///R+rV6/m+eef79UpeW/k5+ezcOHC/Y4oO1SCTSa4PB08U8G/w2J1b4QldPAs7aFS9orb7Wbp0qVMmDCBFStWIIoiY8aM4eGHH+a2224jISGBhQvvRxRlHnoomE7lww8/5KfVP3HC7BOoqqripzU/cdONN9Le3kF2djZ//OMfI6IN4LnnniM3N5ekpCRefPFF7rjjDp577jn+8pe/UFRUxHfffcddd90VdWQHiBz6T+RUhAVaeIoL/72bmGCDXbt2sWTJEtasWYPFYvnFWtgEQUCn06HX6xk0aBBnnHEG06dP79Gye7iICbYYMY5A7rnnHjIzM7n00kujm/pEIBDg7rvvZvv27bz99tvRzREkScLj8dLY0IgpORmVEMyN5vX5MWg0tHt8BPwBEvRaZEFGDOkkhaAgIAV2SyQhaJVwedwolApARBBFRFnG6/Wh12tDOd8E/AEJtVqJ2+tFFBWoQ87JYVNcRDBKEn5JRlQqEGQZq82GyWBArVYiSGGDn4xSpUSr0UVydXVl8+bN/OlPf2LRokWMHdt//6lfqmDbk7CAPfhIksQ777xDUVER48aNQxAEtmzZwtixY/F4PCgUCrZuLUatVnHbbbcBsGTJh7S3Wzn33HMpLd3B0qVfctJJJ3HFFVfw7LPP8s9//pPrrrsuUvrqmWeewW63Ex8fT01NDRdddBFPP/00xx9/PKWlpTidzr1aiQ8nv2XB5vF4eOWVV3jjjTdITEzk6KOPZtSoUQwcOLDPIkgQhIh/6KFGkiQaGhooKytj/fr1/PTTTwwdOpSbbrqJIUMO1F9z/zjcgq33n3AxYsQ4KGzfvr3PmcV7orOzk++++47jjz8+ugnCgggQBRGvP0Cr083Gxk7KO73UuSUaOn34RCU2tw+ry4tGrwOFAlmtQW800u5yo9cbMZmMaE0GNHojokaHW1TRKSkpb2unrLWDjoBIRYebOocfldaIXVBQ2mRFUKoIKFS0uQPoTEYMZiN6oxGDyYCs1lDV7sLmlXH6JSosnexq91LrEXCo9aDRoTEYQavDiQKlWoMsgNRDOof09HRSU1PZsmVLdFOf8Hg8B+T4fPg4NGItzOzZs5kyZQqSJFFdXc2kSZPIyspClmV0Oh0KRUh0h2hpaWbnzp2sWLGCHTtKcblcyLJMe3t7j75oOTk5jBkzhhNOOAGj0chrr73G9OnTqaioiFS02FsaiRiHHkmSePjhh3n88cdZsGABixYt4rrrrmP27NkUFBSQlZXVpy0zM3OPfYdqy8nJYfLkycybN4+HH36Yp556ikAgwF/+8hfKysqiP+IRyZ7ftBgxYhx0FApFjxNbX6mvr8fn8/UaFSWEHsTbd5TicDlJi9PTZLERr1Ji1KrZ2WQl3qAjPz2RitpmdtS3U9nSTrPDTb07wPfbK6i1dLCzoZU1O6spbWylU5axOZwkxMWTmJCIpdOFUa/D5vKwsrSCsrpW4s0m1lQ1YAvIqJUCm8pqWb+zlkprJ20uL7tq63EiU9fpQmPUkRlvptkSjBKtq2/kwxXr2VrfyvZaC2UtViydbgTkHh9OqampjB8/nk8//TS6aZ9IksTvf//7flvGjjTq6+t58sknaWhoYOnSpezYsYPi4mI++OADmpube/QrKygo4OSTT+btt99m5syZ3HTTTWg0mh4DaWpra8nOzmbQoEG43W62bt1KQUEB2dnZeL1eDAYD69at48svv+z2uhiHj9dee40333yTxx9/nD/+8Y/79JlsaWnhL3/5CytXrozs+/HHH7n66qtxuVzd+nZ0dOD1evH7/ZGkvHV1ddx6663U1NQA4PV6u71mfxg5ciRPPPEEQ4YM4c9//jMWiyW6yxFHT8/EGDFiHGQkSTqgpYN169ah0WiYOnVqdBNEVjBlBFFg+JAhxOm0DE81c0xhNpkJRganxTFuQAqpJgNGjQazWcuAJBOqQIAtO6vJiDcyODON6tZW4jVqRmYmkZcax+B4E8OyUhicHMfAeB0js5MYmh7HyMwEjhqczaTBGeSnJzApN5NElYoUkx6DUolOp6Gxvo66lnZEhYbRmSkMzUjEpFKRFmdkwsAUhiYbGTcggzmTR6EUITtOw+BkM/WtrUihGpO7/Y92ExcXF4mE7SthH7gnn3zyiK83uC+ysrK44447uOKKKzj55JM566yzuPnmm7nllltISkrawwJptVoZNWoUCQkJ6HQ6vF4vL7/8MlVVVT2Ku7APVF1dHffccw9HHXUUI0eOZOfOnXR0dNDU1MRJJ53EhAkTol8a4zDQ0tLCI488wpVXXskxxxwT3dwjGo2GioqKbhGan332GWazGZ1OhxyqcECoDN/dd9/N9ddfz+uvv87XX3/Npk2bsFgsfPHFFyxevJg333xzDwurLMusWLGCv//979x2223s2LGjW3tPGAwG7rnnHhwOB88880x08xFHTLDFiHEY0Ov1ffBb6hlJkrBYLOh0uh6zg4cJ2zkEQK9S0tbchK2thebGRmrr6mltaaG1pZnGxiZEjxtcDuLUMoPjdAi2dlSeTjL0OiS3E7fTgcvWSX1VDY11DTQ1NdHc1ExzYxMVFVW0W6w42tvpaGuhpakZu6UNv6ODTmsbiXqRJKXEgDgDycoAKRqB9pZmnJY22ltbaWhsAK+LproGmpobkVx2TH4neF242jvQyAFEOexNt+fS4O9//3uqq6u71S/sC9GWoN8qJSUlfPTRR3z++ed8/PHHrF27lk8++YTnn38eq9UasQSHz1d7ezsVFRWsXLkSj8dDeXk533//PU6nE7/fv4fAy8/PR5Zlvv76a8aPH8+kSZMYOnQoU6dOJSEhgVdeeYVvvvmG6urqSF3KGIePt99+G71ezwUXXBDdtAednZ2UlZVRV1eHWq3GYrHwzTffUFVVRWVlJdOnT6e2tpZPPvkkUivZ5XKRmJiILMuMHj2ahIQE1q1bxxVXXIHX62X9+vVMmTJljx+wxcXFbNiwgXHjxlFcXMzNN9/cJ6tZcnIyV111Fe+88w6tra3RzUcUMcEWI8Zh4JJLLmHu3LnRu/uE3W5n27ZtTJgwAY1GE90cJBgpAIBOryM3dwBGowmTKR6zOY6kxCTizHGYzSbMcWZMZjNGs5H4+Dgy0lKIjzdjNJtJS4wnId6MyWTCbDSSmppKQmICJpMZs9lMfHw8GWnpmI0mjGYTJpOZuNB4JpMJkykOo8FInMlEclIiSfEJxMcF2+Li4zGZzZjNcRiNBlLTUklOTEJvMJCanILZZCY5KZFB2VmhkNPoDxkkJyeHtrY2Ghsbo5t6RZZl3G73HhPFb4309HRGjx5Neno6fr+fyZMnM3bsWC688EISExMjgi18ngYNGsTEiRPZvn07p512GpMmTWLkyJGkpaWRl5cXsbAIgkAgEOCnn37ipZdeQhRFEhIS+N///kd5eTkvvPAC+fn51NXV8c033yBJ0i8qp9Zvha+++oqJEyf2Kcq6vb2dLVu2sH37dmw2G+Xl5dhsNjZs2EBCQgIGg4FXX32VTZs2RX5MqlQq2tvbOe6441Cr1fj9fhQKBRUVFbS1tTFt2jRWrlzJJ5980k3s6/V65s+fz/z581m4cGG/vuPhaNHi4uLopiOKmGCLEeMwEF4W2h86OzvZunUro0aN6nEJqivhiVOr1WIwGNDr9VFbcJ9Bb8BgMKLXGdDrdej1Box6feTfwb46DEZD93EMegxGA3pDMLxebzBi0OsxGKLex2BApzegC/1tMBgwGPTBvno9Or0eo9EY2h8+pmA/jTZUS3QvCIJAXFxcv+uKyrLMhRdeyIYNG6KbflMkJiYycOBAmpubGTduHMceeyzZ2dmkpaVx2mmnRZbJugrbXbt2UVtby0knnURzczPt7e3k5+fz0ksvkZSUhBxK96JQKBg9ejRjxoxh9uzZHHXUUWRmZqJUKtHpdJx88slMmjSJs88+m2nTph1QmaIY/UeSJPx+P2PGjIlu2gNZlsnOzuaMM85gzpw5pKamMnPmTObOnYsgCIiiyOTJk5EkiWOOOYZjjz028lqn0xmsG5yURElJCUOGDEGtVjNhwgRqamqQZZmpU6dGrLiyLJOXl0dCQgKElmALCwv3mTg6zMCBA0lJSaGoqCi66YgiJthixPiF43A4kGW5z0uqHo+HyspKAoEAXr8Pn9+Hw+HA4/VGstL7vF48Hg9eny9Yx9Pnx2rrYFttI3aXE5fbg9/no7XNQmdnZ+R1LpeT5uZG/H4PPq8Xu8eP1+PB22Vsr9eLx+vF6/Xh9nrw+LzYHS521dXTbrPh9vqw+3w0NTfTabPh9/vx+324PV6cbg8Bvx+QkSO1L7tjMBiYN28e7733XqTO4b4ITzDr1q3rk2/MkUhYVPn9frZt20ZpaSkLFizoJpocDgffffcdy5cvj1jaLBYLr7/+OldeeSWrVq3irrvuoqOjg+TkZMxmM7t27aKlpSUy+RqNRgKBAJ999hkffvghXq8XQRDYtWsXzzzzDJs2berzdYtxcOmPW0A4oGTDhg18+eWXGI1GVq9ezcsvv4wkSSQnJ9PS0kJTU1O3/JKSJDFixAjWr19PZWUl69evx+12k5qaSkpKClVVVXR0dJCVlRU5nujjWrNmDSeddBKpqand9u+N8I+L6HGONGKCLUaMXu05B4cff/xxv1NRtLe3o1arI78+e0MURVxuN23tNgII2J0ebG4/PoUajVqNSqVCqVTilUU6XG7qOpxsa+mgusNBmcWF0+NnS10L9Q4X9R0uVBodWoMBlAoEUcSPAmNCEk6fTKfHx87mVjr9Mi63B5vThUqlQhZFajsceASBna02ihva6fQH8CnV+AUFHlFBp0/ClJCApFDikQVsHj8OWaLV5cWPGFre7fnhKwgCOTk5FBUVRaLQ+opSqTygaN1fM+EJuKKigtbWVi699NI9LBjp6enEx8eTlJTECSecgN/vZ/v27ZxxxhnMmjWLoUOHkpCQwEUXXYRCocBisbB69Wry8vLIy8uLjFNQUMCFF14YcQUwGAxccMEFzJ8/n3/84x97rYMb49AihAq1b9q0Kbppr5SUlLBixQr++te/0tTUxNtvv82UKVMYN24cX3/9NWazuVv0uizLmEwmkpOT2bhxI3QpX+bxeBAEAYPB0OUdulNUVEQgEOD3v/99dNNeqaqqoqWlpU+Ww18zv80nV4xDghz+T0j9yAQTr7bbOrBYLVisFqzt1p93s1qCW+hvuz1oPQpLg93Z4w8uzz//PEuWLIne3SeKi4vR6XSMGjUquikKGVmSqW9spsPtod3txe71sbOpg801TRTXNVPVaqXN6WVrTTNFdVZ2tXQSkAK4Ou1kJJgYMyibtMQ4bJ12bG4POxuaKWuysqW6ico2GyWNbVS2tFPdYqGpoxOzSklFYytNDh8N1k7abJ1UNFlp7nDQZLWjVqlRq1Q4fX4GpiUjIVNe20h1bQO1FhstdjdFFfVsrGqmucOBUpBos9lCEaJ7J2yh6a9gixH0AZw5cyb6HpKjiqLIpEmTeOWVV5gyZQqiKDJx4kRGjx4NoQjTf/3rX5Fo5fT0dK688kqefPLJbvVFZ86cSWFhIampqRx11FGkpaVx3HHHodFomDFjBoMHD470jXF4mT17Nhs2bMBqtUY39YgoigwaNIjx48dTWFjI4MGDycrKYvLkybz22mukpaWRkpISsXKJosiWLVv46quvGDBgAAqFApPJxA8//IDNZiM7OxuDwRCJ8g5bfgmJw7KyMs466yxkWcZqtXZbmt8b4SCY4cOHRzcdUcQEW4yDhkCoLIwAzc3NrP3he7YsW07p8m8p/fZbdiz/ltJly9j5M26l3waPpXTZckqXL2f7ihWsW/4tmzaso9Nu32tk4oHidrv3OyKuubkZSZIidR57IvJIEwQy09NINBnRK0VS4owMzU4iUSHT0NKG2y+xo6YBhexjaHY6I7MTGJWVxIgByWSYtSgEmdw4M4Pi48hPT2JgZgpqAqhkiQ6Xl4HJZjLNerJTk0kymxiYGkdqkhmjSUdOWhJlbZ2oNCoK0pNweb1kmzUUphlJNehQSxJKWSIz3kBBWiI+l4cEg4Yh6QkMy0wgQaUk2WjApNGA3Ltk02g0KBSKfudzkg5J0fG+0XVC+znpy9J6WMyJotgtMlkIlQfquvSkUCj2cGBXKpXd+hzpS1W/Js455xw8Hg+vvfZadNNe8fl8BAIBXC5X5Fq2tbXR0tJCfX09Tqczsl+SJJKSkjjxxBOpq6ujoKAAj8fDJ598QlFREdnZ2ZSXl/P+++9Hgg4EQWDdunXcdNNNfP/99/z73//mhhtuoKioaJ/3jsVi4YknnuCcc87Zw2J8pPHzPjliHGEI+Hw+1q1Zzbavv2FAu52RShUTzHFMiU9kckICkxMSmPQzbuFjmJwY/P9onY7hsoS2spq1X35BbSixY19+1fUHURT3+eDpCUmS8Hg8kUi8vREcWUCWJJQKEAM+WurraKyppr2+FpXXQaYaAu3N6AJODLIbV2stjtYmaqtrqaxqoKKsgoryCqqqKrFYW6ivqaSxfBfeDgt6yYvZ58TW1EhV+S4s9XXYW5uoqazG29aKs7me1sZ6dD4ncmcrlvoa3G0tNNTVU1NZR3NDNWVlu7C1tOKyWrFZLXisjTRVV2K3tOGxtuG2tlJVWYHb6UAI1S7dG1OnTiUtLY2dO3dGN+0VSZJ46KGHOPnkk6ObDgtarRZJkvqVPy7GocXv9/f6vToSSUlJ4frrr+e5557j22+/jW7eA0EQKCkp4fPPP2fz5s0YjUaKi4t56qmnePTRR2lpaeGCCy7gu+++Qw7lY4uPj+ecc87hhBNOYO7cuUybNo3k5GRGjhzJzJkzmT9/PieddFJkmd7v99Pe3s7RRx9NamoqoihSUFCwh8UsPH4Ym83GDTfcQGJiIldeeWW3vkcisVqiMQ4abo+HzWt+RFHfwJi0TJRiKGpRJlwoMvolPz+yQDDpl4zF7mZzu5XsiRPJP8i16c4//3xyc3P517/+Fd3UK16vl3/+85/s3LmTd999t0+ir6sVSe7NXiiH631Kod9uvfUOFoPfe3tXguPIyEGLZW/DRiGHjkkAJBnEXl43Y8YMTj/9dG644Yboph7pdl5C0bT95UBqiba2tnLhhRdSUFDA9OnTu008MQ4voiiyY8cOXnrpJV5//XWmTJkS3WW/+DXUEg1P+Y888givvvoqN9xwA6effvpeqx18/PHHdHR0cOGFF9LU1MTatWvxeDwcffTRZGRkYLPZ+Oc//0lhYSFXXHEFr732GgaDoVsao0AgwB//+EduueWWyPL6gVJcXMyDDz5IZWUlL774Ivn5+dFdDjmHu5ZoTLDFOEBkkAV8AT9b1v2Eqr6BUUkpIAeQZSEkCEITd5elu+5TZVDMyaEV1d0CYjeR14V1hRwcN7pPeFyZkD5UBC01giT3LEiCNc6Dx6hQ4vB42GBpJW/adLKys3t8yf5w4403kpWVxTXXXBPd1Csul4s77riDuro6Xn/99b2LjNBxhr/OkiQjiqEzH/qMsiAjBqUQEgLIAqIoIMtBMRasLRA6X8jIiEhyIHgeRREEGUESCEhSqNakgCDKweslh6+XhIAi6JciSgiyGBpLjtwPYshTMCBJiIKAIIKAAmSJgCwE94U/0l4+LsC0adOYM2cOt99+e3RTj3QVaT+HYANYtmwZr732WiRyMsbPgyAIuFwuzjzzTM4777yDdi1+LYItbNV65ZVXeOWVV0hISGDatGmMGzeOrKysbsv2Foslsuzt9Xrp7OwkPj4ejUaD3+9HFEX8fj9KpRJJkqivr0en03ULkvJ4PKxZs4YxY8b06tqxL+x2O6Wlpfz000+sXbuW4cOHc8stt/xsPpExwRbjV0Zweq+srKBp3XrGJiaiERWhKbl3rSMDkixjd7lAIWJQaVCIQkjcdb8tZcAv+el0u1GLSnQaNQph7yv6MuD2enAH/GiVanQqFbIQtPb0utgmCrQ4nJT4/Ew5+UQ06r0kqu0nzc3NqFSqPkV6dqWjo4NbbrmF+Pj4PlnnZFnG4/FgabOSmZUR2R/w+VAolREB7XC5KK9vYdTg3EgfSZZDFi0BKeRD5nQ6UKqUKFRqfLKAGAjgdLlJMBkAOVhCSpJQiIqQDAyJdFkmIAVQhB78kkyon4AgCoCAw96JSq3BJyqxdzpIMhmCS8cQEoLBfntj2rRpnHzyydxxxx3RTXsghxybN27cyKhRo3qtGNEbByrYCInwmGD7ZXAg4qEnfg2CLZry8nKWLFnC+vXraW1txWKx4Ha7I/dnWLxJkhRZwgx/n8KIohjZp1AEf7B1tSALoejUQCCw35ZlIZR/MS4ujoKCAk466SSmT5/ea8TpoSYm2GL86vD6fGz4/lty7B6y4kwgy0gCCHLYXtOF8J9C0Hzi9Hl5dslHfPHjj7xx990kmHVBy40cNZmJCprbLTzw6mvolGpuX/AndCHn9AjhOZ6g8NpaXs7tz73AaVOP4tIzfg8BP7IcFAS9Ighsbm1DMXQII0aOjBr48NLS0sL555/PVVddxemnnx7dvJsu59XW2Unpjl1k5g7E7vMjSTJxJh0+tweFAkwGE3U2B1t21nLcqHy8bjcatRK1SkGnx0+nX0l2ohaHx4dGpUAhQLPTTQAFRoUKn8+DLxCgs9OOw+nErNeiVSjQ6zQkxcfjdnvZWm8hLU7DgLTkoDD3B+h0e4KCOeBHliQ8AT/IAhaU1NZZSDIoSDJqSY03k2BQ7zMAZNq0aZx44onceeed0U17EH7MTZo0ibvvvptTTz01ukufOBiCLcaRy69RsIVxuVy0t7fjcDj2W1QdSuRQLkqj0UhSUlJ088/C4RZsezdRxIjRR6yWNvxtFtKMemQCQbHGXixZXedgWUZvMJGblk6ny4HZbARJ3FOsAcgBUhODpY50eh06vb67WCNqbpdkRuYX0NHZicGgB4U6OHaXLntDRiJNp8Ha2IDbs3+RnQcLn89HU1PTHlF4exA6r7Iss3PnDlx+Px5BwO7xYe10YnNLuP0ybh/UtVioa+vAo1DzU1kdTW4fVo+X0oZWPt1UzQ8l1WyrbmLzrmoqaxvZWV1PSVkjJTtrqGlsoq6xhaqWdlodflwKFVq9CUmrBa2OBruTorpm1lRZaHbJLN24g627qqhsbmVbXTP1Nhd2n4zNK4FSSavby3dFZbS7vbQ7nNRZbDRbraFHU+9XSxCEPk8sYcuAxRJMBBwjxs+NJEnU1dX9Yu5HnU5HRkYGOTk5ZGdn/+K28HH9UsTaz0HMwhbjgJCR2VFcjHPrNsalp4YsGb17rHVDpeLfr71Gm62DB668HNkX8osSxd1e57IEsozXL3Htk48ztXAEF552GgS8EJCCS3BicBkuSPDfbXYHc2++iSdvuI5R+UPB5+v1UMLIgDfgZ63NRuHMmSQnHXio+CuvvEJSUlK/LTt1dXUcc8wxPPfccxx33HHRzT1is9loaGhk6NDdgRPB5c7ghw/IMt6ARJPdBYEAGQlGFKICf0DC5Q/g8/qQ/AF0OhU6hYjN4WRHg4V4o45ksx6NQolSrQqKKlFEpxSDIQkhXzin10+11c7AJDPIEmqlAjG0dCoogtGysiwjBwIgKqhpbsEfkEg2m9BptKhUoBAAei9bNH36dI4//njuvvvu6Ka9UlBQwMKFCznnnHOim/pEfX0948aNi1nYYvRI2MK2evXqfS63SpLEhRdeiMPh4JRTTmHWrFnk5uZGlusvvvhinE7nIbewOZ1O1q9fz3fffUdZWVlk6fOXislkYvz48Rx//PHdEvb+HBxuC1tMsMU4IAIBiTXff0+GrZ2B5vguIm1vhFzQBRAR8fi9XHT3vVz2hz9wwqTx4JewdNpZvXULJoMJm8PGwPQMRgwaTG1rE5f86wHmnXgiyaY4kuLMTB01Cr/Py4adO2i1WNEZ9aSbEhg2JJ8Pl3/LCx99xJKHH0LwBxOthl3q94VfCrCqqYnMSZPJycnp5q/RXwRB4MILL2TgwIEsXLiwX1ah6upqTjjhBF5++eVutfr2ht/vx+Fw0N7eTkJCQuS4gwWYlWEXNuSQ2FaKCmQCyDJIsogoSAhiMFBBQsDltKNUqhGVKlSKoHOx2+PGoNeFzqOAFAgEIzu7RHf6AoGQUAvGisqyHAwyUCgjlleHw4FKpUKjUSPLMoIgIkkSapUavUG/z5XoadOmMXPmTO68887IBLO36xRuHzFiBHfffTdnn312n69DGEEQqKurY+rUqTHBFqNHioqK+MMf/sDixYtJTEzc6z0mCMEUSJdffjkrV65ErVaTl5fHtGnTIr5ZN9xwA5Ik8cYbb0S//KCxdu1annzySXbs2MGwYcPIzc0lNze3W6mpXwrhgIaamhrKysqwWq384Q9/YMGCBT/b8cYEW4xfETIer49vly5lvKggxaDbt16TBSRRCvq3KUSqm1v488L7+c9111A4OA9beyf3LFrExOHDOXbCRO554TkykhK549LLWLm5iKsffIgnbr4JlUrD/732Kv+9/jqWr1/Plh07+fMZc7F02iivrePM42dx57PP0tHezn9uuhk8nt2+aL2IgDA+KcC/3nqLHyqriNvHL+V9IYoiq1evxmAwMGbMGPx+f3SXveJwOFi9ejVLlizpUzkfSZIik0S3r7YsIwtBIRZeOg2LqaBjmYAcSe0BghCM/iUcQRoKz5UJCb7QQEJo7N3nNiycQqc5dK7Dr+v6wz18fLsdmaXgcYmKfRa5J5RNv7Gxsc/laARB4KOPPmLMmDHk5eX16zoQuo52u53PP/+c9evXM27cuOguMX7jVFRU8Oc//xmXy9XrPRy2Mm/ZsgWLxdKtzWw2c8UVV7B582aSkpL6leC2P3z88cfccsstHH/88VxxxRUMHjwYjebgBFkdatra2li6dCn//e9/GTt2LI888kiPlTsONTHBFuNXhIzT5ebbr5YySaEmxaQLZuTojbBgkwQElZJPV63i0x9X89jVV6FUa3jl40/4av06nr7pJtQKBbc88xxTC4dx1ikn8djbb2OxtnPXZZdR2dzA3Otv4Kq5Z/HWt8s45/jjOHnKVL5dt45BGVlMGj6cBQvv4+rz5zGlsBDZ5w8u2fXF1C9DQA7w3LJllNjspKb1rQDx3hBFkbfffpv4+HhOOumkfhW+tlqtvPLKK7zzzjscc8wx0c17IIcitcLRWF0tT8FEHSKyIAWlmhy0kCEEWxSyHFzaFIJSLIAcXJUOu/+HxZcsB9N3CICs2C3iRCG4Oi0Hb4JwcpagRVVEkEBAQgorudCTZ/fyi4wsS4iiApVq31GcM2bMQJZl5syZE93UI4IgoFAouona/iKEot0uvfTSA3Yqj3HkIUkSVqsVVx+SI/v9fubPn8+KFSsAGDhwIDNmzODSSy9l9OjRXHvttYcs6GDNmjVccsklXHbZZfzlL3/pVVwSEkivvvoqc+fOJTc3GFleWVnJihUrOP/881GpVBB6NoSfO+HIUUEQqK2tZeXKlZxyyil7zfcW7tsfdu3axZ///GdGjRrFv//978hx9Hec/SUm2GL8qnC63Pz43QoGOh0MTkzq4ke2d4J2HREUCha+vIhOh5O7LrkEpULBdU8+gUmnZ+GVl1Nd18B1jz/OwsuvZGj+IE6/6m+cfvwsLj7rbN78+GOeePc9rjnvPP796qtcc+7Z5OfkkJWUTGZmJrsqy1lw970suvtuclOTUYnK4AMh+mB6RMAvBVjd3ETWlKMYNGhQdId+c+GFFzJo0CDuvffe6KZeqaurY9q0abz00kt9WhKVQ2k9GhsbSU1JiZi5/H4/ClHE4ZMQpACCUqTT7cOkVuAJSJh1GhxON0qVAqVCYGetFY3JSKpGgaBQYNCoEJAJBCTcXjcGrRYBAS/BvGxqUcDtk3AF/ATcHjRqNT5kTFoNalGgqaMDjUpDnEGHJEsoRQVOux2lSoVWo0EOWWsFQUSnUQd/6e/joTtt2jRmzZrV73MaI8YvAUmSWLBgAY2NjZxxxhmccsopETHEIYwSdblcnHXWWQwdOpSHHnpon2INoL29nblz53Lrrbcye/ZsAB544AF27drF//73v25pcj7++GMaGxvp6Ohg2LBhjBs3Dq/Xy4MPPsjcuXPJzs6mpqaG4447bo/0OqWlpSxfvpzk5GRmz56972ArYPPmzcydO5d7772X888/f7+E3/5yuAVbLEo0xoEhiugMBtpcrt3rX70SsuwIAg6nnZb2dmZMmMhHK1bgDfhRKFTkJKeCQklRWTlqhZIGSwtWqxWdVktqXAKSx8uqzVs5Y8YMstNSSImP58SjpjJp/EQSzPEU79jO1opKJowag8vlYX1xMSiVwVy7fcQrSbjl4EN13xJ038yYMaPfPk+yLOP3+1GpVJHlw70TXl4EW6edeosNpc6AQq2lxubCISuodUpsbrLR5pdpdnipt7nZ0uxiR5uDDr9AjdNPh6TGpdRR75apbO3EqdJh9fjwIaDV6zGbTSQmJqMzmvCJChpsTio7PaypbGVVWRN17Z00eQOUWhysr2pmTbWVNr+C8jYXVe12Gl0SW5rcFDfaMCQlIylUNDu9eEQ1No8Pl1KNrFL36VYKLyv1FVmW+117tCf6854xYvTGnXfeyfvvv8+VV15Jbm7uYbm3PvvsMyorK7n66qv3Kda8Xi+tra1YrVbi4+NRq9Vs3LiR1tZWtm3bxgknnIDD4eC7777j+++/h9CysNVqZefOnSiVSoqLi3nppZeYO3cu27Zt4//+7/+Ii4vbQ1Q1NDSwatUq7HY7jz32GM8991yv50MOrSaMHj2ayy+/nGeeeQaHI1jW7kglJthiHBAqhQKD0YTV78fj9xH0hQotkUV3BiQhnFg1mCvNqNNTWlWFWq1Go1EzZWghrVYLy1auYm1xMckJCdQ2NCH7Apww9WhKKit4/fPPyExK4rLf/47BGVmMGTKENcXFrFq7hhUbNyIFZAwaPaICNuzYRnJCEkhSqERW9BFFETouq9uNU6HEaDT0RTvsk/nz5/c7QjS8rGAwGPb5EJIRkABZCtDU1ExVm411lQ00tTuwuTx8W1rNhl11DEgykWLUo1WrGJyWwIAkPQMSzWyrayXZrEMnSlQ0tjJmcAbpJhXlTS34ZJmKZgvfFu1kR2snm+usrKtqpbzdgahS4fd5kdRK8rNSGJmVSn5aKpnxRoZmpmHSiFS1tFKYm0Wq2YTF1onF7qa6zU5JfQttfom6Djtfb9pJeaefTeW17KhtDIn/fV+wfZ2XMOGlmoULF1ITqhe7v/T1PWPE6A1RFMnLy+uW+PVQ3lth8fP+++8zZcoUBg4cGN1lDzo6OigpKaGiogKHw0FFRQWlpaWsXbsWo9FIbm4uH330EcuXL6epqQlCNXP9fj9HHXUUw4cPZ9iwYeh0OkwmEy6Xiz/84Q90dHSwcuXKbu+l0Wg488wzueGGGzjjjDNoaGjoVbAJId9XgNNOOw2Hw0FpaWl0tyOKmGCLsd/IyCgUAgmJCTjUCurt9uB+QQo5pe853QZFk4wsBDCo1PztD+dw9LDhzDnqKERZ4A/HzOS06UeTkpDINeeey6WnzWH62DEkGk1cePKJzJowkZEDB/G3c84iTq8nxWzixvPnkWw2EafTM3nECEblF3DM+LGcf9zxzBgzlvycAUiBQPBYop6HskDIp6oLkkSlrQN9UgIGg6mHT9F/NBrNHub/vqBSqcjMzKSxsTG6qRtCeBMV5A7IZlhmEolaNTaHk3EDMxg/IJOp+VkMSYkjyaAmNymOdJOWvOQ4BiabGZ5iIjfejFmjpDA1iVyzjnG5mYxINDAowUhKchKmpES2VtZS1dCEw2YjQaNiSEo8E3LTmZGfyYiMOEw6HYkGFUPS4xielcTUgmxGZqSQYdaSlxrPuAGpnDwqg1PGDER2OPA7XIwekM7UwiyGpZgoTDYzICkY5BFcwI6+ON3p6wQnhPzXXnvtNX766afo5hgxjnjCFun29nZGjhwZ3dwjSUlJTJs2jSlTppCQkMD48eM577zz8Pl8xMXFMXnyZNra2pg5cyZnnXUWhN6nvr6eESNG0NbWxltvvYVKpWL9+vWo1Wo2bdoU+Q529edNTEwkLi4Ov9+P0Whk/vz53Upk9cbgwYPJyspi48aN0U1HFH07GzFi9IBA8BdOQnwc5uRUtlsseAJB/zQ55Li+x3QqgCzKCHIw4jAtMY6jRo1Ao1JCQEClEBk7dCijBheQaDIyOn8IA9PTQZDQKkQmFBYydkgBBo0qmIoCmXijjkkjRzAiL49EkwFZCqASZSYOG0peRmawHmYvU3+4Jr0sy6AQaeh0UOlwkpOVg0Z7cKKm2tvbsYcEbV+RZRmVSkVubi4//vhjdPMeCIDb7cHv95OVmkROkomBaYkokMlPNJCbYkKWpGDgpywTkIJLCgICWSmJIMsYtGoSdRqQJRRKEZNOi1IQSDNqGJOVyIy8LGYOyWTasBxy4g0IcrA+qTqU6y0ggyiBLAnBNkkmwahBkAMEAhIKhQKVIKJXiQzJSiYvJR6jUkl2vJl0s5Hc9BTijEaQd1+X3uirYOtKf6NDY8Q4UpCk4HcwPT09uqlHRFGkpqaGDRs24Ha7KS4uZu3atQQCAWRZpqWlhcrKym5WwkAgwNChQ1mzZg0Gg4HGxkZ0Oh15eXkMGzaM6upqTCYTxx57LApF91yLLpeL//3vfzz11FOsXLmyzwFaGo0GhUJBe3t7dNMRRUywxTggBEBvMJA7MI82EdY31CHLimA0Yk+2qcjOoISSAxIEAsGEEWLQCib7ZWTJHxRQAQnCEX2SEPo7EPy3QHAhUAJ8wf2yJIXMZiJyQAoma93jIHYjRArOg6BQYHU5+b6ukqQBuaSlpYZ8PPovCqJ55JFHWLx4cfTuXhFCEYkqlYrGxsZelwfCqNVq4uLiSElOwaBRY9SqERAR1IrgEoIoIogCCkFAVAT3iaFMJ6IoIAiK4JK1EJTbBoMerUaDWpBRiyIpiSaS4syolcpgzcDw6wURETGY8FYMFpUPivPg2ApRiVqpRBSC+dYQRMwmE1qtKpIiBGG3AAvK+d4/b1/ORzT7I/BixDhSCEdJb9myJbppr6xatYrXXnuN8847j3Xr1nHPPfcwYsQIxo8fz9q1azEYDGRlZUX6y7JMeno6BoOBb7/9Fp/Ph9FoJD09nZSUFMxm817zpmm1Wi655BL+/ve/88orr1BZWRndpUeam5ux2WwUFhZGNx1RxARbjANEQKFQkpaaSt6QYey02/m+sgy73x9MwBr2aYv0JlIjsqvVS0CMCCtBCJpXhNCSZeSVQlBhyZF/E1QE4b8jbxBaTAslcu36Pl0Jvp0AQjBjf117O1+Xl0NCIkOHDMFoMvb4uv1h165dVFVVRe/eJ0qlMlI0uXfCToNBoeP1evF6PXjcXrw+Dz6XG6/Hg9fjxuPx4vF68Lg9+DwevB5vqM2Hx+PB6/Xg8wRf73a7cXs8eLzeYF+vD5fbhdfjxef34fZ68bpDfb0evB4PHq8n+BqPD6/Xh8frxe314Pa48XmD7+31enA4XbjcXnweb+iYXHjdLgI+X/A693Ly5VCR6b6m1giLO7/f3+dllhgxjiTC34HRo0dTVFSEx+OJ7tIjsiwzatQo5s2bx7Rp08jJySE/P58pU6bw4osvkpqaSkZGRqS/QqGgvLycH374AZ1Oh8fjwel08s0331BRUYEoihHLmhwKHAgfmyAIGAwGTj31VIYOHYrP54uM2xubN2+mubmZ0aNHRzcdUcSeXDEOCkajkSEF+QwqLGS7y82SbdvYUFeHxWFHEoM5uoJJuqI2Rfe/hfD/Q33Df++tT3R7ZF/UuHsbyy0FqLK28215GZ9XluOPT2DU6LFkZKSjVAZz+hwMFArFfgkFhUIReej1ZlEKi1hBCNYfLa+opNVqpamthc5OOx22Tmz2Tjrtduyddhx2Ox2dNmx2B3a7HbvdTmdnB52dnXTaO+ns7MTe2YnFYqG9owNbpx2LzcaWqnpqmlpobLOyo6IGp60Tu6MTh8OGw2HHZu/EbrPRaeuks9OG3WbDbrNjs9lot9mwdzro7HTQaXdQ09xMm7WNFpsdS4cNi81Bc4eNdqcD5HD2t57ZuHEjLpeLadOm9XpeuhIIBDj//POZOHFidFOMGL8Z5s+fz7Zt2/j666+jm3pEEIJpgeRQlLVarUYURUwmE0VFRXi93m7PtvCy66hRo4LzwpAhGI1GvvjiC2pqapg8eTLNzc28+eabkZxtgiCwbds2VqxYgc/no6SkhHHjxnVLc7I3/H4/jz76KEcffTTZ2dnRzUcUsTxsMQ4akiRhsVgpLytn164dWNtawedDJYjQ5xxohw9BEJFkGS8yCr2BnAEDGDIkn5zsHHQ6XXT3A+LCCy8kNzeXhQsXRjf1is/n4/7772flypV88cUXvYq+4MKijNXaQUVtHS6lBqVWy6jsdLx+ibL6JkYNzMLnD2BzeEiN0+OXJTq9PmRJxqhSoVIKSELQaikK4PZ6sfkkHD4/bVYH8VoFSrUKhz9AW0srE4YMwe5y0tHZyYDkJHQ6VSjZrowoyICILxAIlbWS6XC60GnU1LfbKG9sw2w0YNRpkX1+CHhptDsZlJ5KQUp8UH3uhUWLFnHXXXexatWqbssxvSGHIkWj/WZixPglcqjysMmyzMMPP8zHH3/MSy+9RF5eXmR/Ty4Db731Fm+//TbTp09n/fr1pKSkcNttt/Hkk09iMpn46aefKCws5OKLLyY3Nzey//TTT6euro7ExEScTic333wzF110EZMnT8ZisaDRaBg4cGDkmbZs2TIee+wxMjMzmTNnDsccc0yf6rE+/vjjvPDCC7z99tuHfUn0cOdhiwm2GAcVSZJxOB20NDfT2NRMq6UNt8sVrDf5iyKYlV+pVGI2mUhNSSMjPY34xHjU6oMTaNCVSy+9lNzcXO64447opl6RJIkXXniBd955h8WLF5OSkhLdJYgsB1OmBCQ2F5fQ5vQyetQwCPiwON1B65XVQVZSAg4pgMPrIT8lDtnno9Mn4/JKyJIfo8GAUingdXvRGYw0WdpRIZGVGEei2YAQCFDTaiUnIwWvX2bNjkoEUY1aIWPWa1CK4JUFDDoNuQlxtNps1Hc4GTMgnQ6bjbKWDgSFCtHnYfigTKwddjKTE7B5/FgdTuJUoNNoiNfrQ+vYe04gAC+88AL33HMPa9asIS0tLbo5RoxfPYdKsAHYbDauu+46qqqquOeee5g6dWp0lwjvvfceFouFyy67jJ07d1JUVITT6aSgoICpU6eyY8cO/va3v3Hqqady9dVX88wzz2A0GrngggsiY/h8Ps4991xuvfXWg2bhbmtr49lnn+Wdd97hoYce4oQTTojucsiJCbYYv2KCflQyAv5AAK/HjdvlwufzI4XKFf2SEAQBhSii1qjR6bSo1BpEYW8ebwfGmjVrMJlMDBv2/+3deViVZd7A8e9zVjjsIIsIyAHc9w3NHdQ0rdEaL7cZc582J31NXy2qmSnFzMq3Rsdyq9RXa8hMy0yzkhFEUXlxIUxEwIUdZIfDWZ73j+AMnHJDPKFzf66L64rnd59F4tz8nnv7dbIN3ZTFYuHIkSO8+OKLLF++nMjISNsmdX5e2ycB10tKuXwtmx5dOmGxWLhWXIZWrUStVnOluBxXnQY/N2dKK6sprzLg6+aCUqmgymhEIUnUGo0Ya824ujhjNNSgUUq4OjuBbMFikamtNaJx0GKxyGQX5OPl7omDVk1xRSWVNbUg/XxIcUVlFbmlZYT6tqLMYP55t2rrVpgsJnRKNWZjLSqNGkkhIctglmVUdYXnG61L/BVbtmxhxYoVnDx5Eg8PD9vwr7JYLOTn5+Pj43PTkUpBaAnuZcIGUFBQwOrVq0lISKBv376MHj2a9u3b4+bmZi3xBHDlyhXMZjPBwcHU1NSQk5ODp6cnXl5eGI1GVCoVBQUFqNVqXFxcOHfuHDqdzjpyB1BTU8OXX37JkCFDfnWHasPRvRuN9MmyTEVFBYWFhSQmJrJnzx5qa2tZunQpI0aMsG1uFyJhEx44LflX7Nc6hpbm1KlTzJs3j7/85S+MHz/eNtyIyWSiqqoKg8FAq1at+LkKu0StwYBCpcKEhFqhQGmRMclmZIUClaRA4t+LfyWF4ufNIrJMVWUVGq0GtVr1c1JlNlNVVWWtByhJEhaLGfg5+ZXrEiMJmZzrZai1WnycHSmuqgGzBXcnp5+PdbHIVFRWolar6wpOy1gsP/+eKBSKmyZUZrOZhQsXUlJSwvvvv9/oSIGbsVgsTJgwgZdffpnw8HDbsCC0KPc6YaNu5Ovw4cPs3r2bM2fOUFZWRmBgYKNC6vWfRUvdbn3b722vKZVK6/KDhuo3TzX174Esy+Tk5FBWVkZoaCgRERFMmDDhtta53SsiYROE38CN7upagp9++onp06ezePFiJk2aZBtuRJZlqqurqaystE6f1tTUcPbsWZwcdXTu2gWACz9doKyijJDgYDy9WmE2W7h2LZvc3Gw6duyIq6srlZWVJCQk0KlTJ+s6sby8PAoLC2nbti3Ozs4YDAYSEhLw9fWlQ4cOKBQKqquruXr1ChqNlsC2AShQcOFCOtnZ2fTr2wcnZycqqyrJuJSBp6cnrVu3RpIkSkpKuHDhAn5+fgQFBTX6dzVUXl5Oz549WbZsGbNmzbpleR0a3DTo9XreeOMNpkyZYttEEFoUeyRs9cxmMwUFBRQVFZGbm0tNTY1tk7tWfxPYVJIk0apVK7y9vfHy8rrl+jZ7EAmbIDyAkpOTcXZ2JiwszDZ0Szk5Obz66qvodDpWr159y4oJRqORmpoa6ygYQGFhIUjg5ekFElwvKcFkNOLm4oxG+/MGi8rKKqqrK3Fzc0etVmM0Gq2Lht3c3KxTEpWVlXh6eqJWqzGZTOTm5uLi4mIt1GyxWKioqEShkHB2cQJZQWnJdSoqK/Dx9UGj1mCoNZKfn4eLswvu7u7QoG6ho6PjTac5y8vL6dKlC9HR0fzxj3+0Dd9UWFgYK1asYPLkybYhQWhR7JmwCU1j74TtxvMOgiA0m3feeYetW7faXr4tLi4uBAQE8OOPP95W8fL6tST1ZFmmVatWtPJqVXeOnYynuwc+3j5oHXTWc/KcnZ3w9vZBo9EgSRJqtRq9Xm9N1qh7L35+ftakUaVSERgYaE26JElCoVTg5uaKi4vLz6vqZHD38CAgIBC1Wossg1ajJjDg34+j7tBff3//myZrAGfPnsXDw6NJUyEWi+Wu7vIFQRB+KyJhEwQ7sFgsv1jTcbs0Gg1+fn4YDIYmlV5pONUr8XNFgoYU1iLKjROZRo9rUGj5Rtfq/7vx+WkSUoOXk6ztmj79/MMPP+Dt7U379u1tQzdUvz5Pp9M1Wp8jCIJwvxAJmyDYgW2ycyeUSiU9e/akvLycxMRE23Azavp7tBdZlikuLsbd3f22NxvUs1gsrFmz5jfbUSYIgnA3RMImCHZwN7ujFAoFPj4+6HQ6rl27Zhv+j3L16lXi4uIYN25co6MHbkWSJJRKJaNGjbrjRE8QBKElEAmbINhBSEhIk8umSJKEm5sbgwYN4osvvrAN37WqqirS09MpLS2lsrKSrKys264zaG/Z2dkYDAbatm17W7tDBUEQHhQiYRMEO1i6dCkzZ860vXzbnJyc6N69O1lZWVy4cAGa6Xy70tJS4uPjuXz5Mh999BF79uxh586dvP/++83y/NXV1bddwPl2HDhwgDZt2hAaGnrTs9p+jcVi4fDhw1RWVtqGBEFoBvV9RkFBAZmZmdaZheboSwSRsAmCXbi4uNxVfdL6dWyurq5N3m36a86cOYNOpyMiIoLMzEw0Gg2jR4+mXbt2tk3vWG5uLn/961+Ji4uzDTVJaWkpiYmJ9OjRAy8vrzteFyhJEi+88AKxsbG2IUEQmoEkSSQnJzNt2jRGjBjBpk2bfrE5SWg6kbAJwn1AqVTi5+fH4MGD2bdvH0VFRc3SCfbp04f+/fuTnp7OwYMHGTBgAL169WLs2LF3/fyurq4cP3682aZXU1NTuXDhAsOGDcPBwcE2fFNy3cHI169fp6yszDYsCEIzOXToEIcOHeLSpUtER0djMplsmwhNJBI2QbCD9evXs2vXLtvLt02SJHQ6HWPGjOHKlSskJCTYNmkSrVaLSqUiNzcXBwcH3NzcKCkpoaysDLPZTHx8PKdPnyY5OZmkpCQAKisrSUlJITExkfLycgAqKipISkoiJSWFtLQ0LBYLRqORPn36MGLEiGaZEtm2bRudO3emU6dOKJVK2/BN1SefirqyW4Ig3BthYWH4+voiSRIRERF3/FkVbkwkbIJgB7GxsZw8edL28h3RarV06tSJMSXU3skAAB4YSURBVGPG8P7771NdXW3b5I5UVVXx9ttvk5SUxP79+xk9ejRarZb4+HhrmZoff/yRzZs3k5uby969e6mtrWXt2rV89dVXZGVlkZGRgdFoZPv27RQXF5OWlsY777wDwNGjR6mtrUWtVt91knTu3Dn279/PI488gre3d5Ofz2QyNfk8PEEQbm3cuHF88sknbN++nXfeeQfpLktSCf8mEjZBsAO1Wn3Xd5pKpRJPT08effRRLl68yJ49e2yb3JH6IuuJiYl07tyZwMBAvv/+e/z8/NDr9ajVajQaDe7u7owYMYIFCxaQl5fHmTNnCA8PJzQ0lJCQEBITE7l27RqRkZFUVFTg7++P2WzmypUrDB069K6rC1gsFlauXEmbNm0YMWLEHR3n0ZDZbKZ9+/bo9XrbkCAIzUCWZVQqFQEBAYSEhODq6npXn32hMZGwCYIdNFenpdPp6Nu3L0OHDuXdd9+9q3PZHBwcWLhwIVOmTGHq1KnMnj2b/v3706tXLxQKBR4eHpSUlDBkyBDUajUeHh4YjUZCQkKIiIggLCyM8+fPk5ubi0KhoLa2lk8//ZQOHTpYp0ezs7OJj49v8ogYwL59+/juu++YN28erVu3btJxHrIso1Ao2LFjB3379rUNC4LQDCRJ4vDhw4wbN44RI0YQFRVlvS7cPZGwCYKdNEenpVar8fHxYcKECdTU1LB8+XLrMRVNSQpVKhXu7u5IkoRWq8XDw6PRcRl6vZ7g4GDr94GBgfTr14+dO3fy6aefolAoGD16NF27duXAgQMMGzaMrKws2rZtS/fu3XFwcLijElK2zpw5Q1RUFI8//jiRkZF3vNmgnlS3U61Vq1aoVKom/awEQbi1pKQkLly4QFVVFTt37sRsNts2EZpIkkXPJQj33NatW/Hy8mLcuHG2oTtmNpvJycnh66+/ZtWqVYwaNYqXX365yQfztlQJCQksXLgQnU7HG2+8Qbdu3ZqtDmj9rlFBaKlmzZpFdXU1n3zyiW2oRYuNjWXBggXk5uYyb948XnvtNWimG9aW5umnn6a6upqPP/7YNnRPiIRNEOzAbDYjSdIdH/Z6IzU1NWRmZrJv3z4+/vhjXFxcGDp0KB06dECpVNp9BKn+9e62U5YkifLycs6cOUNCQgJ6vZ6nn36a8PBw3N3d7+rnZ7FYWL16NVOnTiUoKMg2LAgtyv2asJnNZjIyMigrK6NLly5otdoH9gZJJGyCINySLMtUVVVx5coVTp48yYEDB8jMzHxgdkA6OjoycOBARowYQefOnfH09LzrTRsAoaGhrF69mieeeMI2JAgtyv2csNVXT3n00Udxd3cXCVszEQmbINhBXl4earUaT09P21CTybJMTU0NRUVFXLt2jaKiIqqqquw+utbc6tfV+fn50bp1a1xdXe9qZK2hsLAwVqxYweTJk21DgtCi3K8J2969e5k3bx4FBQXMmDGDLVu2PJDJGiJhE4QH06JFiwgICGDRokW2obtmNpupqanBYDBYa/fdzyRJQqPR4Ojo2CxnuDUUFhbG8uXLmTJlim1IEFqU+zVhe/vtt1m8eDHUbVq6cOFCk3Z23w9EwiYID6Bp06YRHBxMdHS0bajZ1E873O8f6eZM0Gzp9XpWrVrFpEmTbEOC0KLcrwnb2bNnefHFF7ly5QoLFixg9uzZtk0eGPZO2JpnnkEQhJtSKpXNNq13I/WJTv0RFvfr170gyzJms5kpU6bQr18/27AgCM2kW7dubN26lf379zNz5kzbsHAX7u1fEEEQoC5huN9Hvu53CoWC1157Db1eL/5fCMI95Onpib+//z2/Sf1PI6ZEBcEOZs2aRXBwMH/5y19sQ4Id1Hdz92oETxCamz2mRBvu3jQajdaNSy2VVHf4tYuLi23oN2HvKVGRsAmCHSQmJuLk5ESXLl1sQ4Id1I9wZmdnizt/4b5gj4QNIDs7mwMHDvDdd99RXFxMbW1tixyBlmUZpVKJk5MTnTp1YsyYMTz00ENoNBrbpnYjEjZBEIR7wGKxMH78eF555RXCw8Ntw4LQotzrhM1sNrN7924++OADNBoNgwcPplOnTjcs2G47St2wze2MXNs+/k7V33RdvXqV48ePk5ycTP/+/fmv//qvRuXz7EkkbIIgCPdIcHAwK1euZOrUqbYhQWhR7nXC9ve//51Nmzbx1FNPMXnyZLy8vGybtFhGo5HTp08THR1NQUEBH3/8MSEhIbbN7jl7J2xiXkAQ7CA5OZmLFy/aXhbsTKVSielQ4T/e/v372bBhA9HR0Tz77LO3TNby8vKYP38+p06dsl5LTExk8eLFv1jzVlZWRnV1NUajkdraWqibdn3zzTfJzc0FwGQyNXrMnZBlGbVaTd++fdmwYQNeXl48//zzlJWV2TZ94IieSxDsYOXKlWzatMn2smBnFovlgSnfJQhNUVxczKuvvsqMGTMYN26cbfhX6XQ60tPTMRgM1mtfffUVTk5O6HS6Rm0///xz3nvvPaKioti1axc//fQT2dnZlJSUcPz4cfbv309MTAw1NTWNHne7Gk6ptmrVin/84x9cuXLlP6J/FQmbINiBRqNBrVbbXhbsSJZlnJyccHNzsw0Jwn+Mf/7zn0iSdFsH2paVlXHx4kUyMzNRqVQUFhbyySefkJKSwoULF+jevTsZGRnExMSwa9cuZFmmoqICnU6HwWCgU6dOGAwGduzYwciRI0lNTWX37t2EhITc1ShbQ/7+/ixYsID//d//5fr167bhB4pI2ATBTsRy0d9O/YLlVatWMWTIENuwIPzHOHjwIOHh4bdV17i6upqcnBxycnKorq6moKAAs9lMcnIy7u7uuLu7ExMTQ1JSkjUB02q15OfnM2zYMFQqFRUVFTg7O1NYWIjZbOaRRx7h/PnzHDp0yNonynV1ka9fv051dTVpaWmUlpbavJsbGz58OFqtlpSUFNvQA0UkbIJgB2azGbPZbHtZsCNJkhg7diwuLi4ieRb+I8myTG1tLd27d7cNNVJ/g+Pj48OQIUMYNmwYXl5eDBgwgD/84Q84OTnh6OjI0KFDMZvNjB07lsmTJyPVlcYrLy/Hz88PT09PMjMz6d27N25ubvTp04f8/Hw0Gs0vbpxiY2OZO3cuGzduZN26dcyfP5/8/PxGbW4kODgYX19fkpOTbUMPFJGwCYId6PV6AgMDbS8LgiDY3a2WZzQsFZeUlMS3336Lh4cHCQkJbN26FYvFgqenp3X0zcnJyfpYi8VC165dOXnyJFevXuXo0aNcv34dFxcXXF1dOXfuHJcvX8bLy8u6Hk2SJOv06YABA3jttdeoqqri0qVLDd7VjdU/z4N+UywSNkGwg6VLlzJr1izby4IdWSwW9u7dS2lpaZPPghKE+5VcV9VAqVRy+vRp2/ANpaamEhsby/PPP09RURExMTEMGDCA3r17c+jQIdzc3BrdjMqyjKurK66urpw8eRKlUolWq8XJyQkHBwd0Oh3u7u6NXoO6qVRvb2/r+jYHBwfrLtNbuXLlCoWFhXTr1s029EARCZsg2IGrqyuOjo62lwU7kSQJhULBK6+8QlxcnG1YEB549Tcpw4cP58SJE5SUlMBtrK1VKBQEBQXRuXNnQkND0ev1+Pv7079/f3bu3Im/vz/e3t7W51EoFCQlJfHNN9/Qtm1bFAoFSqWSb7/9luzsbHx8fHB1dbWueWv4+pIkYbFYrFOy9e/5Vu/x6NGjlJaW0rVrV9vQA0UkbIJwj92qsxHsQ5IkysvLKS8vtw0JQovTMGFpTlOnTqWkpISYmBi4jcoDsixjMpkwmUwYDAZr+/z8fK5evcq1a9eoqamxXrdYLLRp04bHH3+cK1eu4O3tTX5+PjExMcTHx+Pu7k5SUhIbN27EZDJZH1dSUkJ2djaVlZWYzWbKy8utuz5v9h5LS0t56623mDhxIj4+Pnbpbxu+hj2nYUXCJgj3mCRJrF271tpBCr8dhUJx085fEFoKFxeXZjv6oiE/Pz9eeukl1q5dyw8//GAb/gVJkkhNTeXAgQOcO3cOJycnzpw5w6ZNm1i3bh1Xr15l5syZHDt2DLPZjMViwcXFhYkTJ/LYY48xZ84cfve73xEYGMjgwYMZN24cf/7zn3niiSesh1ibTCYKCwsZP348GRkZ5OTk8Oijj6LRaG56Xlt5eTlLlizB2dmZ+fPnwy2Su+ZSPxJoNBpveehwcxIJmyDYQXx8PElJSbaXb1v9HV3DO7tfu2b7vW2sofpYfSfb8FpzqZ/aqK2t/dX1KLd6vYbx5jjw1mQy3fI1BaEl6Nu3Lzk5OffkbLFp06bxxBNPsGTJErZt20ZFRYVtEytXV1dGjhzJuHHjWLJkCf379+f8+fMsW7aMyMhI/ud//oeAgAAyMjJQKpV4enri4eGBUqmkTZs2+Pr6EhgYiEajISgoCD8/P4KCgvD19bUmbCqVikGDBvHMM88QGRlJjx49eOqppxgzZgwODg62bwlZljl37hwLFy4kOTmZNWvW3NYxJc2psLCQrKysX+x2vZdELVFBsIPp06fTtm1bli9fbhu6JVmWMZvNfPHFFzz00EOoVCrc3NxIS0ujsLCQ4cOHN1rrIUkSp06dwsnJidDQUCorK627whQKBXl5edTW1tK+fXsAEhISiIuLY8mSJQBkZGRQXV1N586dSU9PJy4ujkmTJuHo6EhlZaX1rj83N5fAwEAKCwspKytDqVRiMBioqKggPDwcjUYDdUnShg0b6Natm7Vz+/bbb8nJyeHJJ5+0PueNDrRNS0vjiy++4LnnnvvFqep3QpZlpkyZwpIlS+jbt69tWBBalKKiIiIjI4mKimLSpEm24btmMBj45JNP2LJlC25ubgwbNozevXv/YkNAUVGRtc8xmUxcv34dDw8PtFotJpMJpVKJ2WxGoVAgyzLZ2dlotdpGI0+1tbUcP36cbt26/eL574TZbObSpUscPnyY//u//6NLly4sWrSIzp072za953bv3s2bb77J7t278fPzsw3fEyJhEwQ7uJuELS4ujtzcXNLS0hg+fDgxMTEsXbqUDz/8EBcXF5577jlokKwBrFmzhi5dujBq1Cjefvtt9Ho9KpUKtVpNfHw8FouFlStXAvDZZ5+xdu1aDh8+jNFoJC0tjffee49XX32VPXv2UFFRwezZs/Hw8CAtLY0zZ85gNBrZs2cP0dHR/PDDD5jNZjp06MDFixdZs2YN33//Pb6+vlBXR3XOnDk888wzuLu7U1NTw969ewkMDGTy5MnExsYiSRJz5szhp59+on379iiVSo4dO0aPHj3Ys2cPx48fZ+nSpZw5cwZHR0fGjh3bpJqgRUVFuLu7o1QqbUOC0OKsWrWKgwcPsnPnTnx8fGzDzSI9PZ19+/Zx7NgxLl26RGlpaaNR6IY3g9Td9NWPnP9am/rPZcMRcalud6rZbL6rEW6VSkVQUBCdOnUiIiKC4cOH4+zsbNvsnqnvYwsLC5kxYwYDBw7kpZdesss0LCJhEwT7mDZtGsHBwURHR9uGbqi+U/zqq69ISkrC2dmZNm3aUFVVRe/evdm2bRuzZs2ia9eupKSk0LVrV2uH8u6779K2bVvatWvHtm3bWLx4MTqdDo1Gw7Zt29BqtUybNg2APXv2sG7dOg4ePMinn37K2bNnCQoKIjMzE51OR0hICHFxcbz88sv4+flhNBopLi5mzZo1vP7662zZsoX+/fvTu3dvzpw5Q2RkJGfPnqV169bk5+fz1ltvER4eztmzZ/nDH/7A119/TVhYGHl5eUiSxMSJE5Ekifz8fGbPnk1AQAC9e/fmxx9/5OGHHyY1NZWQkBC8vb354IMP6NWrF8uWLUOr1dr+yG5bw+RWEFqq4uJinnzySfR6PatWrbqrEeZbqampoaKigtra2hb72ZAkCUdHR1xdXX+z92gwGHjxxRdJSUnho48+onXr1rZN7hnlX//617/aXhQEoXnJskyXLl3Q6/W2oV9Vn1CcP3+e4uJiLl++zOHDhwkKCsLZ2Znz589jMBjQarXs27ePH374ge7du2MwGDhx4gRxcXFUV1fj6OhIamoqzs7OpKWlkZaWRkpKCnq9ng4dOiDLMikpKZw8eZLw8HCSkpJITU1l4sSJ7N+/n/Hjx5OdnY1CoSAiIgJZljlx4gS1tbWcPXuWUaNGkZSUREZGBkeOHKG0tJTr168zdepUHBwciI+PJzw8nB49evDNN9+gVqtJTk7mT3/6EykpKeTk5Fjfh9lsZs+ePYSEhDBkyBBcXV2tZzdJkoSXlxd5eXlERUU1+Q+XxWJBqjsQVBBaOkdHR3r27MnWrVs5fPgwYWFheHl5NWl0+VZUKhU6nQ4XF5cW++Xs7GztD+zNZDKRmprKkiVLOH/+PO+++y6hoaG2ze4pMcImCC1UfdKWmprKjh07KC8vJzg4GK1Wi6urK2FhYRiNRvbv38/rr78OddMVgLUz6dmzJ+vXr+dvf/sbu3btIj09nT/+8Y/k5eXRp08fiouL2bx5M59//jlz584lNTUVs9lMx44diY2NZeTIkbi7u5OVlcX8+fMpLi7mhRdeYPr06ZSWljJhwgRrAnfgwAHrkQHdunWjVatWHD16lOzsbFQqFU5OTsiyTHR0NLNnz6ZNmzbU1NSQlJREu3btGDBggHU0Yfjw4eTl5dG5c2cefvhhPvvsM6Kioti+fXuTFvnWj1a+9tprPPnkk4SEhNg2EYQWKy0tjeXLl3P69Gn69OnD0KFDCQkJuSeJm9CYxWIhMzOTuLg4Tp48SZcuXXj55Zdp37693UfqRcImCC1QfUeQk5PDwYMH6datG7GxsYwePZrz589jNBrp168f6enpZGZmMm/ePOtjMzIyiIqKYuDAgej1ejZu3MjSpUvZvXs3mZmZzJ07l71797JgwQKCg4P57LPP2LhxI19//TUbNmzg/PnzDB8+nL179zJq1Ci8vb05deoUS5cupaCggLVr17Jw4UKysrJwd3dn586d9O3bl3379jFt2jS2bduGXq9n2bJllJeXk5GRwQcffMCYMWMwGAysW7eOZcuWYbFYiI2NJTw8nDFjxpCdnc2MGTOs2/+LioqYPXs2arWajRs3UlVVBUCvXr0YNGgQ/v7+d9xZ6vV6Vq9ezcSJE21DgtCiVVVVceTIEf71r3+RlpZGdnZ2o/PPhOYnyzJarRZ/f3/atWtHZGQkgwYN+s0OQRcJmyDYQVZWFlqt9o53E50+fRp/f39OnDjBqVOneOaZZzh69Ci9evXiu+++IycnBz8/P2vZq127drFr1y5qa2uJiooiJyeHdevWsWvXLjZu3EhqaipvvvkmVVVVuLq64uDgwN69e1m7di0HDx7k2LFjxMfHM3LkSOvi4hMnThASEsLw4cNJSEhgx44dREZGsmfPHp599lkOHTrEnDlz+PDDD1myZAnPP/88AP/4xz+gLoFctGgRGzZs4J///CcrVqxg//79dOjQgbfeeosRI0bw0EMPkZ6ezuzZs+nRowdjx44lKysLX19fzp07x/jx4+natSubN29m//79zJkzh0ceeeSO/1iFhoayYsUKpkyZYhsShPtGWVmZ9QZGuDfqUyOFQoGjoyMuLi533N80N7GGTRDs4MUXX+TSpUt3PJ2XlZXFqVOn2L59Ox07duTAgQPExcXx+9//nvj4eI4cOcILL7xg3SmlUCgYOXIkJpOJtm3bUlJSgk6no7S0lOrqamprayktLcVgMFjXX5w/f54jR47w8MMPo1arWb9+PWazGWdnZy5fvsyWLVsYNGgQYWFhuLu7ExERQVZWFikpKYwbN44vv/wShULBiRMn0Gg0HD9+nM6dOzNo0CCoWzj9r3/9i9DQUE6fPk11dTV+fn4kJyezb98+Hn/8cby9vSkuLmbv3r14enqi1+u5du0ahYWF1m3zeXl5fP7553To0IGnnnoKSZLueEri73//OyNGjHjgS9gID56Gv+tarRZnZ2fxdQ+/Gq6b02q1d9TP3CtiAlwQ7KCsrOymh1PeSP/+/RkwYADt27enffv25OfnExUVhZubG87Oztb1YfU6duxIaGgosixTXV1Nfn4+Wq2WDz/8kIiICObMmcPmzZtJTU2FuoQwLi4OT09PMjIyMBgM1NTU4Orqiq+vL97e3jg4OOBclxC6uLjg7u5OYWEh5eXl+Pn58fzzzzNmzBi6du3K0KFD6du3L2PHjrW+p4CAAKZPn87Bgwd57LHHaNeuHWFhYZw7d44pU6Y02ohRVlaG0WgkKyuLwsJCBg4ciMlkYtCgQYwdO9a67q3enXSi9evYxLof4X50J7/rwoNJ9FyCYAcKhaLJiUJwcDCRkZFs3ryZgoICdDodiYmJlJaWMmjQIJ566il2795NZWUltbW15ObmUl5ezqVLl9BqtXTr1s16R67T6dDpdNZDLa9evUqXLl3YuHEjgwcPpnXr1lgsFrRaLRqNBkdHR+vUKHWjZWfPniUrK4uuXbuSlpaGwWAgNjaWlJQUvv32W8rLy/nwww+tNTsvXrxITk4Oo0ePpl+/ftTU1DBw4EB+97vf8c033/Dcc8/x5ZdfAhAREcGyZcuYO3cu06dPx9PTE7PZbN3hmp+f36TafbIsY7FYePrpp+nfv79tWBAEocVr2l8QQRDuyJ0uFa1vX1VVxVdffUVmZiYvvfSSNbkpLi5m5syZREdHExISQkxMjLUCwaFDhzh27Bgmk4mRI0fi5OSEyWSioKCAgoICLBaLdVTuoYceYubMmXh7e0PdSeJOTk5Qdzp5TU0NWq3W2r6mpobt27cTFxfHY489xtq1a9mwYQNXr15l7NixBAUF8fvf/56srCyys7NJTEzkxx9/ZPjw4QwcOBDqklez2UxERATR0dG0adOG0tJSAgICWLFiBe3atUOn09GtWzfc3NywWCxcv36d4uJiZFnGxcWFOyVJEgqFgkWLFhEUFGQbFgRBaPHEpgNBsIMZM2YQHBzM3/72N9vQTeXm5qJWq63rKC5evIivry/Ozs7WKRKLxUJtba215l5JSQkXL16kZ8+eqFQq8vLyKCoqonPnzsiyTGZmJq1bt/7VGn3V1dVkZWURFhaGSqWyJkuurq7W8lYVFRWYzWbc3NyoqqpCoVA0eq766ViNRoPRaESr1VpHF2VZJjExkX79+iHdxnloxcXF1qlUJycn8vPzcXBwwNXV1bapIAjCA00kbIJgBxcuXMDBwUGM7vxG6tevXb16lYCAgNtKFgVBEFoSMSUqCHbQvn17kaz9huqnRJ999lkSEhJEsiYIwn1HjLAJgh2YTCbrGizqRnyUSmWjMjNVVVXWhfr1bXQ6XaPpv9LS0ka7JAHc3d2tdTWNRiMlJSWYzWbrsRcajQZPT09r+4qKCioqKholLTqdzroTlLpp1draWuv3kiTRqlUr6wYEo9FIaWmptcCzLMs4ODjg5uZmfUxVVdUvdsa6uLhYy0qZzWZKSkqsa++oex1PT0/rmjmDwdCoGHX9v8fd3d36c/u1f8+vvY7RaKRv3768+eab1jqqgiAI9wuRsAmCHVy8eJFJkyZRWVlpTaR0Oh3ff/89Hh4eAKxcuZLNmzdbkxWTycTgwYP54IMP0Gq1lJeX8+c//5m4uDhUKpU1iVm1ahUTJkwAICEhgfnz51NeXo5CocBoNNKpUydiYmJwdHRElmX++7//my+++AKlUml9nVGjRrF+/XqoW8c2d+5cjh8/bn0dWZaJiopixowZAHz99dcsW7YMg8GAJEmYTCZ69OjB+vXr8fHxoaamhtdff52YmBjr9KPZbObJJ5/klVdeASA/P5958+aRkpJiXS/n5ubGjh07aNeuHQAfffQRb7zxBnLdGVRmsxm9Xs9HH32Ev78/sizzxhtvsGnTJtRqNXLdbtBFixbxzDPPAJCens6f/vQnMjMzKS8v5/PPP2fw4MEIgiDcT0TCJgh2YDAYSE9PtxYfr09AOnbsaE2crl27xvXr1xuNFGm1WmvNQKPRyOXLl60L/anbcODv7289pqO8vJwrV640eh2tVoter7cmgpcvX/7FSJ6TkxN6vd6a8GRlZVFVVWV9L7Iss2HDBt577z1kWaakpIRr165B3ahY/eu0bdsWjUaDxWLh2rVrlJaWWp/DYrHg4eFBQEAA1I0GZmVlWcvryHWjjnq93rqJIT8/n7y8vEabFtRqNXq9Ho1GA0B2djbFxcWN3qu3tzc+Pj5Q97PPysrCaDTi5OREUFCQ9WcuCIJwvxAJmyAIt2Xx4sWsXr26UUIpCIIg2IfYdCAIgiAIgtDCiYRNEARBEAShhft/0mDJd48CMxsAAAAASUVORK5CYII=;" vertex="1" parent="1">
          <mxGeometry x="30" y="260" width="620" height="210" as="geometry" />
        </mxCell>
      </root>
    </mxGraphModel>
  </diagram>
</mxfile>
